<?xml version="1.0" encoding="utf-8"?>
<!-- Generator: Adobe Illustrator 25.2.0, SVG Export Plug-In . SVG Version: 6.00 Build 0)  -->
<svg version="1.1" id="Layer_1" xmlns="http://www.w3.org/2000/svg" xmlns:xlink="http://www.w3.org/1999/xlink" x="0px" y="0px"
	 viewBox="0 0 500 500" style="enable-background:new 0 0 500 500;" xml:space="preserve">
<style type="text/css">
	.st0{fill:#4338CA;}
</style>
<path class="st0" d="M433.7,142.3h-48.3c0,0-0.2,27.8-0.5,33.1h48.9c18.3,0,33.1,14.8,33.1,33.1v82.9c0,18.3-14.8,33.1-33.1,33.2
	h-92.5c-19.3,0-33.6-1.9-44.2-5.5c-15.1-5.1-22.7-13.7-26.5-25.2c-7.5,0.3-14.4,0.4-20.5,0.4c-4.5,0-9.1,0-13.4,0.1
	c5.4,25.7,20.1,49.3,60.4,58.9c9.1,2.1,18.3,3.4,27.6,4v76.5c0,18.3-14.8,33.1-33.1,33.1h-82.9c-18.3,0-33.1-14.8-33.2-33.1v-92.5
	c0-74.6,28.1-74.6,74.6-74.6c45.5,0,107.7,0,107.7-107.8V66.3C357.7,29.7,328,0,291.4,0h-82.9c-36.6,0-66.3,29.7-66.3,66.3v76h-76
	C29.7,142.4,0.1,172,0,208.6v82.9c0,36.6,29.7,66.3,66.3,66.3h48.3v-16.6c0-5.8,0.2-11.3,0.6-16.6H66.3c-18.3,0-33.1-14.9-33.1-33.2
	v-82.9c0-18.3,14.8-33.1,33.1-33.1h92.5c19.3,0,33.6,1.9,44.2,5.5c15.1,5.1,22.7,13.7,26.5,25.2c7.5-0.3,14.4-0.4,20.4-0.4
	c4.5,0,9.1,0,13.5-0.1c-5.4-25.7-20.2-49.3-60.5-58.9c-9.1-2.1-18.3-3.4-27.6-4V66.3c0-18.3,14.9-33.1,33.2-33.2h82.9
	c18.3,0,33.1,14.8,33.2,33.2v92.5c0,74.6-28.1,74.6-74.6,74.6c-45.4,0-107.7,0-107.7,107.7v92.5c0,36.6,29.7,66.3,66.3,66.3h82.9
	c36.6,0,66.3-29.7,66.3-66.3v-76h76c36.6-0.1,66.2-29.7,66.3-66.3v-82.9C500,172,470.3,142.3,433.7,142.3z"/>
</svg>
