<svg id="Layer_1" data-name="Layer 1" xmlns="http://www.w3.org/2000/svg" xmlns:xlink="http://www.w3.org/1999/xlink" viewBox="0 0 1990.37 1350.83"><defs><style>.cls-1{mask:url(#mask);}.cls-2{fill:url(#linear-gradient);}.cls-3{mask:url(#mask-2);}.cls-4{fill:url(#linear-gradient-2);}.cls-5{mask:url(#mask-3);}.cls-6{fill:url(#linear-gradient-3);}.cls-7{mask:url(#mask-4);}.cls-8{fill:url(#linear-gradient-4);}.cls-9{mask:url(#mask-5);}.cls-10{fill:url(#linear-gradient-5);}.cls-11{mask:url(#mask-6);}.cls-12{fill:url(#linear-gradient-6);}.cls-13{mask:url(#mask-7);}.cls-14{fill:url(#linear-gradient-7);}.cls-15{mask:url(#mask-8);}.cls-16{fill:url(#linear-gradient-8);}.cls-17{mask:url(#mask-9);}.cls-18{fill:url(#linear-gradient-9);}.cls-19{mask:url(#mask-10);}.cls-20{fill:url(#linear-gradient-10);}.cls-21{mask:url(#mask-11);}.cls-22{fill:url(#linear-gradient-11);}.cls-23{mask:url(#mask-12);}.cls-24{fill:url(#linear-gradient-12);}.cls-25{mask:url(#mask-13);}.cls-26{fill:url(#linear-gradient-13);}.cls-27{mask:url(#mask-14);}.cls-28{fill:url(#linear-gradient-14);}.cls-29{mask:url(#mask-15);}.cls-30{fill:url(#linear-gradient-15);}.cls-31{mask:url(#mask-16);}.cls-32{fill:url(#linear-gradient-16);}.cls-33{mask:url(#mask-17);}.cls-34{fill:url(#linear-gradient-17);}.cls-35{mask:url(#mask-18);}.cls-36{fill:url(#linear-gradient-18);}.cls-37{mask:url(#mask-19);}.cls-38{fill:url(#linear-gradient-19);}.cls-39{mask:url(#mask-20);}.cls-40{fill:url(#linear-gradient-20);}.cls-41{mask:url(#mask-21);}.cls-42{fill:url(#linear-gradient-21);}.cls-43{mask:url(#mask-22);}.cls-44{fill:url(#linear-gradient-22);}.cls-45{mask:url(#mask-23);}.cls-46{fill:url(#linear-gradient-23);}.cls-47{mask:url(#mask-24);}.cls-48{fill:url(#linear-gradient-24);}.cls-49{mask:url(#mask-25);}.cls-50{fill:url(#linear-gradient-25);}.cls-51{mask:url(#mask-26);}.cls-52{fill:url(#linear-gradient-26);}.cls-53{mask:url(#mask-27);}.cls-54{fill:url(#linear-gradient-27);}.cls-55{mask:url(#mask-28);}.cls-56{fill:url(#linear-gradient-28);}.cls-57{mask:url(#mask-29);}.cls-58{fill:url(#linear-gradient-29);}.cls-59{mask:url(#mask-30);}.cls-60{fill:url(#linear-gradient-30);}.cls-61{mask:url(#mask-31);}.cls-62{fill:url(#linear-gradient-31);}.cls-63{mask:url(#mask-32);}.cls-64{fill:url(#linear-gradient-32);}.cls-65{mask:url(#mask-33);}.cls-66{fill:url(#linear-gradient-33);}.cls-108,.cls-127,.cls-67{fill:#3d6acc;}.cls-68{mask:url(#mask-34);}.cls-105,.cls-69,.cls-72,.cls-75,.cls-82,.cls-84,.cls-86,.cls-94,.cls-97{opacity:0.26;}.cls-101,.cls-103,.cls-105,.cls-107,.cls-108,.cls-114,.cls-117,.cls-119,.cls-127,.cls-131,.cls-133,.cls-135,.cls-137,.cls-142,.cls-144,.cls-148,.cls-154,.cls-156,.cls-159,.cls-161,.cls-163,.cls-166,.cls-172,.cls-176,.cls-178,.cls-180,.cls-69,.cls-72,.cls-75,.cls-78,.cls-80,.cls-82,.cls-84,.cls-86,.cls-88,.cls-90,.cls-92,.cls-94,.cls-97,.cls-99{isolation:isolate;}.cls-69{fill:url(#linear-gradient-34);}.cls-107,.cls-70{fill:#246afc;}.cls-71{mask:url(#mask-35-2);}.cls-72{fill:url(#linear-gradient-35);}.cls-73{fill:#0d1d7e;}.cls-74{mask:url(#mask-36-2);}.cls-75{fill:url(#linear-gradient-36);}.cls-76{fill:#afebf2;}.cls-77{mask:url(#mask-37-2);}.cls-101,.cls-103,.cls-78,.cls-80,.cls-88,.cls-90,.cls-92,.cls-99{opacity:0.14;}.cls-78{fill:url(#linear-gradient-37);}.cls-79{mask:url(#mask-38-2);}.cls-80{fill:url(#linear-gradient-38);}.cls-81{mask:url(#mask-39-2);}.cls-82{fill:url(#linear-gradient-39);}.cls-83{mask:url(#mask-40-2);}.cls-84{fill:url(#linear-gradient-40);}.cls-85{mask:url(#mask-41-2);}.cls-86{fill:url(#linear-gradient-41);}.cls-87{mask:url(#mask-42-2);}.cls-88{fill:url(#linear-gradient-42);}.cls-89{mask:url(#mask-43-2);}.cls-90{fill:url(#linear-gradient-43);}.cls-91{mask:url(#mask-44-2);}.cls-92{fill:url(#linear-gradient-44);}.cls-93{mask:url(#mask-45-2);}.cls-94{fill:url(#linear-gradient-45);}.cls-95{fill:#103fcd;}.cls-96{mask:url(#mask-46-2);}.cls-97{fill:url(#linear-gradient-46);}.cls-98{mask:url(#mask-47-2);}.cls-99{fill:url(#linear-gradient-47);}.cls-100{mask:url(#mask-48-2);}.cls-101{fill:url(#linear-gradient-48);}.cls-102{mask:url(#mask-49-2);}.cls-103{fill:url(#linear-gradient-49);}.cls-104{mask:url(#mask-50-2);}.cls-105{fill:url(#linear-gradient-50);}.cls-106{fill:#bd4d37;}.cls-107,.cls-161{opacity:0.17;}.cls-108,.cls-148,.cls-154{opacity:0.39;}.cls-109{fill:#ffcb8a;}.cls-110{fill:#fff;}.cls-111{fill:#4a00e0;}.cls-112{fill:#8d8d8d;}.cls-113{fill:#a83b2c;}.cls-114,.cls-118,.cls-135,.cls-137,.cls-159,.cls-161{fill:#e87979;}.cls-114{opacity:0.47;}.cls-115{fill:#171733;}.cls-116{mask:url(#mask-51-2);}.cls-117{opacity:0.18;fill:url(#linear-gradient-51);}.cls-119{fill:#e373fa;opacity:0.51;}.cls-120{mask:url(#mask-52);}.cls-121{fill:url(#linear-gradient-52);}.cls-122{mask:url(#mask-53-2);}.cls-123{fill:url(#linear-gradient-53);}.cls-124{fill:#e1e1e1;}.cls-125{fill:#1c1c1c;}.cls-126{fill:#f1a17f;}.cls-127{opacity:0.2;}.cls-128{fill:url(#linear-gradient-54);}.cls-129{fill:#f68987;}.cls-130{mask:url(#mask-54-2);}.cls-131{fill:#837fcb;}.cls-131,.cls-133,.cls-135{opacity:0.36;}.cls-132{mask:url(#mask-55-2);}.cls-133{fill:url(#linear-gradient-55);}.cls-134{fill:url(#linear-gradient-56);}.cls-136{fill:#e5328e;}.cls-137{opacity:0.55;}.cls-138{fill:#e3f5ff;}.cls-139{fill:#956ef4;}.cls-140{fill:#05c5db;}.cls-141{mask:url(#mask-56-2);}.cls-142,.cls-144{opacity:0.42;}.cls-142{fill:url(#linear-gradient-57);}.cls-143{mask:url(#mask-57-2);}.cls-144{fill:url(#linear-gradient-58);}.cls-145{fill:#73dfeb;}.cls-146{fill:#c9e2f4;}.cls-147{mask:url(#mask-58-2);}.cls-148{fill:#81a8e2;}.cls-149{fill:url(#linear-gradient-59);}.cls-150{fill:#d4def4;}.cls-151{fill:#a2a2a2;}.cls-152{fill:url(#linear-gradient-60);}.cls-153{fill:#232323;}.cls-154{fill:#1d4d93;}.cls-155{mask:url(#mask-59-2);}.cls-156,.cls-166{opacity:0.21;}.cls-156{fill:url(#linear-gradient-61);}.cls-157{fill:url(#linear-gradient-62);}.cls-158{fill:url(#linear-gradient-63);}.cls-159{opacity:0.56;}.cls-160{opacity:0.49;}.cls-162{mask:url(#mask-60-2);}.cls-163{opacity:0.68;fill:url(#linear-gradient-64);}.cls-164{fill:url(#linear-gradient-65);}.cls-165{mask:url(#mask-61-2);}.cls-166{fill:url(#linear-gradient-66);}.cls-167{fill:#5f48dc;}.cls-168{mask:url(#mask-62-2);}.cls-169{fill:url(#linear-gradient-67);}.cls-170{fill:#fcf0fe;}.cls-171{mask:url(#mask-63-2);}.cls-172,.cls-176,.cls-178,.cls-180{opacity:0.31;}.cls-172{fill:url(#linear-gradient-68);}.cls-173{fill:url(#linear-gradient-69);}.cls-174{fill:url(#linear-gradient-70);}.cls-175{mask:url(#mask-64-2);}.cls-176{fill:url(#linear-gradient-71);}.cls-177{mask:url(#mask-65-2);}.cls-178{fill:url(#linear-gradient-72);}.cls-179{mask:url(#mask-66-2);}.cls-180{fill:url(#linear-gradient-73);}</style><mask id="mask" x="1315.79" y="-13467.34" width="138.65" height="32766" maskUnits="userSpaceOnUse"/><linearGradient id="linear-gradient" x1="1363.78" y1="9911.49" x2="1437.57" y2="9899.84" gradientTransform="matrix(1, 0, 0, -1, 0, 10552.68)" gradientUnits="userSpaceOnUse"><stop offset="0" stop-color="#fff"/><stop offset="1"/></linearGradient><mask id="mask-2" x="1387.09" y="-13467.34" width="144.14" height="32766" maskUnits="userSpaceOnUse"/><linearGradient id="linear-gradient-2" x1="-1970.75" y1="9774.35" x2="-1893.82" y2="9748.29" gradientTransform="matrix(0.81, 0, 0, -1, 3027.67, 10552.68)" xlink:href="#linear-gradient"/><mask id="mask-3" x="128.39" y="-13467.34" width="173.15" height="32766" maskUnits="userSpaceOnUse"/><linearGradient id="linear-gradient-3" x1="244.09" y1="9636.79" x2="172.23" y2="9615.43" xlink:href="#linear-gradient"/><mask id="mask-4" x="284.2" y="-13467.34" width="82.1" height="32766" maskUnits="userSpaceOnUse"/><linearGradient id="linear-gradient-4" x1="63.52" y1="16334.19" x2="86.75" y2="16326.33" gradientTransform="matrix(-3.43, -0.01, 0.67, -3.28, -10390.34, 54542.67)" xlink:href="#linear-gradient"/><mask id="mask-5" x="4.59" y="-13467.34" width="280.66" height="32766" maskUnits="userSpaceOnUse"/><linearGradient id="linear-gradient-5" x1="173.63" y1="9585.09" x2="138.67" y2="9565.67" gradientTransform="matrix(1, 0, 0, -1, 0, 10552.68)" gradientUnits="userSpaceOnUse"><stop offset="0" stop-color="#fff"/><stop offset="1" stop-color="#ebebeb"/></linearGradient><mask id="mask-6" x="0.07" y="-13467.34" width="117.43" height="32766" maskUnits="userSpaceOnUse"/><linearGradient id="linear-gradient-6" x1="-719.67" y1="16136.67" x2="-706.26" y2="16132.13" gradientTransform="translate(-2584.29 55017.4) rotate(180) scale(3.62 3.34)" xlink:href="#linear-gradient"/><mask id="mask-7" x="1264" y="-13467.34" width="65.68" height="32766" maskUnits="userSpaceOnUse"/><linearGradient id="linear-gradient-7" x1="245.48" y1="9905.47" x2="307.66" y2="9884.41" gradientTransform="matrix(1.03, 0, -0.2, -0.98, 2999.47, 10380.06)" xlink:href="#linear-gradient"/><mask id="mask-8" x="380.18" y="-13467.34" width="115.83" height="32766" maskUnits="userSpaceOnUse"/><linearGradient id="linear-gradient-8" x1="18228.85" y1="16153.97" x2="18247.46" y2="16147.67" gradientTransform="matrix(3.56, 0, 0, -3.34, -64415.72, 55017.39)" xlink:href="#linear-gradient"/><mask id="mask-9" x="32.39" y="-13467.34" width="180.07" height="32766" maskUnits="userSpaceOnUse"/><linearGradient id="linear-gradient-9" x1="-3919.36" y1="16143.24" x2="-3890.62" y2="16133.51" gradientTransform="translate(-10443.46 55017.4) rotate(180) scale(2.7 3.34)" xlink:href="#linear-gradient"/><mask id="mask-10" x="1600.52" y="-13467.34" width="87.32" height="32766" maskUnits="userSpaceOnUse"/><linearGradient id="linear-gradient-10" x1="524.59" y1="9634.47" x2="607.28" y2="9606.47" gradientTransform="matrix(1.03, 0, -0.2, -0.98, 2999.47, 10380.06)" xlink:href="#linear-gradient"/><mask id="mask-11" x="1686.79" y="-13467.34" width="298.7" height="32766" maskUnits="userSpaceOnUse"/><linearGradient id="linear-gradient-11" x1="1809.23" y1="9604.78" x2="1863.61" y2="9573.7" xlink:href="#linear-gradient"/><mask id="mask-12" x="1865.4" y="-13467.34" width="125" height="32766" maskUnits="userSpaceOnUse"/><linearGradient id="linear-gradient-12" x1="1125.35" y1="9456.63" x2="1173.09" y2="9440.46" gradientTransform="matrix(1.08, 0, 0, -1, 709.92, 10552.68)" xlink:href="#linear-gradient"/><mask id="mask-13" x="1462.42" y="-13467.34" width="123.29" height="32766" maskUnits="userSpaceOnUse"/><linearGradient id="linear-gradient-13" x1="16616.97" y1="9523.87" x2="16683.23" y2="9501.43" gradientTransform="translate(19154.81 10552.67) rotate(180) scale(1.06 1)" xlink:href="#linear-gradient"/><mask id="mask-14" x="1764.2" y="-13467.34" width="191.69" height="32766" maskUnits="userSpaceOnUse"/><linearGradient id="linear-gradient-14" x1="-1485.48" y1="9474.16" x2="-1383.17" y2="9439.5" gradientTransform="matrix(0.81, 0, 0, -1, 3027.67, 10552.68)" xlink:href="#linear-gradient"/><mask id="mask-15" x="613.49" y="-13467.34" width="40.16" height="32766" maskUnits="userSpaceOnUse"/><linearGradient id="linear-gradient-15" x1="633.57" y1="10049.88" x2="633.57" y2="10101.67" xlink:href="#linear-gradient"/><mask id="mask-16" x="620.22" y="-13467.34" width="239.16" height="32766" maskUnits="userSpaceOnUse"/><linearGradient id="linear-gradient-16" x1="14516.66" y1="9511.4" x2="14382.74" y2="9509.21" gradientTransform="translate(15257.24 10552.68) rotate(180)" gradientUnits="userSpaceOnUse"><stop offset="0"/><stop offset="1" stop-color="#fff"/></linearGradient><mask id="mask-17" x="425.79" y="-13467.34" width="86.06" height="32766" maskUnits="userSpaceOnUse"/><linearGradient id="linear-gradient-17" x1="14802.8" y1="9646.55" x2="14731.45" y2="9633.38" xlink:href="#linear-gradient-16"/><mask id="mask-18" x="1328.83" y="-13467.34" width="224.69" height="32766" maskUnits="userSpaceOnUse"/><linearGradient id="linear-gradient-18" x1="-1193.18" y1="9874.88" x2="-1098.82" y2="9842.92" gradientTransform="matrix(0.88, 0, 0, -1, 2454.97, 10552.68)" xlink:href="#linear-gradient"/><mask id="mask-19" x="577" y="-13467.34" width="129.48" height="32766" maskUnits="userSpaceOnUse"/><linearGradient id="linear-gradient-19" x1="610.54" y1="9578.03" x2="721.85" y2="9528.81" gradientTransform="matrix(1, 0, 0, -1, 0, 10552.68)" xlink:href="#linear-gradient-16"/><mask id="mask-20" x="1029.46" y="-13467.34" width="139.26" height="32766" maskUnits="userSpaceOnUse"/><linearGradient id="linear-gradient-20" x1="1123.76" y1="9599.32" x2="1032.14" y2="9546.32" gradientTransform="matrix(1, 0, 0, -1, 0, 10552.68)" xlink:href="#linear-gradient-16"/><mask id="mask-21" x="880.75" y="-13467.34" width="136.68" height="32766" maskUnits="userSpaceOnUse"/><linearGradient id="linear-gradient-21" x1="1014.56" y1="9548.18" x2="887.47" y2="9353.63" gradientTransform="matrix(1, 0, 0, -1, 0, 10552.68)" xlink:href="#linear-gradient-16"/><mask id="mask-22" x="1119.41" y="-13467.34" width="180.26" height="32766" maskUnits="userSpaceOnUse"/><linearGradient id="linear-gradient-22" x1="1134.07" y1="9546.16" x2="1268.22" y2="9448.89" gradientTransform="matrix(1, 0, 0, -1, 0, 10552.68)" xlink:href="#linear-gradient-16"/><mask id="mask-23" x="998.38" y="-13467.34" width="181.4" height="32766" maskUnits="userSpaceOnUse"/><linearGradient id="linear-gradient-23" x1="1085.31" y1="9676.16" x2="1090.61" y2="9845.61" gradientTransform="matrix(1, 0, 0, -1, 0, 10552.68)" xlink:href="#linear-gradient-16"/><mask id="mask-24" x="1386.02" y="-13467.34" width="120.21" height="32766" maskUnits="userSpaceOnUse"/><linearGradient id="linear-gradient-24" x1="1437.01" y1="9848.95" x2="1393.82" y2="9817.76" gradientTransform="matrix(1, 0, 0, -1, 0, 10552.68)" xlink:href="#linear-gradient-16"/><mask id="mask-25" x="1106.42" y="-13467.34" width="169.65" height="32766" maskUnits="userSpaceOnUse"/><linearGradient id="linear-gradient-25" x1="1174.85" y1="9565.99" x2="1265.74" y2="9565.99" gradientTransform="matrix(1, 0, 0, -1, 0, 10552.68)" xlink:href="#linear-gradient-16"/><mask id="mask-26" x="1485.6" y="-13467.34" width="106.95" height="32766" maskUnits="userSpaceOnUse"/><linearGradient id="linear-gradient-26" x1="1534.58" y1="9839.17" x2="1580.77" y2="9822.97" gradientTransform="matrix(1, 0, 0, -1, 0, 10552.68)" xlink:href="#linear-gradient-16"/><mask id="mask-27" x="1484.42" y="-13467.34" width="244.42" height="32766" maskUnits="userSpaceOnUse"/><linearGradient id="linear-gradient-27" x1="1587.45" y1="9597.55" x2="1651.53" y2="9556.77" gradientTransform="matrix(1, 0, 0, -1, 0, 10552.68)" xlink:href="#linear-gradient-16"/><mask id="mask-28" x="459.7" y="-13467.34" width="138.87" height="32766" maskUnits="userSpaceOnUse"/><linearGradient id="linear-gradient-28" x1="538.47" y1="9522.45" x2="603.67" y2="9488.82" gradientTransform="matrix(1, 0, 0, -1, 0, 10552.68)" xlink:href="#linear-gradient-16"/><mask id="mask-29" x="1463.17" y="-13467.34" width="94.01" height="32766" maskUnits="userSpaceOnUse"/><linearGradient id="linear-gradient-29" x1="739.84" y1="9760.52" x2="775.75" y2="9748.36" gradientTransform="matrix(1.08, 0, 0, -1, 709.92, 10552.68)" xlink:href="#linear-gradient"/><mask id="mask-30" x="260.1" y="-13467.34" width="140.44" height="32766" maskUnits="userSpaceOnUse"/><linearGradient id="linear-gradient-30" x1="351.96" y1="9563.96" x2="308.36" y2="9453.89" gradientTransform="matrix(1, 0, 0, -1, 0, 10552.68)" xlink:href="#linear-gradient-16"/><mask id="mask-31" x="166.81" y="-13467.34" width="114.58" height="32766" maskUnits="userSpaceOnUse"/><linearGradient id="linear-gradient-31" x1="227.59" y1="9466.91" x2="283.79" y2="9437.92" gradientTransform="matrix(1, 0, 0, -1, 0, 10552.68)" xlink:href="#linear-gradient-16"/><mask id="mask-32" x="574.9" y="-13467.34" width="81.05" height="32766" maskUnits="userSpaceOnUse"/><linearGradient id="linear-gradient-32" x1="609.48" y1="9428.8" x2="581.39" y2="9380.85" gradientTransform="matrix(1, 0, 0, -1, 0, 10552.68)" xlink:href="#linear-gradient-16"/><mask id="mask-33" x="1160.19" y="-13467.34" width="92.7" height="32766" maskUnits="userSpaceOnUse"/><linearGradient id="linear-gradient-33" x1="16916.04" y1="9812.8" x2="16965.86" y2="9795.92" gradientTransform="translate(19154.81 10552.67) rotate(180) scale(1.06 1)" xlink:href="#linear-gradient"/><mask id="mask-34" x="1315.79" y="383.15" width="138.65" height="522.06" maskUnits="userSpaceOnUse"><g id="mask-35"><g class="cls-1"><path class="cls-2" d="M1437.15,509.92c-11.09,21-5.55,29.16-3.32,51.94s-14.43,27.34-22.2,46.48-2.22,28.25-4.44,51.95-11.1,25.52-18.86,47.39,0,52,5.54,93c3.44,25.38-4.6,72.38-11.23,104.53h-65c4.25-34.69,7.86-72.53,6.29-91.54-3.33-40.33-15-60.15-2.49-86.81s33.29-24.61,27.46-60.83-5-60.15,25-86.13,10-52,11.65-73.13,24.14-26,28.3-47.17,1.8-47.38,34-76.45c16.29,14.87-2.34,55.26-5.67,71.67s6.07,34.18-5,55.1Z"/></g></g></mask><linearGradient id="linear-gradient-34" x1="1363.78" y1="9911.49" x2="1437.57" y2="9899.84" gradientTransform="matrix(1, 0, 0, -1, 0, 10552.68)" gradientUnits="userSpaceOnUse"><stop offset="0" stop-color="#3d6acc"/><stop offset="1" stop-color="#fff"/></linearGradient><mask id="mask-35-2" x="1264" y="449.79" width="65.68" height="455.32" maskUnits="userSpaceOnUse"><g id="mask-36"><g class="cls-13"><path class="cls-14" d="M1313.51,905.06c12.36-50.16,10.76-133.62,4.22-156.29-8.2-28.41.07-77.88,4.2-101.19s-4.81-43.76-7.84-58.54,11.74-23.89,15.13-42.09-12.82-30.67-16.08-46.58-5.61-50.59-10.36-50.58c.48,28.42-16.39,30.16-12.56,51.75s17.81,31.8,1.11,48.89-10.77,22.75-9.48,55.15-23.58,36.73-12.62,67c12.75,35.25,14.62,68.25,1.47,92.59-16,29.63,2.3,80.29-2.3,114.65a82.6,82.6,0,0,1,2.5,25.29Z"/></g></g></mask><linearGradient id="linear-gradient-35" x1="245.48" y1="9905.47" x2="307.66" y2="9884.41" gradientTransform="matrix(1.03, 0, -0.2, -0.98, 2999.47, 10380.06)" xlink:href="#linear-gradient-34"/><mask id="mask-36-2" x="1328.83" y="476.7" width="224.69" height="428.48" maskUnits="userSpaceOnUse"><g id="mask-37"><g class="cls-35"><path class="cls-36" d="M1551.16,478l-2.18-1.3c-9.14,25.48-24.37,32.43-31,51s-20.82,16.21-31,44-50.36,38.1-57.89,78.18c-8.84,47.09-55.13,41.06-53.42,129.43.75,38.58-26.72,42.15-40.12,75.78-9.16,23-6.3,50.09-6.3,50.09h21.51c10.09-15.21,26.91-31.94,30.61-46.26,5.07-19.68,2-51.53,13.2-70.64s43.16-49.23,44.17-69.49,20.82-43.44,36.56-54.44,17.26-45.17,26.4-61.38,28.94-23.16,30-41.69,3.55-33,12.69-42.86c8.2-8.84,11.9-34.32,6.77-40.42Z"/></g></g></mask><linearGradient id="linear-gradient-36" x1="-1193.18" y1="9874.88" x2="-1098.82" y2="9842.92" gradientTransform="matrix(0.88, 0, 0, -1, 2454.97, 10552.68)" xlink:href="#linear-gradient-34"/><mask id="mask-37-2" x="1463.17" y="679.37" width="94.01" height="225.8" maskUnits="userSpaceOnUse"><g id="mask-38"><g class="cls-57"><path class="cls-58" d="M1511,905.17c10.65-20.91,18-44.9,18-59.6,0-24.33,1.89-56.75,11.3-68.92s12.55-26.63,10-37.06,2.51-24.9,5.64-38.22-.63-22-.63-22c-3.55,28.76-15.26,26.06-17.35,43s-2.09,28.57-11.3,40.15-8.36,26.64-20.91,54.44-35.55,53.66-39.74,72.58c-.84,3.8-1.81,9.28-2.84,15.59Z"/></g></g></mask><linearGradient id="linear-gradient-37" x1="739.84" y1="9760.52" x2="775.75" y2="9748.36" gradientTransform="matrix(1.08, 0, 0, -1, 709.92, 10552.68)" xlink:href="#linear-gradient-34"/><mask id="mask-38-2" x="1160.19" y="585.04" width="92.7" height="320.13" maskUnits="userSpaceOnUse"><g id="mask-39"><g class="cls-65"><path class="cls-66" d="M1205.78,905.17c-10.51-29.65-17.76-63.66-17.76-84.51,0-34.48-1.86-80.45-11.14-97.69s-12.37-37.77-9.9-52.55-2.47-35.3-5.56-54.18.61-31.2.61-31.2c3.51,40.77,15.06,36.94,17.12,61s2.06,40.51,11.14,56.93,8.24,37.76,20.62,77.17S1246,856.22,1250.09,883c.83,5.39,1.79,13.16,2.8,22.11Z"/></g></g></mask><linearGradient id="linear-gradient-38" x1="16916.04" y1="9812.8" x2="16965.86" y2="9795.92" gradientTransform="translate(19154.81 10552.67) rotate(180) scale(1.06 1)" xlink:href="#linear-gradient-34"/><mask id="mask-39-2" x="1387.09" y="674.74" width="144.14" height="230.43" maskUnits="userSpaceOnUse"><g id="mask-40"><g class="cls-3"><path class="cls-4" d="M1505.42,721.06c-9,17.38-23.56,9.27-49.37,33.59s-13.47,26.64-36.47,63.12-26.93,51-30.86,78.76c-.36,2.57-.93,5.49-1.63,8.64h21.27v-3.43c0-27.8,37.59-59.07,46.56-83.39s25.25-50.38,37.59-60.8,28.62-38.22,30.3-54.44a82,82,0,0,1,8.42-28.37c-18.52,22-16.83,29-25.81,46.32Z"/></g></g></mask><linearGradient id="linear-gradient-39" x1="-1970.75" y1="9774.35" x2="-1893.82" y2="9748.29" gradientTransform="matrix(0.81, 0, 0, -1, 3027.67, 10552.68)" xlink:href="#linear-gradient-34"/><mask id="mask-40-2" x="128.39" y="597.57" width="173.15" height="652.19" maskUnits="userSpaceOnUse"><g id="mask-41"><g class="cls-5"><path class="cls-6" d="M150,756c13.87,26.18,6.93,36.43,4.16,64.89s18,34.15,27.73,58.06,2.77,35.29,5.54,64.9,13.86,31.87,23.57,59.2,0,64.89-6.93,116.12c-4.29,31.7,5.75,90.42,14,130.59h81.16c-5.31-43.35-9.82-90.62-7.86-114.37,4.16-50.37,18.72-75.13,3.12-108.44s-41.59-30.73-34.31-76S266.4,875.82,229,843.37,216.49,778.48,214.41,752s-30.15-32.45-35.35-58.92-2.25-59.19-42.43-95.51c-20.36,18.58,2.92,69,7.08,89.54S136.09,729.81,150,756Z"/></g></g></mask><linearGradient id="linear-gradient-40" x1="244.09" y1="9636.79" x2="172.23" y2="9615.43" xlink:href="#linear-gradient-34"/><mask id="mask-41-2" x="284.2" y="680.89" width="82.1" height="568.82" maskUnits="userSpaceOnUse"><g id="mask-42"><g class="cls-7"><path class="cls-8" d="M304.41,1249.62C289,1187,291,1082.7,299.14,1054.38c10.24-35.49-.1-97.29-5.25-126.41s6-54.67,9.79-73.13S289,825,284.78,802.26s16-38.32,20.09-58.19,7-63.19,12.94-63.18c-.6,35.5,20.47,37.67,15.69,64.64s-22.24,39.73-1.39,61.07S345.57,835,344,875.5s29.46,45.89,15.77,83.74c-15.93,44-18.25,85.26-1.84,115.66,20,37-2.86,100.3,2.88,143.22-3,12.72-3.76,23.12-3.12,31.59Z"/></g></g></mask><linearGradient id="linear-gradient-41" x1="63.52" y1="16334.19" x2="86.75" y2="16326.33" gradientTransform="matrix(-3.43, -0.01, 0.67, -3.28, -10390.34, 54542.67)" xlink:href="#linear-gradient-34"/><mask id="mask-42-2" x="4.59" y="714.49" width="280.66" height="535.24" maskUnits="userSpaceOnUse"><g id="mask-43"><g class="cls-9"><path class="cls-10" d="M7.53,716.12l2.73-1.63C21.67,746.32,40.7,755,49,778.15s26,20.25,38.69,55,62.9,47.59,72.3,97.65c11,58.84,68.88,51.31,66.74,161.7-.93,48.19,33.38,52.65,50.12,94.67,11.45,28.74,7.87,62.56,7.87,62.56H257.8c-12.61-19-33.62-39.89-38.23-57.78-6.35-24.59-2.54-64.38-16.49-88.25s-53.92-61.49-55.19-86.81-26-54.26-45.66-68-21.57-56.43-33-76.68-36.14-29-37.41-52.11S27.38,778.87,16,766.57c-10.25-11-14.87-42.83-8.47-50.45Z"/></g></g></mask><linearGradient id="linear-gradient-42" x1="173.63" y1="9585.09" x2="138.67" y2="9565.67" xlink:href="#linear-gradient-34"/><mask id="mask-43-2" x="0.07" y="967.68" width="117.43" height="282.08" maskUnits="userSpaceOnUse"><g id="mask-44"><g class="cls-11"><path class="cls-12" d="M57.76,1249.76c-13.31-26.13-22.5-56.1-22.5-74.47,0-30.38-2.35-70.89-14.11-86.08s-15.67-33.28-12.54-46.3-3.13-31.1-7-47.74.78-27.49.78-27.49c4.44,35.93,19.08,32.55,21.69,53.77s2.61,35.69,14.11,50.16,10.45,33.27,26.12,68,44.42,67,49.64,90.66c1,4.75,2.27,11.6,3.55,19.49Z"/></g></g></mask><linearGradient id="linear-gradient-43" x1="-719.67" y1="16136.67" x2="-706.26" y2="16132.13" gradientTransform="translate(-2584.29 55017.4) rotate(180) scale(3.62 3.34)" xlink:href="#linear-gradient-34"/><mask id="mask-44-2" x="380.18" y="849.81" width="115.83" height="399.95" maskUnits="userSpaceOnUse"><g id="mask-45"><g class="cls-15"><path class="cls-16" d="M439,1249.76c13.12-37,22.19-79.54,22.19-105.57,0-43.08,2.31-100.51,13.91-122.05S490.54,975,487.45,956.5s3.09-44.1,7-67.69-.78-39-.78-39C489.3,900.75,474.87,896,472.29,926s-2.57,50.6-13.91,71.11-10.3,47.18-25.76,96.41-43.79,95-48.95,128.54c-1,6.74-2.23,16.44-3.49,27.63Z"/></g></g></mask><linearGradient id="linear-gradient-44" x1="18228.85" y1="16153.97" x2="18247.46" y2="16147.67" gradientTransform="matrix(3.56, 0, 0, -3.34, -64415.72, 55017.39)" xlink:href="#linear-gradient-34"/><mask id="mask-45-2" x="32.39" y="961.88" width="180.07" height="287.92" maskUnits="userSpaceOnUse"><g id="mask-46"><g class="cls-17"><path class="cls-18" d="M64.67,1019.76c11.22,21.71,29.44,11.58,61.68,42s16.82,33.28,45.56,78.85,33.64,63.66,38.55,98.38c.45,3.22,1.15,6.87,2,10.81H185.93v-4.3c0-34.72-47-73.78-58.18-104.17s-31.54-62.93-47-76-35.74-47.75-37.84-68a102.65,102.65,0,0,0-10.52-35.45c23.17,27.5,21.07,36.18,32.28,57.88Z"/></g></g></mask><linearGradient id="linear-gradient-45" x1="-3919.36" y1="16143.24" x2="-3890.62" y2="16133.51" gradientTransform="translate(-10443.46 55017.4) rotate(180) scale(2.7 3.34)" xlink:href="#linear-gradient-34"/><mask id="mask-46-2" x="1600.52" y="640.98" width="87.32" height="605.53" maskUnits="userSpaceOnUse"><g id="mask-47"><g class="cls-19"><path class="cls-20" d="M1666.32,1246.48c16.43-66.7,14.31-177.69,5.61-207.84-10.9-37.78.1-103.57,5.59-134.57s-6.4-58.2-10.42-77.84,15.6-31.78,20.12-56-17-40.79-21.39-62S1658.36,641,1652.05,641c.64,37.79-21.79,40.1-16.7,68.82s23.68,42.29,1.48,65-14.33,30.27-12.61,73.35-31.36,48.85-16.78,89.14c17,46.88,19.43,90.76,2,123.13-21.27,39.39,3,106.77-3.06,152.46,3.23,13.53,4,24.61,3.31,33.63Z"/></g></g></mask><linearGradient id="linear-gradient-46" x1="524.59" y1="9634.47" x2="607.28" y2="9606.47" gradientTransform="matrix(1.03, 0, -0.2, -0.98, 2999.47, 10380.06)" xlink:href="#linear-gradient-34"/><mask id="mask-47-2" x="1686.79" y="676.82" width="298.7" height="569.8" maskUnits="userSpaceOnUse"><g id="mask-48"><g class="cls-21"><path class="cls-22" d="M1982.35,678.55l-2.89-1.73c-12.16,33.88-32.41,43.12-41.19,67.76s-27.68,21.57-41.19,58.53-67,50.66-77,104c-11.77,62.63-73.32,54.62-71,172.13,1,51.3-35.53,56-53.35,100.78-12.19,30.59-8.38,66.6-8.38,66.6H1716c13.42-20.23,35.79-42.47,40.7-61.51,6.75-26.18,2.7-68.54,17.55-94s57.4-65.46,58.75-92.41,27.68-57.76,48.61-72.39,23-60.06,35.11-81.63,38.49-30.8,39.84-55.44,4.73-43.9,16.88-57c10.85-11.69,15.77-45.57,8.95-53.69Z"/></g></g></mask><linearGradient id="linear-gradient-47" x1="1809.23" y1="9604.78" x2="1863.61" y2="9573.7" xlink:href="#linear-gradient-34"/><mask id="mask-48-2" x="1865.4" y="946.34" width="125" height="300.28" maskUnits="userSpaceOnUse"><g id="mask-49"><g class="cls-23"><path class="cls-24" d="M1928.88,1246.62c14.17-27.81,24-59.71,24-79.26,0-32.35,2.5-75.47,15-91.64s16.69-35.43,13.35-49.29,3.34-33.11,7.51-50.82-.83-29.27-.83-29.27c-4.73,38.25-20.3,34.66-23.08,57.25s-2.79,38-15,53.39-11.13,35.42-27.82,72.39-47.28,71.36-52.84,96.51c-1.12,5.06-2.41,12.35-3.77,20.74Z"/></g></g></mask><linearGradient id="linear-gradient-48" x1="1125.35" y1="9456.63" x2="1173.09" y2="9440.46" gradientTransform="matrix(1.08, 0, 0, -1, 709.92, 10552.68)" xlink:href="#linear-gradient-34"/><mask id="mask-49-2" x="1462.42" y="820.9" width="123.29" height="425.72" maskUnits="userSpaceOnUse"><g id="mask-50"><g class="cls-25"><path class="cls-26" d="M1523.06,1246.62c-14-39.43-23.62-84.66-23.62-112.38,0-45.85-2.47-107-14.81-129.92s-16.46-50.22-13.17-69.87-3.29-47-7.4-72.06.82-41.49.82-41.49c4.66,54.23,20,49.13,22.76,81.16s2.75,53.86,14.81,75.69,11,50.23,27.43,102.63,46.62,101.17,52.1,136.84c1.1,7.17,2.38,17.5,3.73,29.4Z"/></g></g></mask><linearGradient id="linear-gradient-49" x1="16616.97" y1="9523.87" x2="16683.23" y2="9501.43" gradientTransform="translate(19154.81 10552.67) rotate(180) scale(1.06 1)" xlink:href="#linear-gradient-34"/><mask id="mask-50-2" x="1764.2" y="940.19" width="191.69" height="306.44" maskUnits="userSpaceOnUse"><g id="mask-51"><g class="cls-27"><path class="cls-28" d="M1921.53,1001.79c-11.94,23.1-31.34,12.32-65.66,44.67s-17.91,35.42-48.5,83.94-35.81,67.76-41,104.73c-.49,3.42-1.24,7.3-2.17,11.5h28.28v-4.57c0-37,50-78.55,61.93-110.89s33.57-67,50-80.86,38-50.83,40.29-72.39a109,109,0,0,1,11.19-37.73c-24.66,29.26-22.43,38.5-34.36,61.6Z"/></g></g></mask><linearGradient id="linear-gradient-50" x1="-1485.48" y1="9474.16" x2="-1383.17" y2="9439.5" gradientTransform="matrix(0.81, 0, 0, -1, 3027.67, 10552.68)" xlink:href="#linear-gradient-34"/><mask id="mask-51-2" x="613.49" y="450.22" width="40.16" height="54.12" maskUnits="userSpaceOnUse"><g id="mask-53"><g class="cls-29"><path class="cls-30" d="M642.7,450.9l10.95,49-22.72,4.42-17.44-3.74,9.74-50.38Z"/></g></g></mask><linearGradient id="linear-gradient-51" x1="633.57" y1="10049.88" x2="633.57" y2="10101.67" gradientTransform="matrix(1, 0, 0, -1, 0, 10552.68)" gradientUnits="userSpaceOnUse"><stop offset="0" stop-color="#fff"/><stop offset="1" stop-color="#fff"/></linearGradient><mask id="mask-52" x="620.22" y="918.26" width="239.16" height="244.78" maskUnits="userSpaceOnUse"><g id="mask-54"><g class="cls-31"><path class="cls-32" d="M645.32,1012.66c40.62-84.53,137.21-94.4,137.21-94.4,8.78,30.73,74.65,167.94,74.65,167.94l2.2,76.84H622c-3.46-31.9-4.64-92.18,23.32-150.38Z"/></g></g></mask><linearGradient id="linear-gradient-52" x1="14516.66" y1="9511.4" x2="14382.74" y2="9509.21" gradientTransform="translate(15257.24 10552.68) rotate(180)" gradientUnits="userSpaceOnUse"><stop offset="0" stop-color="#fff"/><stop offset="1" stop-color="#3d6acc"/></linearGradient><mask id="mask-53-2" x="425.79" y="762.54" width="86.06" height="302.93" maskUnits="userSpaceOnUse"><g id="mask-55"><g class="cls-33"><path class="cls-34" d="M464.21,1062.05c-24.16-4.39-38.42-12.08-38.42-12.08s28.54-170.13,57.07-237.09c7.27-17,17.45-34.14,28.6-50.34,2,41.31-4.44,83.27-4.44,83.27-7.69,48.3-16.47,69.15-17.57,99.89s14.27,119.65,14.27,119.65-15.36,1.09-39.51-3.3Z"/></g></g></mask><linearGradient id="linear-gradient-53" x1="14802.8" y1="9646.55" x2="14731.45" y2="9633.38" xlink:href="#linear-gradient-52"/><linearGradient id="linear-gradient-54" x1="860.72" y1="9836.81" x2="860.07" y2="9906.72" gradientTransform="matrix(1, 0, 0, -1, 0, 10552.68)" gradientUnits="userSpaceOnUse"><stop offset="0" stop-color="#f1a17f"/><stop offset="1" stop-color="#e87979"/></linearGradient><mask id="mask-54-2" x="577" y="868.65" width="129.48" height="252.88" maskUnits="userSpaceOnUse"><g id="mask-56"><g class="cls-37"><path class="cls-38" d="M704.58,950.35s9.08-71.93-35.59-81c-7.41-1.51-15.2-.51-23,2.2C617.59,930.29,577,1092,577,1092l129.48,29.53s-11-44.68-14.76-72.69,3-70.47,12.86-98.49Z"/></g></g></mask><mask id="mask-55-2" x="1029.46" y="838.48" width="139.26" height="259.07" maskUnits="userSpaceOnUse"><g id="mask-57"><g class="cls-39"><path class="cls-40" d="M1168.72,1072.64s-45.42-149.92-75-202.16a177.43,177.43,0,0,0-22.52-32c-25.36,16.77-47.63,71.46-40.33,105,7.57,34.83,16.66,52.24,18.17,87.07s-6.43,67-6.43,67Z"/></g></g></mask><linearGradient id="linear-gradient-55" x1="1123.76" y1="9599.32" x2="1032.14" y2="9546.32" gradientTransform="matrix(1, 0, 0, -1, 0, 10552.68)" gradientUnits="userSpaceOnUse"><stop offset="0" stop-color="#fff"/><stop offset="1" stop-color="#9f9f9f"/></linearGradient><linearGradient id="linear-gradient-56" x1="862.68" y1="9992.65" x2="862.68" y2="9936.71" xlink:href="#linear-gradient-54"/><mask id="mask-56-2" x="880.75" y="900.82" width="136.68" height="354.58" maskUnits="userSpaceOnUse"><g id="mask-58"><g class="cls-41"><path class="cls-42" d="M1007.74,1196.82c2.92-98.67,3.57-197.48,9.69-296-52.3,2.69-101.46,9.36-104.52,22.75C906.63,951,880.75,1115,880.75,1115c10.19,25.87,37.25,140.4,37.25,140.4h87.67q1.2-29.28,2.07-58.58Z"/></g></g></mask><linearGradient id="linear-gradient-57" x1="14134.69" y1="9237.56" x2="14007.6" y2="9043.01" xlink:href="#linear-gradient-52"/><mask id="mask-57-2" x="1119.41" y="867.08" width="180.26" height="388.32" maskUnits="userSpaceOnUse"><g id="mask-59"><g class="cls-43"><path class="cls-44" d="M1142.77,902.38a92.21,92.21,0,0,0-11.59-1.45q-1.18,18.84-2.14,37.7c-5.2,105.52-5.19,211.23-9.63,316.77h130.45l24.71-139.63s9.41-72.18,12.55-108.26,12.55-140.43,12.55-140.43S1166.31,907.87,1142.77,902.38Z"/></g></g></mask><linearGradient id="linear-gradient-58" x1="13843.89" y1="9636.08" x2="13978.04" y2="9538.81" xlink:href="#linear-gradient-52"/><mask id="mask-58-2" x="998.38" y="630.28" width="181.4" height="253.38" maskUnits="userSpaceOnUse"><g id="mask-60"><g class="cls-45"><path class="cls-46" d="M1000.21,883.66c29.8-.93,59.62-3.1,89.4-3.41,23.31-.25,46.64-.57,70-.77a840.13,840.13,0,0,1,16.14-96c9.46-42.55-.08-96.49-4.81-128.25a78.89,78.89,0,0,1-14.84-25c-10.09,39.71-41.37,82.21-64.29,82.21-22.38,0-62.72-41.87-73.88-76.67a43,43,0,0,1-5.17,10.56c-.44.65-1,1.35-1.58,2.08-10.42,47.89-14.82,102.24-11.94,169.15,1,23,1.43,44.62,1,66Z"/></g></g></mask><linearGradient id="linear-gradient-59" x1="1088.95" y1="9870.81" x2="1085.71" y2="9951.08" xlink:href="#linear-gradient-54"/><linearGradient id="linear-gradient-60" x1="437.36" y1="16502.1" x2="437.36" y2="16477.1" gradientTransform="matrix(-1.85, 0.12, -0.14, -2.16, 4215.46, 36128.33)" xlink:href="#linear-gradient-54"/><mask id="mask-59-2" x="1386.02" y="511.57" width="120.21" height="369.55" maskUnits="userSpaceOnUse"><g id="mask-61"><g class="cls-47"><path class="cls-48" d="M1430.66,511.8c-12.55-.12-20.64-.23-20.64-.23-13.21,4.79-18.6,25.79-24,36,4.2,65.39,31.19,165,50.39,223.16s49.19,110.39,49.19,110.39,15.6-49.8,20.4-67.79-66-294-66-294Z"/></g></g></mask><linearGradient id="linear-gradient-61" x1="13981.35" y1="9987.83" x2="13938.16" y2="9956.64" xlink:href="#linear-gradient-52"/><linearGradient id="linear-gradient-62" x1="1492.54" y1="10103.8" x2="1488.49" y2="10009.32" gradientTransform="matrix(1, 0, 0, -1, 0, 10552.68)" gradientUnits="userSpaceOnUse"><stop offset="0" stop-color="#e87979"/><stop offset="1" stop-color="#f1a17f"/></linearGradient><linearGradient id="linear-gradient-63" x1="1494.07" y1="10248.08" x2="1494.07" y2="10179.16" xlink:href="#linear-gradient-54"/><mask id="mask-60-2" x="1106.42" y="718.51" width="169.65" height="536.36" maskUnits="userSpaceOnUse"><g id="mask-62"><g class="cls-49"><path class="cls-50" d="M1185.81,718.51A91.12,91.12,0,0,0,1174,738.33c-18.89,45.9-32.39,130.47-46.79,216s-32.39,223.16-10.79,256.44,46.78,44.1,46.78,44.1,18-36,39.61-66.58,45-38.7,45-38.7,6.29-88.19,10.8-116.09,7.2-59.38,7.2-59.38c-21.6-45.89,4.5-109.78,9.9-124.18,5.14-13.94-46.64-89-89.9-131.43Z"/></g></g></mask><linearGradient id="linear-gradient-64" x1="13819.48" y1="9565.99" x2="13910.37" y2="9565.99" xlink:href="#linear-gradient-52"/><linearGradient id="linear-gradient-65" x1="1163.15" y1="9318.53" x2="1433.11" y2="9318.53" xlink:href="#linear-gradient-54"/><mask id="mask-61-2" x="1485.6" y="510.93" width="106.95" height="411.57" maskUnits="userSpaceOnUse"><g id="mask-63"><g class="cls-51"><path class="cls-52" d="M1569.59,511c-2.72.35-7.88.6-14.74.79L1506,813.32l-20.4,67.79L1515,922.5s16.19-35.4,25.79-73.79,25.8-120.58,35.4-172.17c8.29-44.58,16.58-116,16.36-147-8.16-11.44-15.77-19.47-23-18.54Z"/></g></g></mask><linearGradient id="linear-gradient-66" x1="14128.02" y1="9693.24" x2="14174.21" y2="9677.04" xlink:href="#linear-gradient-52"/><mask id="mask-62-2" x="1484.42" y="647.39" width="244.42" height="599.37" maskUnits="userSpaceOnUse"><g id="mask-64"><g class="cls-53"><path class="cls-54" d="M1716.18,776c-7.76,50.5-.52,114.42,4,178.31s9.45,175,8.55,180.42-23.85,22.5-47.24,39.6c-25.68,18.76-197.07,72.43-197.07,72.43S1560,706.85,1597.8,667.26s86.36-7.78,86.36-7.78Z"/></g></g></mask><linearGradient id="linear-gradient-67" x1="14071.04" y1="9344.51" x2="14135.12" y2="9303.73" xlink:href="#linear-gradient-52"/><mask id="mask-63-2" x="459.7" y="890.63" width="138.87" height="258.39" maskUnits="userSpaceOnUse"><g id="mask-65"><g class="cls-55"><path class="cls-56" d="M504.44,916.36a960,960,0,0,1-21.08,97.22c-14.17,52.31-22.88,131.5-22.88,131.5l-.78.88c30.78,2.74,123.92,6.7,123.92-3.79,0-12.59-11.14-77.49-11.62-94s5.32-41.65,19.85-58.12c0,0,17.44-48.92-3.87-85.73-14.31-24.67-51.53-13.15-83.54,12Z"/></g></g></mask><linearGradient id="linear-gradient-68" x1="13505.42" y1="10147.36" x2="13570.62" y2="10113.73" xlink:href="#linear-gradient-52"/><linearGradient id="linear-gradient-69" x1="423.54" y1="9765.81" x2="424.19" y2="9839.61" xlink:href="#linear-gradient-54"/><linearGradient id="linear-gradient-70" x1="-2623.37" y1="16102.83" x2="-2623.37" y2="16077.82" gradientTransform="matrix(2.08, 0.43, 0.43, -2.08, -1057.81, 35164.9)" xlink:href="#linear-gradient-54"/><mask id="mask-64-2" x="260.1" y="892.05" width="140.44" height="261.81" maskUnits="userSpaceOnUse"><g id="mask-66"><g class="cls-59"><path class="cls-60" d="M400.54,1140.72s-26.16-98.08-39.23-134c-6.11-16.81-11.75-61.24-15-108-48.3-14.51-61.63-2.65-70.71,10.06-9.69,13.56-15.5,66.84-15.5,66.84,10.66,20.34,18.41,90.57,18.89,103.16s2.42,75.08,2.42,75.08,98.81-9,104.62-9.81A132.38,132.38,0,0,0,400.54,1140.72Z"/></g></g></mask><linearGradient id="linear-gradient-71" x1="14692.21" y1="8892.31" x2="14648.61" y2="8782.24" xlink:href="#linear-gradient-52"/><mask id="mask-65-2" x="166.81" y="1002.71" width="114.58" height="161.74" maskUnits="userSpaceOnUse"><g id="mask-67"><g class="cls-61"><path class="cls-62" d="M281.39,1153.8c-20.34.48-55.21,1.93-74.1,10.65,0,0-63.45-77-31.48-133.19s94-12.11,94-12.11Z"/></g></g></mask><linearGradient id="linear-gradient-72" x1="13325.01" y1="10344.68" x2="13381.21" y2="10315.69" xlink:href="#linear-gradient-52"/><mask id="mask-66-2" x="574.9" y="1050.01" width="81.05" height="127.99" maskUnits="userSpaceOnUse"><g id="mask-68"><g class="cls-63"><path class="cls-64" d="M585.07,1172c14.53,1.69,55.7,2.18,68.78,6,0,0,11.62-85.24-19.86-111.4S574.9,1053,574.9,1053s6.3,55.7,8.24,68.78,1.93,50.18,1.93,50.18Z"/></g></g></mask><linearGradient id="linear-gradient-73" x1="14288.64" y1="8822.75" x2="14260.55" y2="8774.8" xlink:href="#linear-gradient-52"/></defs><g id="Layer_1-2" data-name="Layer 1"><path class="cls-67" d="M1437.15,509.92c-11.09,21-5.55,29.16-3.32,51.94s-14.43,27.34-22.2,46.48-2.22,28.25-4.44,51.95-11.1,25.52-18.86,47.39,0,52,5.54,93c3.44,25.38-4.6,72.38-11.23,104.53H1280.75c7.84-60.79,18.91-158.56,12.14-180.17-10-31.9,5.55-84.76,15.54-101.16s12.2-36.46,10-51,7.77-20,20-31,12.2-34.63,17.75-54.68,31.74-28,33.3-45.57c2.71-30.62,38.58-58.45,58.38-58.45,16.29,14.87-2.34,55.26-5.67,71.67s6.06,34.15-5,55.07Z"/><g class="cls-68"><path class="cls-69" d="M1437.15,509.92c-11.09,21-5.55,29.16-3.32,51.94s-14.43,27.34-22.2,46.48-2.22,28.25-4.44,51.95-11.1,25.52-18.86,47.39,0,52,5.54,93c3.44,25.38-4.6,72.38-11.23,104.53h-65c4.25-34.69,7.86-72.53,6.29-91.54-3.33-40.33-15-60.15-2.49-86.81s33.29-24.61,27.46-60.83-5-60.15,25-86.13,10-52,11.65-73.13,24.14-26,28.3-47.17,1.8-47.38,34-76.45c16.29,14.87-2.34,55.26-5.67,71.67s6.07,34.18-5,55.1Z"/></g><path class="cls-70" d="M1313.51,905.06c12.36-50.16,10.76-133.62,4.22-156.29-8.2-28.41.07-77.88,4.2-101.19s-4.81-43.76-7.84-58.54,11.74-23.89,15.13-42.09-12.82-30.67-16.08-46.58-5.61-50.59-10.36-50.58c0,0-16.8,13.67-24.81,29.6s.07,40.93-11.49,51.18-17.41,19.36-16,41-5,22.18-11.23,46.63,13.24,44.32,12.77,71-14,24.47-25.81,71.11c-8.38,33.07,11,105.52,23,144.87Z"/><g class="cls-71"><path class="cls-72" d="M1313.51,905.06c12.36-50.16,10.76-133.62,4.22-156.29-8.2-28.41.07-77.88,4.2-101.19s-4.81-43.76-7.84-58.54,11.74-23.89,15.13-42.09-12.82-30.67-16.08-46.58-5.61-50.59-10.36-50.58c.48,28.42-16.39,30.16-12.56,51.75s17.81,31.8,1.11,48.89-10.77,22.75-9.48,55.15-23.58,36.73-12.62,67c12.75,35.25,14.62,68.25,1.47,92.59-16,29.63,2.3,80.29-2.3,114.65a82.6,82.6,0,0,1,2.5,25.29Z"/></g><path class="cls-73" d="M1549,476.69c-8.12-1.16-26.4,16.79-34.52,28.37s-30,13.32-39.1,31.27-2.54,33.59-26.4,48.07-37.82,31.63-56.36,64.86c-14.22,25.48-32,74.12-34.53,102.49s-16.25,56.18-33,85.13c-9.27,16-12.79,45.3-14.08,68.29h39.84c10.09-15.21,26.9-32,30.6-46.29,5.07-19.68,2-51.53,13.2-70.64s43.16-49.23,44.17-69.49,20.82-43.44,36.56-54.44,17.26-45.17,26.4-61.38,28.94-23.16,30-41.69,3.55-33,12.69-42.86S1557.11,477.85,1549,476.69Z"/><g class="cls-74"><path class="cls-75" d="M1551.16,478l-2.18-1.3c-9.14,25.48-24.37,32.43-31,51s-20.82,16.21-31,44-50.36,38.1-57.89,78.18c-8.84,47.09-55.13,41.06-53.42,129.43.75,38.58-26.72,42.15-40.12,75.78-9.16,23-6.3,50.09-6.3,50.09h21.51c10.09-15.21,26.91-31.94,30.61-46.26,5.07-19.68,2-51.53,13.2-70.64s43.16-49.23,44.17-69.49,20.82-43.44,36.56-54.44,17.26-45.17,26.4-61.38,28.94-23.16,30-41.69,3.55-33,12.69-42.86c8.2-8.84,11.9-34.32,6.77-40.42Z"/></g><path class="cls-76" d="M1511,905.17c10.65-20.91,18-44.9,18-59.6,0-24.33,1.89-56.75,11.3-68.92s12.55-26.63,10-37.06,2.51-24.9,5.64-38.22-.63-22-.63-22c-4.39,8.68-8.15,9.26-16.93,20.27s-5,16.21-17.57,33.58S1497,768.55,1492.57,790s-22,44-37,64.28c-10.6,14.27-17.41,32-21.42,50.92Z"/><g class="cls-77"><path class="cls-78" d="M1511,905.17c10.65-20.91,18-44.9,18-59.6,0-24.33,1.89-56.75,11.3-68.92s12.55-26.63,10-37.06,2.51-24.9,5.64-38.22-.63-22-.63-22c-3.55,28.76-15.26,26.06-17.35,43s-2.09,28.57-11.3,40.15-8.36,26.64-20.91,54.44-35.55,53.66-39.74,72.58c-.84,3.8-1.81,9.28-2.84,15.59Z"/></g><path class="cls-73" d="M1205.78,905.17c-10.51-29.65-17.76-63.66-17.76-84.51,0-34.48-1.86-80.45-11.14-97.69s-12.37-37.77-9.9-52.55-2.47-35.3-5.56-54.18.61-31.2.61-31.2c4.33,12.31,8,13.13,16.71,28.73s5,23,17.32,47.62,23.51,50.08,27.84,80.46,21.65,62.39,36.5,91.13c10.45,20.22,17.16,45.36,21.12,72.19Z"/><g class="cls-79"><path class="cls-80" d="M1205.78,905.17c-10.51-29.65-17.76-63.66-17.76-84.51,0-34.48-1.86-80.45-11.14-97.69s-12.37-37.77-9.9-52.55-2.47-35.3-5.56-54.18.61-31.2.61-31.2c3.51,40.77,15.06,36.94,17.12,61s2.06,40.51,11.14,56.93,8.24,37.76,20.62,77.17S1246,856.22,1250.09,883c.83,5.39,1.79,13.16,2.8,22.11Z"/></g><path class="cls-70" d="M1505.42,696.74c-4.49,10.43-19.08,17.37-41,27.22s-32.48,16.55-52.18,48.64c-10.66,17.37-23.56,45.17-32.54,85.13a407.67,407.67,0,0,1-13.9,47.44h42.52v-3.43c0-27.8,37.59-59.07,46.56-83.39s25.25-50.38,37.59-60.8,28.62-38.22,30.3-54.44a82,82,0,0,1,8.42-28.37C1522.25,677.63,1509.91,686.32,1505.42,696.74Z"/><g class="cls-81"><path class="cls-82" d="M1505.42,721.06c-9,17.38-23.56,9.27-49.37,33.59s-13.47,26.64-36.47,63.12-26.93,51-30.86,78.76c-.36,2.57-.93,5.49-1.63,8.64h21.27v-3.43c0-27.8,37.59-59.07,46.56-83.39s25.25-50.38,37.59-60.8,28.62-38.22,30.3-54.44a82,82,0,0,1,8.42-28.37c-18.52,22-16.83,29-25.81,46.32Z"/></g><path class="cls-76" d="M150,756c13.86,26.18,6.93,36.43,4.16,64.89s18,34.15,27.73,58.06,2.77,35.29,5.54,64.9,13.86,31.87,23.57,59.2,0,64.89-6.93,116.12c-4.29,31.7,5.75,90.42,14,130.59H345.33c-9.79-76-23.62-198.08-15.16-225.08,12.47-39.85-6.93-105.88-19.41-126.37s-15.25-45.54-12.48-63.76-9.7-25-24.95-38.71-15.25-43.26-22.18-68.31-39.65-35-41.59-56.92c-3.39-38.26-48.2-73-72.93-73-20.36,18.58,2.92,69,7.08,89.54S136.09,729.81,150,756Z"/><g class="cls-83"><path class="cls-84" d="M150,756c13.87,26.18,6.93,36.43,4.16,64.89s18,34.15,27.73,58.06,2.77,35.29,5.54,64.9,13.86,31.87,23.57,59.2,0,64.89-6.93,116.12c-4.29,31.7,5.75,90.42,14,130.59h81.16c-5.31-43.35-9.82-90.62-7.86-114.37,4.16-50.37,18.72-75.13,3.12-108.44s-41.59-30.73-34.31-76S266.4,875.82,229,843.37,216.49,778.48,214.41,752s-30.15-32.45-35.35-58.92-2.25-59.19-42.43-95.51c-20.36,18.58,2.92,69,7.08,89.54S136.09,729.81,150,756Z"/></g><path class="cls-76" d="M304.41,1249.62C289,1187,291,1082.7,299.14,1054.38c10.24-35.49-.1-97.29-5.25-126.41s6-54.67,9.79-73.13S289,825,284.78,802.26s16-38.32,20.09-58.19,7-63.19,12.94-63.18c0,0,21,17.08,31,37s-.09,51.12,14.35,63.93S384.91,806,383.09,833s6.19,27.71,14,58.26-16.54,55.36-16,88.73,17.47,30.57,32.24,88.82c10.47,41.32-13.76,131.82-28.74,181Z"/><g class="cls-85"><path class="cls-86" d="M304.41,1249.62C289,1187,291,1082.7,299.14,1054.38c10.24-35.49-.1-97.29-5.25-126.41s6-54.67,9.79-73.13S289,825,284.78,802.26s16-38.32,20.09-58.19,7-63.19,12.94-63.18c-.6,35.5,20.47,37.67,15.69,64.64s-22.24,39.73-1.39,61.07S345.57,835,344,875.5s29.46,45.89,15.77,83.74c-15.93,44-18.25,85.26-1.84,115.66,20,37-2.86,100.3,2.88,143.22-3,12.72-3.76,23.12-3.12,31.59Z"/></g><path class="cls-76" d="M10.26,714.49c10.14-1.45,33,21,43.13,35.45S90.81,766.57,102.23,789s3.17,42,33,60,47.24,39.52,70.4,81c17.76,31.83,40,92.6,43.13,128S269,1128.27,290,1164.44c11.58,20,16,56.59,17.59,85.32h-49.8c-12.6-19-33.61-39.94-38.22-57.83-6.35-24.59-2.54-64.38-16.49-88.25s-53.92-61.49-55.19-86.81-26-54.26-45.66-68-21.57-56.43-33-76.68S33.09,843.25,31.82,820.1,27.38,778.87,16,766.57.11,715.94,10.26,714.49Z"/><g class="cls-87"><path class="cls-88" d="M7.53,716.12l2.73-1.63C21.67,746.32,40.7,755,49,778.15s26,20.25,38.69,55,62.9,47.59,72.3,97.65c11,58.84,68.88,51.31,66.74,161.7-.93,48.19,33.38,52.65,50.12,94.67,11.45,28.74,7.87,62.56,7.87,62.56H257.8c-12.61-19-33.62-39.89-38.23-57.78-6.35-24.59-2.54-64.38-16.49-88.25s-53.92-61.49-55.19-86.81-26-54.26-45.66-68-21.57-56.43-33-76.68-36.14-29-37.41-52.11S27.38,778.87,16,766.57c-10.25-11-14.87-42.83-8.47-50.45Z"/></g><path class="cls-76" d="M57.76,1249.76c-13.31-26.13-22.5-56.1-22.5-74.47,0-30.38-2.35-70.89-14.11-86.08s-15.67-33.28-12.54-46.3-3.13-31.1-7-47.74.78-27.49.78-27.49C7.83,978.53,12.53,979.25,23.5,993s6.28,20.25,22,42,29.78,44.13,35.27,70.9,27.43,55,46.24,80.29c13.24,17.82,21.74,40,26.76,63.62Z"/><g class="cls-89"><path class="cls-90" d="M57.76,1249.76c-13.31-26.13-22.5-56.1-22.5-74.47,0-30.38-2.35-70.89-14.11-86.08s-15.67-33.28-12.54-46.3-3.13-31.1-7-47.74.78-27.49.78-27.49c4.44,35.93,19.08,32.55,21.69,53.77s2.61,35.69,14.11,50.16,10.45,33.27,26.12,68,44.42,67,49.64,90.66c1,4.75,2.27,11.6,3.55,19.49Z"/></g><path class="cls-73" d="M439,1249.76c13.12-37,22.19-79.54,22.19-105.57,0-43.08,2.31-100.51,13.91-122.05S490.54,975,487.45,956.5s3.09-44.1,7-67.69-.78-39-.78-39c-5.4,15.38-10,16.41-20.86,35.89s-6.18,28.72-21.64,59.49-29.37,62.56-34.78,100.51-27.05,77.94-45.6,113.84c-13.05,25.26-21.43,56.67-26.38,90.19Z"/><g class="cls-91"><path class="cls-92" d="M439,1249.76c13.12-37,22.19-79.54,22.19-105.57,0-43.08,2.31-100.51,13.91-122.05S490.54,975,487.45,956.5s3.09-44.1,7-67.69-.78-39-.78-39C489.3,900.75,474.87,896,472.29,926s-2.57,50.6-13.91,71.11-10.3,47.18-25.76,96.41-43.79,95-48.95,128.54c-1,6.74-2.23,16.44-3.49,27.63Z"/></g><path class="cls-76" d="M64.67,989.38c5.61,13,23.83,21.7,51.17,34s40.58,20.67,65.18,60.77c13.32,21.7,29.44,56.42,40.65,106.34A508.9,508.9,0,0,0,239,1249.76H185.93v-4.3c0-34.72-47-73.78-58.18-104.17s-31.54-62.93-47-76-35.74-47.75-37.84-68a102.65,102.65,0,0,0-10.52-35.45c11.26,3.67,26.68,14.52,32.28,27.54Z"/><g class="cls-93"><path class="cls-94" d="M64.67,1019.76c11.22,21.71,29.44,11.58,61.68,42s16.82,33.28,45.56,78.85,33.64,63.66,38.55,98.38c.45,3.22,1.15,6.87,2,10.81H185.93v-4.3c0-34.72-47-73.78-58.18-104.17s-31.54-62.93-47-76-35.74-47.75-37.84-68a102.65,102.65,0,0,0-10.52-35.45c23.17,27.5,21.07,36.18,32.28,57.88Z"/></g><path class="cls-76" d="M1830.74,721c-14.75,27.88-7.37,38.78-4.42,69.08s-19.19,36.36-29.52,61.81-3,37.57-5.9,69.08-14.76,33.94-25.09,63,0,69.08,7.38,123.61c4.57,33.75-6.12,96.25-14.94,139H1622.76c10.42-80.84,25.14-210.85,16.14-239.6-13.28-42.42,7.38-112.71,20.66-134.52s16.23-48.48,13.28-67.87,10.33-26.67,26.56-41.21,16.24-46,23.62-72.72,42.2-37.24,44.27-60.59c3.61-40.73,51.31-77.74,77.63-77.74,21.68,19.78-3.11,73.49-7.54,95.31s8.12,45.49-6.64,73.36Z"/><path class="cls-95" d="M1666.32,1246.48c16.43-66.7,14.31-177.69,5.61-207.84-10.9-37.78.1-103.57,5.59-134.57s-6.4-58.2-10.42-77.84,15.6-31.78,20.12-56-17-40.79-21.39-62S1658.36,641,1652.05,641c0,0-22.33,18.18-33,39.36s.1,54.43-15.27,68.06-23.16,25.74-21.22,54.47-6.59,29.49-14.93,62,17.61,58.93,17,94.46S1566,992,1550.3,1054c-11.15,44,14.64,140.33,30.6,192.66Z"/><g class="cls-96"><path class="cls-97" d="M1666.32,1246.48c16.43-66.7,14.31-177.69,5.61-207.84-10.9-37.78.1-103.57,5.59-134.57s-6.4-58.2-10.42-77.84,15.6-31.78,20.12-56-17-40.79-21.39-62S1658.36,641,1652.05,641c.64,37.79-21.79,40.1-16.7,68.82s23.68,42.29,1.48,65-14.33,30.27-12.61,73.35-31.36,48.85-16.78,89.14c17,46.88,19.43,90.76,2,123.13-21.27,39.39,3,106.77-3.06,152.46,3.23,13.53,4,24.61,3.31,33.63Z"/></g><path class="cls-76" d="M1979.46,676.82c-10.81-1.54-35.11,22.33-45.92,37.73s-39.83,17.71-52,41.58-3.37,44.67-35.11,63.92-50.3,42.07-75,86.25c-18.9,33.88-42.54,98.57-45.91,136.3s-21.61,74.7-43.89,113.21c-12.32,21.29-17,60.24-18.72,90.81h53c13.41-20.22,35.78-42.51,40.69-61.55,6.75-26.18,2.7-68.54,17.55-94s57.4-65.46,58.75-92.41,27.68-57.76,48.61-72.39,23-60.06,35.11-81.63,38.49-30.8,39.84-55.44,4.73-43.9,16.88-57,16.92-53.84,6.12-55.38Z"/><g class="cls-98"><path class="cls-99" d="M1982.35,678.55l-2.89-1.73c-12.16,33.88-32.41,43.12-41.19,67.76s-27.68,21.57-41.19,58.53-67,50.66-77,104c-11.77,62.63-73.32,54.62-71,172.13,1,51.3-35.53,56-53.35,100.78-12.19,30.59-8.38,66.6-8.38,66.6H1716c13.42-20.23,35.79-42.47,40.7-61.51,6.75-26.18,2.7-68.54,17.55-94s57.4-65.46,58.75-92.41,27.68-57.76,48.61-72.39,23-60.06,35.11-81.63,38.49-30.8,39.84-55.44,4.73-43.9,16.88-57c10.85-11.69,15.77-45.57,8.95-53.69Z"/></g><path class="cls-76" d="M1928.88,1246.62c14.17-27.81,24-59.71,24-79.26,0-32.35,2.5-75.47,15-91.64s16.69-35.43,13.35-49.29,3.34-33.11,7.51-50.82-.83-29.27-.83-29.27c-5.84,11.56-10.85,12.33-22.53,27S1958.71,994.9,1942,1018s-31.71,47-37.55,75.47-29.2,58.53-49.22,85.48c-14.09,19-23.15,42.55-28.48,67.71Z"/><g class="cls-100"><path class="cls-101" d="M1928.88,1246.62c14.17-27.81,24-59.71,24-79.26,0-32.35,2.5-75.47,15-91.64s16.69-35.43,13.35-49.29,3.34-33.11,7.51-50.82-.83-29.27-.83-29.27c-4.73,38.25-20.3,34.66-23.08,57.25s-2.79,38-15,53.39-11.13,35.42-27.82,72.39-47.28,71.36-52.84,96.51c-1.12,5.06-2.41,12.35-3.77,20.74Z"/></g><path class="cls-73" d="M1523.06,1246.62c-14-39.43-23.62-84.66-23.62-112.38,0-45.85-2.47-107-14.81-129.92s-16.46-50.22-13.17-69.87-3.29-47-7.4-72.06.82-41.49.82-41.49c5.76,16.38,10.7,17.47,22.22,38.21s6.58,30.57,23,63.33,31.26,66.6,37,107,28.8,83,48.54,121.19c13.9,26.89,22.82,60.32,28.09,96Z"/><g class="cls-102"><path class="cls-103" d="M1523.06,1246.62c-14-39.43-23.62-84.66-23.62-112.38,0-45.85-2.47-107-14.81-129.92s-16.46-50.22-13.17-69.87-3.29-47-7.4-72.06.82-41.49.82-41.49c4.66,54.23,20,49.13,22.76,81.16s2.75,53.86,14.81,75.69,11,50.23,27.43,102.63,46.62,101.17,52.1,136.84c1.1,7.17,2.38,17.5,3.73,29.4Z"/></g><path class="cls-76" d="M1921.53,969.45c-6,13.86-25.37,23.1-54.47,36.19s-43.2,22-69.39,64.69c-14.17,23.1-31.33,60.07-43.27,113.2a540.79,540.79,0,0,1-18.5,63.1h56.55v-4.57c0-37,50-78.55,61.93-110.89s33.57-67,50-80.86,38-50.83,40.29-72.39a109,109,0,0,1,11.19-37.73c-11.95,3.81-28.36,15.4-34.33,29.26Z"/><g class="cls-104"><path class="cls-105" d="M1921.53,1001.79c-11.94,23.1-31.34,12.32-65.66,44.67s-17.91,35.42-48.5,83.94-35.81,67.76-41,104.73c-.49,3.42-1.24,7.3-2.17,11.5h28.28v-4.57c0-37,50-78.55,61.93-110.89s33.57-67,50-80.86,38-50.83,40.29-72.39a109,109,0,0,1,11.19-37.73c-24.66,29.26-22.43,38.5-34.36,61.6Z"/></g><path class="cls-106" d="M453.23,1052.17,445.55,1163h62.56l5.49-117.45-60.37,6.58Z"/><path class="cls-107" d="M450.32,1094.1l2.91-41.93,59.94-6.54-1.47,40.57s-36.88,4.8-61.38,7.9Z"/><path class="cls-106" d="M984.83,1028c13.94,49.4,31.51,135,31.51,135H884.11l-26.93-76.84Z"/><path class="cls-107" d="M857.18,1086.2,984.83,1028c2.75,9.74,5.64,20.89,8.51,32.51-41.08,20-136.16,25.69-136.16,25.69Z"/><path class="cls-108" d="M425.79,1050s14.26,7.69,38.42,12.08,39.51,3.3,39.51,3.3l4.39,97.69H859.38l-2.2-76.84s46.1-9.87,77.93-23,67-37.34,67-37.34-64.76-180-114.16-247C840.48,714.55,764.38,678.26,735.06,658c-40.13,19.13-72.56,54-84.25,72.57-13.17,20.85-32.93,63.66-32.93,63.66s-23-32.93-32.92-75.74c-3.72-16.08-5.88-28.73-7.13-38.29-20.15,24.51-72.06,79-95,132.69C454.33,879.84,425.79,1050,425.79,1050Z"/><circle class="cls-109" cx="543.57" cy="877.72" r="21.95"/><circle class="cls-110" cx="543.61" cy="877.66" r="19.09"/><path class="cls-111" d="M543.35,881.34h.12a4.13,4.13,0,0,0,4-4.26h0a669.59,669.59,0,0,1,2.3-70.11c.25-2.88.5-6,.77-9.38,3.16-39.49,9-113,53.42-150.67a4.13,4.13,0,0,0-5.34-6.3c-47,39.89-53,115.63-56.3,156.32-.27,3.33-.52,6.45-.77,9.3a680.31,680.31,0,0,0-2.33,71.1,4.14,4.14,0,0,0,4.13,4Z"/><path class="cls-112" d="M586.05,668c-.22,2-3.25,6.18-8.22,12.2,1.25,9.56,3.41,22.21,7.13,38.29,9.87,42.81,32.92,75.74,32.92,75.74s19.76-42.81,32.93-63.66C662.5,712,694.93,677.12,735.06,658c-1.22-.84-2.34-1.65-3.4-2.44-26.34-19.76-27.06-81.23-28.53-120.75l-128.06,24.5s12.08,98.8,11,108.69Z"/><path class="cls-113" d="M586.05,668c-.22,2-3.25,6.18-8.22,12.2,1.25,9.56,3.41,22.21,7.13,38.29,9.87,42.81,32.92,75.74,32.92,75.74s19.76-42.81,32.93-63.66C662.5,712,694.93,677.12,735.06,658c-1.22-.84-2.34-1.65-3.4-2.44-26.34-19.76-27.06-81.23-28.53-120.75l-128.06,24.5s12.08,98.8,11,108.69Z"/><path class="cls-106" d="M705.08,451c15.62-7.49,32.49-1.84,35.64,19.42s-2.68,44-19.38,51.34-23-.51-23-.51Z"/><path class="cls-114" d="M700.28,500.86l3.08-32.06c1.84-1.56,9.48-7.46,17.28-4.74,8.94,3.13,10.25,20.19,5.17,29.88-5,9.5-14.5,11.43-25.53,6.92Z"/><path class="cls-106" d="M567.12,449.88c-15.62-7.48-32.49-1.84-35.65,19.42s2.69,44,19.38,51.34,23-.51,23-.51Z"/><path class="cls-114" d="M571.92,499.76l-3.09-32.06c-1.84-1.56-9.48-7.46-17.27-4.73-8.95,3.12-10.25,20.19-5.17,29.87C551.38,502.34,560.89,504.28,571.92,499.76Z"/><path class="cls-115" d="M710.82,478.09c6.95-30,7.68-58.18,0-76.11s-28.05-35.8-40.25-43.17c-17.56-10.61-53.74-9.06-65.5-3.66-13.53,6.22-39.51,26.34-43.9,40.61s-6.22,33.3-5.49,46.47A157.26,157.26,0,0,0,559,466.38Z"/><path class="cls-106" d="M669.47,367.59s-18.66,9.51-34,8.05-27.8-10.24-27.8-10.24S578.73,376,570,397.23s-8.42,32.93-8,43.54-3,25.61-3,25.61.73,70.25,7.69,87.08,34,42.81,41,48.3,28.54,4.76,41.34,2.56,47.93-31.1,54.15-51.22,7.69-75,7.69-75-4.39-7.32-4.76-24.88,2.56-27.44-1.1-41.71-21.63-37.7-35.54-43.92Z"/><g class="cls-116"><path class="cls-117" d="M642.7,450.9l10.95,49-22.72,4.42-17.44-3.74,9.74-50.38Z"/></g><path class="cls-118" d="M626.38,501.89c.55-2.14-1.08-4.25-3.64-4.71s-5.07.9-5.62,3.05Zm13.37,0c-.55-2.14,1.07-4.25,3.63-4.71s5.07.9,5.62,3.05Z"/><path class="cls-115" d="M619.34,443.7l.92,9.14s-20.54-4.79-34-3.11a126.2,126.2,0,0,0-17,3.48,26.81,26.81,0,0,1,21.22-14.27,56.79,56.79,0,0,1,28.86,4.76Zm32,.91-.91,9.15s20.53-4.8,34-3.11a127.74,127.74,0,0,1,17,3.47,26.81,26.81,0,0,0-21.22-14.27,56.72,56.72,0,0,0-28.87,4.76ZM682.07,469a4.1,4.1,0,1,1-4.1-4.25,4.17,4.17,0,0,1,4.1,4.24Zm-83.24-2a4.1,4.1,0,1,1-4.1-4.25,4.17,4.17,0,0,1,4.1,4.24Z"/><path class="cls-119" d="M603,528.68c.21,11.19,5.33,33.2,32.77,33.38,28.36.19,33.06-22.48,33.49-33.38.63-15.79-14.83-11.81-33.12-11.81S602.73,512.87,603,528.68Z"/><path class="cls-110" d="M603,530.71c.21,8.33,14.83,18.73,33.13,18.73s32.7-10.61,33.13-18.73c.63-11.76-14.62-4.88-32.92-4.88S602.73,518.94,603,530.71Z"/><g class="cls-120"><path class="cls-121" d="M645.32,1012.66c40.62-84.53,137.21-94.4,137.21-94.4,8.78,30.73,74.65,167.94,74.65,167.94l2.2,76.84H622c-3.46-31.9-4.64-92.18,23.32-150.38Z"/></g><g class="cls-122"><path class="cls-123" d="M464.21,1062.05c-24.16-4.39-38.42-12.08-38.42-12.08s28.54-170.13,57.07-237.09c7.27-17,17.45-34.14,28.6-50.34,2,41.31-4.44,83.27-4.44,83.27-7.69,48.3-16.47,69.15-17.57,99.89s14.27,119.65,14.27,119.65-15.36,1.09-39.51-3.3Z"/></g><path class="cls-124" d="M675.86,981.14l1.21.16a3.3,3.3,0,0,0,.71-6.57c-.17,0-16.9-1.93-30.74-10.93-21.85-14.21,4.19-82.07,12.74-104.38.89-2.32,1.64-4.28,2.21-5.81a3.3,3.3,0,1,0-6.2-2.29c-.55,1.52-1.3,3.45-2.17,5.74-17,44.3-33.51,97.1-10.18,112.27,13.12,8.54,28.08,11.19,32.42,11.81Zm32.88,7.24c14.12,2,32,.89,39.5-21.16,7.28-21.29,10.5-51.19,13.09-75.22.75-7,1.46-13.54,2.17-18.82a3.28,3.28,0,1,0-6.5-.88c-.72,5.37-1.43,12-2.19,19-2.41,22.45-5.73,53.19-12.76,73.78S718,983.94,699.82,980c-1.21-.27-2.36-.52-3.43-.73a3.3,3.3,0,0,0-1.31,6.47l3.33.71c3,.62,6.52,1.39,10.33,1.93Z"/><path class="cls-111" d="M729.27,794.13a4.13,4.13,0,0,0,4.51-2.84c.08-.26,8.33-26.36,13.68-52.86l.33-1.64c5.3-26.17,10.23-51-11.63-86.09-6.68-10.7-13-8.31-14.92-7,1.93,2.6,6.22,8.27,7.49,10.17,21.06,31.47,16.16,55.69,11,81.32l-.33,1.65c-5.26,26-13.38,51.74-13.46,52A4.12,4.12,0,0,0,728.6,794a3.78,3.78,0,0,0,.67.13Z"/><path class="cls-111" d="M758.8,882.27a4.11,4.11,0,0,0,4.63-3.31,165.62,165.62,0,0,0,2-40.33c-2.35-28.49-13.71-46.33-32.86-51.58-39.46-10.81-66.43,27.87-78.52,67.67a4.12,4.12,0,0,0,7.89,2.4c6.19-20.36,15.49-37.68,26.18-48.78C700.73,795.26,715,790.78,730.39,795c38.2,10.47,25.08,81.68,24.94,82.4a4.13,4.13,0,0,0,3.28,4.83Z"/><path class="cls-125" d="M683.21,977.81c-.94,5.29-2.91,6.34-8,4.88a44,44,0,0,1-6.87-2.49l1.66-7.5s6.28-.72,9.15.52c2.56,1.1,4.43,2.57,4.06,4.59Zm3.79.74c-1.42,5.18-.09,7,5.12,7.84a43.24,43.24,0,0,0,7.27.7l1.73-7.49s-5.37-3.34-8.49-3.46C689.89,976,687.58,976.56,687,978.55Z"/><path class="cls-126" d="M595.54,1092c-8.33,34.83-12.11,79.5-9.84,96.16s34.83,67.39,34.83,67.39h100.7L686.4,1198l13.6-86.37Zm444.46,1.46s12.12,57.55,11.36,75.72-9.08,86.32-9.08,86.32h98.43s6.81-56.79,4.54-87.08-3.78-98.43-3.78-98.43Z"/><path class="cls-127" d="M700,1111.63,595.54,1092q-1.74,7.34-3.15,14.75l105.27,20ZM1141.47,1070,1040,1093.46s1.5,7.12,3.41,17.14l99-6.6c-.61-19-.94-34-.94-34Z"/><path class="cls-111" d="M1168.72,1072.64l-126.06,25s-10.23,31.81-12.5,46.57-2.27,111.31-2.27,111.31H721.23s-1.14-55.66-1.14-77.24-13.63-56.78-13.63-56.78L577,1092s41.66-165.82,70-222.62c24.58-49.14,99.63-79.59,129.67-108.23,8.11,34,40.37,82.4,49.78,96.88,9.84,15.14,28.78,34.83,28.78,34.83s40.13-39.37,58.3-69.67c14.87-24.78,27.71-63.77,31.88-77.1,13.52,14.77,31.71,27.88,51.4,40.76,39.38,25.75,67.39,31.42,96.93,83.68s75,202.11,75,202.11Z"/><path class="cls-128" d="M945.44,746c-2.36,7.53-7.48,23.27-14.19,40-48.77,8.37-108.27,5.65-146.73-2.15a145.13,145.13,0,0,1-7.82-22.78c4.68-4.46,8.27-8.86,10.4-13.29C803,714.87,803,671.72,803,644.46l114.33,9.84a187,187,0,0,0,7.56,57.55c3.78,12.53,11,23.77,20.55,34.15Z"/><path class="cls-73" d="M931.25,786c-5.14,12.88-11.24,26.33-17.69,37.11-18.17,30.3-58.3,69.67-58.3,69.67S836.32,873.12,826.48,858c-7.45-11.46-29.17-44.11-42-74.1C823,791.68,882.48,794.4,931.25,786Z"/><path class="cls-129" d="M797.77,557.64C780.33,551,761,556.25,756.65,575.5s1.47,39.78,20.15,46.27,26.14-.66,26.14-.66Z"/><path class="cls-118" d="M801.44,602.7l-2.36-29c-2-1.4-10.48-6.67-19.42-4.14-10.27,2.91-12.36,18.35-6.93,27.06s16,10.26,28.71,6.08Z"/><path class="cls-129" d="M925.23,559.91c17.45-6.64,36.79-1.39,41.12,17.86S964.88,617.55,946.2,624s-26.14-.66-26.14-.66Z"/><path class="cls-118" d="M921.56,605l2.36-29c2-1.4,10.48-6.66,19.42-4.13,10.27,2.9,12.36,18.34,6.93,27-5.27,8.61-16,10.28-28.71,6.13Z"/><path class="cls-126" d="M783.7,543.37c-1.14,10.79,0,29,3.41,54S792.22,640,803,656.43s31.23,39.18,45.43,40.89,29,2.27,40.89-4,28.39-22.14,34.64-33.5,18.17-64.17,18.74-77.8-88-106.2-115.28-105.06-43.73,66.41-43.73,66.41Z"/><path class="cls-107" d="M824.3,486.3c9.75,28.3,32.85,51,41.55,59.34s32.94,14.77,42.41,25,29.53,39,29.53,39l-5.68-51.86L847.3,479Z"/><path class="cls-111" d="M877.6,556.87a80.53,80.53,0,0,1,12-2.54,79.4,79.4,0,0,1,11.74-.57c3.93.08,7.89.39,11.91.81s8.11,1,12.44,1.29a37.25,37.25,0,0,0-11.41-6,43.38,43.38,0,0,0-12.82-2.23,36.83,36.83,0,0,0-13,2A25.43,25.43,0,0,0,877.6,556.87Z"/><path class="cls-111" d="M813.8,455.75s-10.79,1.48-22.72,12.13A40.48,40.48,0,0,0,778,492.43s-7.38,10.65-6.81,29,5.11,44.37,14.76,63.9c0,0,0-32.54,2.27-42S824.3,480.9,824.3,480.9s10.51,21.89,25.84,38.16a107.46,107.46,0,0,0,31.8,23.37l-2.27-7.1s16.19,15.09,25.56,20.41L902.39,546s12.78,18,21,26,14.48,32.24,13.63,43.19c0,0,10.22-25.15,13.06-37.28s7.95-20.12,9.09-39,1.36-66.9-26.32-87.51c-17.78-13.28-33.85-16.4-47.5-19.32l3.69-3.55s-7.38-4.44-22.43-3.25a62.36,62.36,0,0,0-26.41,8.58l2.56-8.58A33.2,33.2,0,0,0,830,434.45l-1.7-9.77a59.55,59.55,0,0,0-9.09,13c-3.71,7.42-5.41,18.07-5.41,18.07Z"/><g class="cls-130"><path class="cls-131" d="M704.58,950.35s9.08-71.93-35.59-81c-7.41-1.51-15.2-.51-23,2.2C617.59,930.29,577,1092,577,1092l129.48,29.53s-11-44.68-14.76-72.69,3-70.47,12.86-98.49Z"/></g><g class="cls-132"><path class="cls-133" d="M1168.72,1072.64s-45.42-149.92-75-202.16a177.43,177.43,0,0,0-22.52-32c-25.36,16.77-47.63,71.46-40.33,105,7.57,34.83,16.66,52.24,18.17,87.07s-6.43,67-6.43,67Z"/></g><path class="cls-111" d="M847.53,556.87a80.53,80.53,0,0,0-12-2.54,79.4,79.4,0,0,0-11.74-.57c-3.93.08-7.88.39-11.91.81s-8.1,1-12.44,1.29a37.69,37.69,0,0,1,11.41-6,43.38,43.38,0,0,1,12.82-2.23,36.83,36.83,0,0,1,13,2A25.52,25.52,0,0,1,847.53,556.87Z"/><path class="cls-115" d="M816.8,571.05a3.69,3.69,0,1,0,3.69-3.83,3.76,3.76,0,0,0-3.69,3.83Zm80.26,0a3.69,3.69,0,1,0,3.69-3.83,3.76,3.76,0,0,0-3.69,3.83Z"/><path class="cls-134" d="M855.91,560.73l-8.13,50.66L864.64,616l13-3.87L870.36,560Z"/><path class="cls-135" d="M868,613.43a4.14,4.14,0,0,1,2.7-4.87c1.9-.48,3.77.94,4.17,3.15Zm-9.9,0a4.15,4.15,0,0,0-2.7-4.87c-1.9-.48-3.77.94-4.17,3.15Z"/><path class="cls-136" d="M891.6,633.54c-22.53.88-48.73.94-57.74.5C844.84,645.78,877.59,649.57,891.6,633.54Z"/><circle class="cls-137" cx="819.19" cy="603.85" r="19.02"/><circle class="cls-137" cx="905.51" cy="603.85" r="19.02"/><circle class="cls-111" cx="756.8" cy="963.56" r="20.1"/><path class="cls-138" d="M774.08,966.22a17.48,17.48,0,1,1-14.65-19.91h0A17.48,17.48,0,0,1,774.08,966.22Z"/><path class="cls-67" d="M954.31,1038a73.87,73.87,0,0,1-23-3.46c-24.16-8.1-21.64-58.7-16.74-101.88.26-2.23.47-4.11.62-5.58a3,3,0,0,1,6,.6c-.15,1.49-.36,3.4-.62,5.67-2.47,21.73-10,87.87,12.65,95.45,14.39,4.83,29.61,2.66,29.76,2.64a3,3,0,1,1,.88,6,71,71,0,0,1-9.55.56Zm26.39-.75a3,3,0,1,1-.16-6l3.21-.13c17-.66,32.46-2.9,34-22.88s-2.6-47.88-5.61-68.34c-.94-6.39-1.82-12.42-2.42-17.34a3,3,0,0,1,6-.73c.59,4.85,1.47,10.85,2.4,17.19,3.22,21.89,7.22,49.15,5.66,69.68-2.06,27-26.59,28-39.77,28.46l-3.13.13Z"/><path class="cls-139" d="M755.21,898.62c-.06-2.64-.15-5.52-.25-8.6-1.14-35.94-3.22-102.52,32.29-141.48A58.94,58.94,0,0,0,767.63,763c-23,41-21.22,95.63-20.22,127.25.09,3.07.18,5.93.25,8.55a621.59,621.59,0,0,0,5.12,64.94,3.78,3.78,0,0,0,3.74,3.25h.54a3.77,3.77,0,0,0,3.2-4.28A613.48,613.48,0,0,1,755.21,898.62Z"/><path class="cls-140" d="M971.06,803.34c-.94-17.43-1.9-35.28-12.65-53.23a63.8,63.8,0,0,0-8.54-9c-4.44-3.72-9.83-5.75-15.26-7.56a3.85,3.85,0,0,0,.51.56c25.9,23.07,27.11,45.66,28.39,69.58l.08,1.54c1.32,24.29,0,48.94,0,49.18a3.79,3.79,0,0,0,3.57,4h.21a3.78,3.78,0,0,0,3.77-3.57c0-.25,1.34-25.28,0-50Z"/><path class="cls-140" d="M918.22,934.47h-.16a3.77,3.77,0,0,1-3.62-3.91v0c1.58-37.81,16.43-78,53.36-78h.73c18.18.26,32.34,13.46,41,38.18a152.43,152.43,0,0,1,7.49,36.22,3.78,3.78,0,0,1-7.55.48c0-.67-4.74-66.81-41-67.33-14.61-.27-26.24,7-34.41,21.51-6.94,12.3-11.21,29.79-12,49.26a3.78,3.78,0,0,1-3.84,3.61Z"/><path class="cls-73" d="M968.54,1033c.37,4.9-1.13,6.28-6,6.15a39.21,39.21,0,0,1-6.66-.63l-.25-7s5.4-2.07,8.23-1.64C966.4,1030.22,968.39,1031.09,968.54,1033Zm3.55-.26c-.07,4.92,1.53,6.2,6.35,5.77a38.83,38.83,0,0,0,6.6-1l-.19-7s-5.52-1.73-8.31-1.11c-2.49.46-4.42,1.46-4.45,3.34Z"/><path class="cls-110" d="M1389.88,1134.2c-7.06,28.24-91.77,135.32-110.6,137.68s-29.42-16.48-29.42-16.48H801.51s-31.78-85.9-40-131.79,28.24-250.06,48.25-298.9,51.77-67.07,88.84-89.42,102.37-71.78,114.14-88.86a43,43,0,0,0,5.17-10.56c11.16,34.8,51.5,76.67,73.88,76.67,22.92,0,54.2-42.5,64.29-82.21a77,77,0,0,0,22,32c22.75,19.62,90.6,41.19,122.38,61.2s43.53,64.73,61.18,138.86,35.3,243.61,28.24,271.81Z"/><path class="cls-107" d="M1294.57,1186.28c-7.65-20-17.36-20.6-30.59-20.6l-29.72,22.07,6.15,67.65h9.45s10.58,18.83,29.42,16.48c2.8-.35,7-3,12.28-7.39,4.2-14.73,10-59.9,3-78.21Z"/><g class="cls-141"><path class="cls-142" d="M1007.74,1196.82c2.92-98.67,3.57-197.48,9.69-296-52.3,2.69-101.46,9.36-104.52,22.75C906.63,951,880.75,1115,880.75,1115c10.19,25.87,37.25,140.4,37.25,140.4h87.67q1.2-29.28,2.07-58.58Z"/></g><g class="cls-143"><path class="cls-144" d="M1142.77,902.38a92.21,92.21,0,0,0-11.59-1.45q-1.18,18.84-2.14,37.7c-5.2,105.52-5.19,211.23-9.63,316.77h130.45l24.71-139.63s9.41-72.18,12.55-108.26,12.55-140.43,12.55-140.43S1166.31,907.87,1142.77,902.38Z"/></g><circle class="cls-67" cx="1250.7" cy="932.75" r="24.96" transform="translate(53.5 1933.23) rotate(-76.6)"/><circle class="cls-145" cx="1250.72" cy="932.83" r="21.7" transform="translate(-306.86 1024.64) rotate(-40.09)"/><path class="cls-146" d="M936.89,1044.5h.23c31.63-.09,48.43-60.7,59.53-113.49.58-2.73,1.06-5,1.46-6.82a3.75,3.75,0,1,0-7.32-1.65c-.41,1.82-.9,4.16-1.48,6.92-5.59,26.58-22.6,107.45-52.22,107.54h-.19c-18.77,0-35.74-8.44-35.91-8.52a3.75,3.75,0,1,0-3.42,6.67l0,0c.76.38,18.75,9.32,39.27,9.32Z"/><path class="cls-146" d="M953.16,1047.59c8.54,0,16.89-2,23.13-3.54,1.34-.32,2.6-.63,3.78-.89a3.75,3.75,0,1,0-1.66-7.32c-1.21.27-2.51.59-3.89.92-20.56,5-39.74,7.54-48.32-15.81s-13.12-58.07-16.46-83.52c-1-7.95-2-15.45-3-21.54a3.75,3.75,0,0,0-7.41,1.17c.94,6,1.92,13.45,3,21.34,3.57,27.24,8,61.14,16.85,85.14,7,19.19,20.74,24,34,24Z"/><path class="cls-136" d="M1251.71,936.88a4.7,4.7,0,0,0,4-4.69,774.22,774.22,0,0,0-6-80.65c-.42-3.23-.85-6.75-1.31-10.53-5.62-46.06-16.08-131.8-71.34-174.89a4.69,4.69,0,1,0-5.77,7.4c52.19,40.69,62.34,123.91,67.8,168.63.46,3.8.9,7.35,1.32,10.6a763.89,763.89,0,0,1,5.93,79.54,4.69,4.69,0,0,0,4.74,4.64h0a4.46,4.46,0,0,0,.63,0Z"/><path class="cls-139" d="M948.53,830.33h.25a4.69,4.69,0,0,0,4.86-4.51h0c0-.3,1.16-30.92,5.5-60.81l.27-1.89c4.26-29.43,8.28-57.23,42.88-82.86a4.69,4.69,0,1,0-5.59-7.54c-37.73,28-42.23,59-46.57,89l-.28,1.89c-4.41,30.41-5.57,61.51-5.58,61.82a4.68,4.68,0,0,0,4.26,4.91Z"/><path class="cls-139" d="M995.14,925.88a4.69,4.69,0,0,0,4.54-3.54c7.82-31,3.51-61.79-11.23-80.44C978.35,829.13,964,822.51,947,822.75a38.47,38.47,0,0,0-28.87,12.85c-23,25.14-19.31,78.69-19.14,81a4.69,4.69,0,0,0,9.36-.7c0-.51-3.57-51.79,16.71-73.93a29,29,0,0,1,22.07-9.8c14.25-.24,25.66,5,34,15.58,13,16.42,16.61,44.14,9.49,72.33a4.68,4.68,0,0,0,3.37,5.69,4.79,4.79,0,0,0,1.19.15Z"/><path class="cls-73" d="M893.9,1028.06c-2.36,5.63-1.12,7.85,4.63,9.59a48.89,48.89,0,0,0,8.09,1.86l3-8.19s-5.55-4.55-9.06-5.14c-3.07-.52-5.76-.28-6.66,1.88Zm95.1,6.75c1.75,5.85.28,7.92-5.62,9a48.8,48.8,0,0,1-8.25,1l-2.15-8.47s6-3.94,9.55-4.15c3.17-.19,5.82.38,6.47,2.62Z"/><path class="cls-138" d="M1156.07,630.33c-10.09,39.71-41.37,82.21-64.29,82.21-22.38,0-62.72-41.87-73.88-76.67a43,43,0,0,1-5.17,10.56c-5.66,8.22-23.72,23.92-45.05,40.49-17.74,38.09-25,79-25,79L985,802.4l-18.82,25.89s37.65,49.42,44.71,83.55S1152.18,920,1152.18,920l49.43-65.89L1184,811.77l41.18-10.59s-.88-67.65-23.14-124c-9.91-5-18.3-10-23.92-14.86a76.9,76.9,0,0,1-22-32Z"/><path class="cls-111" d="M1156.07,630.33c-10.09,39.71-41.37,82.21-64.29,82.21-22.38,0-62.72-41.87-73.88-76.67a43,43,0,0,1-5.17,10.56c-.44.65-1,1.35-1.58,2.08-10.42,47.89-14.82,102.24-11.94,169.15,3.13,73,1.17,133-20,214.17-18.22,69.84-52.11,191-61.23,223.57H1152.2c0-42.35.26-236.27,2.35-300.06,2.35-71.79,9.41-118.86,21.18-171.81,9.46-42.55-.08-96.49-4.81-128.25a78.92,78.92,0,0,1-14.85-24.95Z"/><g class="cls-147"><path class="cls-111" d="M1000.21,883.66c29.8-.93,59.62-3.1,89.4-3.41,23.31-.25,46.64-.57,70-.77a840.13,840.13,0,0,1,16.14-96c9.46-42.55-.08-96.49-4.81-128.25a78.89,78.89,0,0,1-14.84-25c-10.09,39.71-41.37,82.21-64.29,82.21-22.38,0-62.72-41.87-73.88-76.67a43,43,0,0,1-5.17,10.56c-.44.65-1,1.35-1.58,2.08-10.42,47.89-14.82,102.24-11.94,169.15,1,23,1.43,44.62,1,66Z"/></g><path class="cls-148" d="M1176.21,692c-1.73-13.8-3.77-26.42-5.3-36.7a78.89,78.89,0,0,1-14.84-24.95c-10.09,39.71-41.37,82.21-64.29,82.21-22.38,0-62.72-41.87-73.88-76.67a43,43,0,0,1-5.17,10.56c-.44.65-1,1.35-1.58,2.08a538.26,538.26,0,0,0-9.24,58.13l27.89,51.59s34.42-36.48,42.66-31.77c2.32,1.33-5.41,10.9-2.65,15.88,7,12.69,22.36,30.6,22.36,30.6s15.53-17.8,24.71-30c4.24-5.63-3.73-17.57-2.06-17.94,5.3-1.18,40.31,26.18,40.31,26.18s12.67-30.64,21.08-59.2Z"/><path class="cls-149" d="M1156.07,630.33c-8.89,45.82-47.43,76.71-63.9,142.61-10.59-66.49-64.13-90.61-74.27-137.07,5.69-16.7,5.06-40.41,5.36-66.86.58-1.58,1.2-3.12,1.87-4.66l123.13,19.52c.43,16.49,2.44,32.31,7.81,46.46Z"/><path class="cls-129" d="M1025,494.29c-15.48-8.44-33.67-4.8-39.22,14.67s-1.9,41.19,14.72,49.59,24.06,1.72,24.06,1.72Z"/><path class="cls-118" d="M1024.65,541.14l.2-30.11c-1.75-1.63-9.09-7.84-17.5-6-9.66,2.06-12.84,17.8-8.58,27.29,4.23,9.26,13.9,12,25.88,8.82Z"/><path class="cls-129" d="M1151,495.48c15.48-8.45,33.67-4.81,39.22,14.66s1.9,41.19-14.73,49.59-24,1.72-24,1.72Z"/><path class="cls-118" d="M1151.32,542.32l-.2-30.11c1.75-1.63,9.08-7.84,17.5-6.05,9.66,2.06,12.84,17.81,8.57,27.29C1173,542.77,1163.3,545.47,1151.32,542.32Z"/><path class="cls-150" d="M1022.74,408.14c23.39-27.08,66.68-33.63,96.5-22.65s36.38,20,48.54,37.66,11.18,45.89,8.53,60a144.27,144.27,0,0,1-8.83,30.11c-2,4.71-5.49,5.88-5.49,5.88l-139.64,4.32s-9.42,2.74-10.2-10.59-3.92-20-9.81-21.58c0,0-9.41-48.63,20.4-83.15Z"/><path class="cls-151" d="M1025.13,564.35c-.67,1.54-1.29,3.08-1.87,4.66,0-1.63,0-3.28.07-4.94Z"/><path class="cls-126" d="M1037.16,418.44s-19.52,31.58-16.77,55.9-.39,48.34-2,66,5.49,45.9,16.47,68.26,31,42.36,61.19,40.79,35.3-16.47,48.64-41.58a155,155,0,0,0,17.65-62c1.18-14.52-2.35-34.23-2-55s.79-44.62-9.8-58.74-16.09-18.63-16.09-18.63-28,17.95-54.72,17.95-42.57-12.95-42.57-12.95Z"/><path class="cls-150" d="M1033.15,493.9c21.18-4.12,31.33-1.47,47-1.95C1074.34,475.37,1036.53,472,1033.15,493.9Zm114.62-1.76c-21.18-4.12-31.33-1.48-47-1.95C1106.58,473.6,1144.39,470.2,1147.77,492.14Z"/><path class="cls-115" d="M1049.1,506.11a4.06,4.06,0,1,0,0-.11Zm74.14,0a4.06,4.06,0,1,0,0-.11Z"/><path class="cls-152" d="M1093.48,490.93l16.6,46.27c1.07,3.23-.91,6.67-3.85,6.69l-23.82.16,5.66-53.29Z"/><path class="cls-135" d="M1092.24,541.13a3.89,3.89,0,0,0-3.62-4,3.77,3.77,0,0,0-3.37,4.15h0Z"/><path class="cls-110" d="M1116.15,570.42c-.17,6.47-11.51,14.53-25.71,14.53s-25.38-8.23-25.72-14.53c-.49-9.13,11.35-3.79,25.55-3.79s26.12-5.35,25.88,3.79Z"/><circle class="cls-137" cx="1047.15" cy="542.58" r="17.95" transform="translate(146.88 1304.43) rotate(-67.63)"/><circle class="cls-137" cx="1135.42" cy="542.6" r="17.95" transform="translate(-121.36 478.66) rotate(-22.63)"/><path class="cls-153" d="M1213.38,1186.37l202.4-325.57-20.4,92.58-150.62,246.33-30.6-.78-.78-12.56Z"/><path class="cls-126" d="M1225.73,1166.56s-4.41-4.11-8.82-1.76-21.19,14.12-25.89,23.24a17.61,17.61,0,0,0-15,4.71,38.06,38.06,0,0,0-8.82,14.71s-5.59-1.77-8.83,6.47-1.17,18.24,5,25,15,22.06,21.48,31.18,23.83,12.94,34.13,5.88,64.13-29.71,70.6-35.89,10.59-59.72-3.53-66.19-32.65-2.06-38.24-2.94-14.71,2.94-14.42,10.59,13.83,13.53,13.83,13.53l-12.06.3-15-9.71Z"/><path class="cls-111" d="M1419.61,141.43s8-46,53.54-49.64,34.35,16.87,67.49,11.7c28.8-4.5,44.39,19.64,50.39,31s5.12,33.82,28.35,36.89c30.59,4.05,43.19,38.4,43.19,38.4s20.4,6,37.2,37.19,6,41.4,18,51.59,36,11.4,52.79,37.8,6.6,49.79,19.2,70.19,34.19,23.39,42,53.39-5.4,42.59-1.2,62.39,30,42.59,28.8,75.58-27.6,43.2-33,60-34.79,52.19-78,53.39-488.32,30-531.51,15-67.19-27.59-69.59-64.79,25.79-40.79,19.2-73.19-24-54.59-2.4-91.78,46.19-30,72-53.39,22.2-52.19,19.2-94.79,24-70.18,49.79-78.58,29.4-31.2,28.8-56.39a74.69,74.69,0,0,1,30-62.24c23.82-18,55.76-9.72,55.76-9.72Z"/><path class="cls-154" d="M1610.38,332.5c16.2,28.79,24.3,69.29,22.5,95.38s-6.2,46.36,13.49,52.19c24.3,7.2,36,27.9,31.5,42.3s-17.13,39.34,3.6,54.89c32.39,24.29,6.3,61.19-3.6,52.19l-366.24,3.6s-31.49-32.4-20.7-70.19,40.5-26.1,45.9-52.19-22.5-37.8-10.8-70.19,35.09-18.9,27-63c-4.71-25.67,26.1-55.79,26.1-55.79Z"/><path class="cls-138" d="M1617.35,566.52c-1,26.26-5.72,128.61-20.77,209-17.4,93-67.78,227.06-90.58,222.86s-79.19-143.08-100.78-205.46c-20.72-59.87-34.26-197-30.55-231.91,5.81-6,10-10.85,11.35-13.46,5.4-10.2,10.79-31.2,24-36,0,0,140.37,1.8,159.57-.61,14-1.72,29.62,30.4,47.76,55.58Z"/><g class="cls-155"><path class="cls-156" d="M1430.66,511.8c-12.55-.12-20.64-.23-20.64-.23-13.21,4.79-18.6,25.79-24,36,4.2,65.39,31.19,165,50.39,223.16s49.19,110.39,49.19,110.39,15.6-49.8,20.4-67.79-66-294-66-294Z"/></g><path class="cls-73" d="M1844.34,1167.56c-17.17,58.73-530.91,110.68-530.91,110.68s-.89-65.68-1.8-109.78-4.5-94.49-13.5-126-32.39-68.38-32.39-68.38-2.69,31.5-7.2,59.38-10.8,116.09-10.8,116.09-23.39,8.11-45,38.7-39.61,66.58-39.61,66.58-25.19-10.8-46.78-44.1-3.6-171,10.79-256.44,27.9-170.07,46.79-216S1287,632.15,1309.83,617.15c17-11.17,47.91-38.62,64.84-56.13-3.71,34.88,9.83,172,30.55,231.91,21.59,62.38,78,201.26,100.78,205.46s60.89-123,78.28-216c15-80.39,32.07-189.64,33.07-215.9,6.71,9.32,13.78,17.69,21.23,23,27.59,19.79,73.48,38.09,116.68,73.18s66.58,88.19,79.18,189,27,257.4,9.9,315.89Z"/><path class="cls-157" d="M1408.81,419.18c2.4,37.2,4.2,45.6,2.4,67.79a413.83,413.83,0,0,1-6.59,45s34.19,121.18,52.79,171S1506,813.32,1506,813.32s28.19-103.79,43.79-171.57,24.6-119.38,24.6-119.38-7.8-26.4-8.4-46.2.6-42,.6-42Z"/><path class="cls-126" d="M1437.61,185.22s-22,15.9-26.55,34.8,3.9,27-9.89,51.29-18.9,35.54-16.2,63.89,22,111.13,50.84,131.37,44.09,22.05,64.34,21.6,49.49-19.8,64.34-40,22.94-53.09,30.14-80.54,10.35-57.59,4.95-72-19.64-37-22.79-52.79c0,0-29.25-7.2-41.4-23.39s-22.66-20.16-43.79-19.2c-13.2.6-20.4,4.2-36.59-1.8-15.34-5.71-17.4-13.23-17.4-13.23Z"/><path class="cls-111" d="M1585,278.41a110.12,110.12,0,0,0-34.77-3.33c-5.72.32-11.47,1-17.31,1.79s-11.76,1.82-18.06,2.51a54.78,54.78,0,0,1,16.32-9.3,63.5,63.5,0,0,1,18.57-3.89,53.46,53.46,0,0,1,19.06,2.3,36.94,36.94,0,0,1,16.19,9.92Zm-178.23,0a110.06,110.06,0,0,1,34.76-3.33c5.72.32,11.47,1,17.32,1.79s11.76,1.82,18.06,2.51a54.78,54.78,0,0,0-16.32-9.3,63.5,63.5,0,0,0-18.57-3.89,53.46,53.46,0,0,0-19.06,2.3,36.94,36.94,0,0,0-16.19,9.92Z"/><path class="cls-153" d="M1435.54,313.6a4.17,4.17,0,1,0,4.17-4.32A4.25,4.25,0,0,0,1435.54,313.6Zm107.09,0a4.17,4.17,0,1,0,4.16-4.32,4.24,4.24,0,0,0-4.16,4.32Z"/><path class="cls-158" d="M1484.32,305.47l-11.71,62.41,24.27,5.64,18.64-4.77-10.4-64.15-20.8.87Z"/><path class="cls-159" d="M1501.75,370.4a5.06,5.06,0,1,1,9.84-2.38c0,.08,0,.17.05.25Zm-14.28,0a5.06,5.06,0,0,0-9.89-2.13Z"/><circle class="cls-137" cx="1431.99" cy="364.37" r="25.12"/><circle class="cls-137" cx="1548.67" cy="364.36" r="25.12"/><path class="cls-146" d="M1438.22,349.37a121.85,121.85,0,0,1-24.76-2.57c-19.82-4.2-19.78-33.35-19.77-42.93a14.3,14.3,0,0,1,13.1-14.29c8.33-.75,20.81-1.64,32.92-1.64,24.51,0,41.39,2.3,44.12,13.52,2.51,10.31.53,38.65-19,44.36a95.74,95.74,0,0,1-26.61,3.55Zm1.49-52c-11.76,0-23.93.87-32.08,1.6a4.88,4.88,0,0,0-4.46,4.88c0,20.6,4.09,31.92,12.25,33.65,7.65,1.62,27.52,4.79,46.73-.81,12.57-3.67,14.19-26,12.48-33-.46-1.88-4.79-6.28-34.92-6.28Zm112.37,52.26a102.66,102.66,0,0,1-28.16-3.81c-19.56-5.71-21.53-34.05-19-44.36,2.73-11.22,19.61-13.52,44.12-13.52,12.11,0,24.59.89,32.92,1.64a14.3,14.3,0,0,1,13,14.29c0,11.23-1.75,37.86-18.44,42.63a91.15,91.15,0,0,1-24.48,3.13ZM1549,297.41c-30.14,0-34.46,4.4-34.92,6.29-1.72,7.05-.09,29.36,12.47,33,14.73,4.29,33.78,4.56,47.42.66,8-2.29,11.59-18.48,11.57-33.5a4.88,4.88,0,0,0-4.47-4.88C1573,298.28,1560.78,297.41,1549,297.41Z"/><path class="cls-146" d="M1398.63,300.86c-7.49-3.18-19.15-5.53-21.56-1.64l-8-5c7.77-12.55,30.74-3.2,33.33-2.09Zm83.09,9.4-2.74-9.07c15.24-4.59,30.85-.9,31.51-.74l-2.23,9.2C1508.13,309.62,1494.43,306.43,1481.72,310.26Zm131-3.19a2.37,2.37,0,0,0-.93-1.78c-1.3-1.11-6-3.54-21-2.27l-.8-9.44c14.06-1.19,22.94.24,28,4.49a11.83,11.83,0,0,1,4.24,8.26Z"/><path class="cls-129" d="M1386.76,297.43c-16.74-8.33-35-2.41-38.62,20.62s2.41,47.81,20.32,56,24.82-.26,24.82-.26Z"/><path class="cls-118" d="M1391.39,351.63l-3-34.84c-2-1.72-10.13-8.21-18.56-5.36-9.68,3.28-11.27,21.79-5.9,32.36,5.3,10.38,15.52,12.6,27.46,7.84Z"/><path class="cls-129" d="M1594.93,301c16.16-7.17,34.07,0,38.08,23.34s-1.36,47.71-18.66,54.64-24.21-2-24.21-2Z"/><path class="cls-118" d="M1591.53,354.9l2.18-34.67c1.88-1.59,9.71-7.53,18-4.08,9.51,4,11.44,22.6,6.42,32.82-4.94,10-14.86,11.54-26.6,5.93Z"/><g class="cls-160"><path class="cls-129" d="M1404.32,367a42.88,42.88,0,0,0,5.3,5.31l5.61,4.92c3.71,3.36,7.49,6.82,10.57,11.45.39.55.72,1.21,1.08,1.83a13.55,13.55,0,0,1,.95,2c.14.35.29.69.42,1.06l.3,1.17c.09.38.21.8.27,1.14l.14,1c.34,2.55.58,5.09.69,7.63a74.8,74.8,0,0,1-.74,15.32,113.46,113.46,0,0,1-4.53-14.55c-.62-2.42-1.16-4.85-1.73-7.23l-.21-.9c-.07-.27-.15-.44-.22-.67l-.21-.64-.32-.67a7.73,7.73,0,0,0-.71-1.37,15.19,15.19,0,0,0-.85-1.39c-2.47-3.77-5.79-7.51-8.81-11.56a59.9,59.9,0,0,1-4.29-6.43,19.94,19.94,0,0,1-2.71-7.42Z"/></g><g class="cls-160"><path class="cls-129" d="M1573.19,367a20.19,20.19,0,0,1-2.72,7.38,59.9,59.9,0,0,1-4.29,6.43c-3,4.05-6.34,7.79-8.8,11.56a15.29,15.29,0,0,0-.86,1.39,10.46,10.46,0,0,0-.71,1.37l-.32.67-.21.64c-.07.23-.15.4-.22.67l-.21.9c-.56,2.38-1.11,4.81-1.73,7.23a113.46,113.46,0,0,1-4.53,14.55,74.09,74.09,0,0,1-.73-15.32q.17-3.81.68-7.63l.14-1c.06-.34.18-.76.27-1.14l.31-1.17c.12-.37.27-.71.41-1.06a12.88,12.88,0,0,1,1-2,20.92,20.92,0,0,1,1.08-1.83c3.08-4.63,6.85-8.09,10.57-11.45l5.6-4.92a42.32,42.32,0,0,0,5.27-5.27Z"/></g><path class="cls-118" d="M1449.91,400.59a37.54,37.54,0,0,1,11.21-2.47c3.73-.32,7.28-.39,10.73-.53,6.88-.24,13.61-.47,20.51-.57s13.77-.06,20.86.36c3.54.21,7.14.49,10.8,1a43.16,43.16,0,0,1,11.07,2.8c-3.53,1.66-6.81,3.13-10.25,4.47a95.57,95.57,0,0,1-10.45,3.36,91,91,0,0,1-21.85,2.88,77.25,77.25,0,0,1-22.18-2.75A73.61,73.61,0,0,1,1460,405.3c-3.36-1.51-6.56-3-10.09-4.71Z"/><path class="cls-161" d="M1535.09,401.19a43.16,43.16,0,0,0-11.07-2.8c-3.66-.52-7.26-.8-10.8-1-7.09-.42-14-.43-20.86-.36s-13.63.33-20.51.57c-3.45.14-7,.21-10.73.53a37.54,37.54,0,0,0-11.21,2.47c11.7.3,18.29,3.9,39.89,3.9s36.59-3.31,45.29-3.31Z"/><g class="cls-162"><path class="cls-163" d="M1185.81,718.51A91.12,91.12,0,0,0,1174,738.33c-18.89,45.9-32.39,130.47-46.79,216s-32.39,223.16-10.79,256.44,46.78,44.1,46.78,44.1,18-36,39.61-66.58,45-38.7,45-38.7,6.29-88.19,10.8-116.09,7.2-59.38,7.2-59.38c-21.6-45.89,4.5-109.78,9.9-124.18,5.14-13.94-46.64-89-89.9-131.43Z"/></g><path class="cls-164" d="M1247.74,1149.56s45.89,27.89,69.29,43.19,116.08,43.2,116.08,43.2l-17.1,82.78s-54.89,0-125.08-18a763.61,763.61,0,0,1-127.78-45.89s1.81-46.79,22.5-74.69,62.09-30.59,62.09-30.59Z"/><path class="cls-146" d="M1388.42,374.79a9,9,0,1,1-9-9A9,9,0,0,1,1388.42,374.79Zm225,3.6a9,9,0,1,1-9-9A9,9,0,0,1,1613.38,378.39Z"/><g class="cls-165"><path class="cls-166" d="M1569.59,511c-2.72.35-7.88.6-14.74.79L1506,813.32l-20.4,67.79L1515,922.5s16.19-35.4,25.79-73.79,25.8-120.58,35.4-172.17c8.29-44.58,16.58-116,16.36-147-8.16-11.44-15.77-19.47-23-18.54Z"/></g><path class="cls-110" d="M1614.58,765.92H1704v62.39h-89.38Z"/><path class="cls-167" d="M1651.17,749.13h14.4v25.2h-14.4Z"/><g class="cls-168"><path class="cls-169" d="M1716.18,776c-7.76,50.5-.52,114.42,4,178.31s9.45,175,8.55,180.42-23.85,22.5-47.24,39.6c-25.68,18.76-197.07,72.43-197.07,72.43S1560,706.85,1597.8,667.26s86.36-7.78,86.36-7.78Z"/></g><path class="cls-111" d="M1752.64,891.36c-5.44-11.78-13.65-14.75-13.65-14.75l-266.74,60.57s-29.07,142.73-42.29,210.13c-11.57,59-39,194.93-39,194.93l27.09,8.59,227.31-53.53,109-392.06c-.51.1.93-8.15-1.72-13.88Z"/><path class="cls-170" d="M1477.76,943.12s-31.28,144.72-44.49,212.11c-11.57,59-37,189-37,189l21.81,6.61L1493.4,960.3s249.77-57.48,255.72-58.58c-3.53-11.46-9.69-17.63-9.69-17.63Z"/><path class="cls-73" d="M1845.54,1163.51c-7.81,35.39-36.59,96.73-102,120.13-5.62,2-13.54,4.37-23.08,6.93,4-14,3.07-31.19-.31-53.73-4.7-31.27-18.22-45.57-37-61.17l8.23-4.22c56.43-28.79,127.17-21,154.16-7.94Z"/><path class="cls-126" d="M1720.48,1290.57c-53.64,14.38-157.76,35.08-181.71,34.7-28.2-.43-103.52-27.75-122.91-35.24s-26.43-8.81-26.43-16.74-2.64-11-2.64-17.18,5.29-12.77,4.84-18.94-3.08-19,0-27.31,7-11.89,8.81-16.3.45-22.91,7-30.4S1430,1147.3,1430,1147.3l-8.8,39.66s1.31,6.15,11.44,9.24,51.54,10.77,52.84,11c-.41-.68-7.2-11.25-12.75-18.93-5.72-7.93-15.86-23.34-15-30,.37-2.7,2.34-4.66,4.56-6a8.39,8.39,0,0,1,10.57,1.39c3,3.22,7.29,7.47,10.86,9.5,6.17,3.53,20.27,11.9,28.63,21.15s21.15,27.75,25.11,37,19.39,7,37.89,5.29c17.6-1.68,55.61-24,107.8-50.93,20.83,7.18,38.61,21.44,46,52.18,6.31,26.09,0,46.79-8.67,62.72Z"/><path class="cls-111" d="M344.4,787.6l4-3.05,150.19,8.53,8.72,7.63S527.65,851.57,529.1,885,487,1158.15,487,1158.15l-82.82,53.77L363.5,1178.5s-48.68-307.32-48.68-310.22S344.4,787.6,344.4,787.6Z"/><path class="cls-110" d="M507.34,800.71s88.27,64.3,111.15,80.64,37,33.79,45.77,69.75,21.8,167.82,20.71,213.59-2.18,97-41.41,100.26-104.62,3.27-166.74-17.43-80.64-29.43-80.64-29.43l64.3-73s8.71-79.19,22.88-131.5,23.51-104.36,26.16-138c2.9-37.1-2.18-74.88-2.18-74.88Z"/><g class="cls-171"><path class="cls-172" d="M504.44,916.36a960,960,0,0,1-21.08,97.22c-14.17,52.31-22.88,131.5-22.88,131.5l-.78.88c30.78,2.74,123.92,6.7,123.92-3.79,0-12.59-11.14-77.49-11.62-94s5.32-41.65,19.85-58.12c0,0,17.44-48.92-3.87-85.73-14.31-24.67-51.53-13.15-83.54,12Z"/></g><path class="cls-111" d="M505.16,668.49c7.26,18.89,11.14,33.42,8.23,59.09-2.7,23.82,14.53,41.17,30.51,32,0,0,5.33,18.89-25.67,32.45s-58.12,6.78-58.12,6.78l-3.87-96.38Z"/><path class="cls-129" d="M360.28,594.79c-13.84-8.45-30.11-4.81-35.08,14.68s-1.69,41.22,13.17,49.63,21.52,1.72,21.52,1.72Z"/><path class="cls-118" d="M360,641.67l.18-30.13c-1.57-1.63-8.12-7.84-15.65-6-8.64,2.06-11.48,17.81-7.67,27.31C340.61,642.12,349.29,644.83,360,641.67Z"/><path class="cls-129" d="M505.14,618.94c15.9-3.22,29.94,5.76,28,25.77S520.61,684,503.77,686.87,483,681.14,483,681.14Z"/><path class="cls-118" d="M489.39,663.1l10.12-28.38c2-1,10.32-4.6,16.78-.35,7.42,4.89,4.71,20.67-2.12,28.29s-15.78,7.06-24.78.44Z"/><path class="cls-173" d="M421.24,886.8c10.9,1.09,77.38-93.72,77.38-93.72-4.36-2.54-22.52-16.34-24.7-30.15s4.36-56.66,4.36-56.66l-114.79-10.9c0,26.06,5,73-15.06,89.18A111.42,111.42,0,0,1,357,799.62c15.21,32.69,53.35,86.09,64.24,87.18Z"/><path class="cls-126" d="M350.17,595.84c-4.08,30-3.88,56.18,1.45,79.91S374.38,746,416,748.89s64.9-36.33,72.65-49.89,30-78,30-78,17.92-79.43-34.39-97.35S359.85,524.64,350.17,595.84Z"/><circle class="cls-137" cx="373.29" cy="649.26" r="19.62"/><circle class="cls-137" cx="472.46" cy="661.96" r="19.62"/><path class="cls-136" d="M451.41,683.82c-1.36,7.91-16.58,17.88-34.07,15.66s-29.9-15.89-29.3-23.7c.67-8.54,15.07-5.14,32.57-2.92S453,674.34,451.41,683.82Z"/><path class="cls-110" d="M449.75,682.76c-1.09,4.75-15.26,9.74-31.27,7.71s-28.85-10.14-28.73-14.9c.13-5.19,13.79,2,29.8,4S450.94,677.59,449.75,682.76Z"/><path class="cls-174" d="M431,606.62l-24.55,42.11a4.86,4.86,0,0,0,1.92,6.6,5,5,0,0,0,1.6.54l26.94,4.19.24-52.69Z"/><path class="cls-135" d="M426.11,655.56a4,4,0,0,1,7.9,1.32Z"/><path class="cls-146" d="M399.25,639a63.33,63.33,0,0,1-8.92-.69c-8.66-1.24-26.7-3.82-27.35-22-.51-14.12,3-23.26,3.16-23.64a3.62,3.62,0,0,1,2.58-2.21,86.63,86.63,0,0,1,30.76-.13c16.67,2.95,26.5,10.19,26.91,10.49a3.69,3.69,0,0,1,1.35,2c.83,3.13-5.57,24.84-10,29.73-3.89,4.31-10.09,6.45-18.49,6.45Zm-27-41.84a62.43,62.43,0,0,0-2.07,18.9c.36,10.11,8.36,13.28,21.17,15.11,10.36,1.49,17.63.29,21-3.45,2.87-3.17,6.82-16.88,8-22.23a65.46,65.46,0,0,0-22.12-8,82.87,82.87,0,0,0-26-.32ZM422,606.55a3.27,3.27,0,0,0,1.13.61,3.72,3.72,0,0,1-1-.54Zm51.57,43.14a71.89,71.89,0,0,1-10.25-.91c-13-1.87-21.33-6.31-24.68-13.22-2.89-5.94-2.93-28.57-1.26-31.34a3.73,3.73,0,0,1,1.86-1.53c.48-.18,11.94-4.36,28.77-2.51A86.65,86.65,0,0,1,497.47,609a3.56,3.56,0,0,1,1.86,2.84c0,.41.84,10.17-3.61,23.58-3.93,11.83-13.66,14.32-22.18,14.32ZM443.7,608.85c-.41,5.45-.47,19.72,1.39,23.56,2.21,4.56,8.86,7.75,19.22,9.23,12.8,1.84,21.38,1,24.56-8.56a61.8,61.8,0,0,0,3.33-18.71,82.74,82.74,0,0,0-25-7,65.48,65.48,0,0,0-23.5,1.48Zm-1.86.55h-.12a3.73,3.73,0,0,1-1.14.23A3.6,3.6,0,0,0,441.84,609.4Z"/><path class="cls-146" d="M370.49,596.34a3.61,3.61,0,0,1-3.11-1.78s-1.88-3.17-3.76-5.69c-.86-1.14-4.2-3.24-6.07-3-.26,0-.52.07-.83.87A3.61,3.61,0,0,1,350,584.1a8.11,8.11,0,0,1,6.58-5.38c4.94-.66,10.71,3,12.81,5.82s4.12,6.21,4.2,6.35a3.6,3.6,0,0,1-1.25,4.93,3.56,3.56,0,0,1-1.85.51Zm158.1,31.26a3.57,3.57,0,0,1-1.07-.17,3.61,3.61,0,0,1-2.38-4.51c.58-1.87.12-2.49,0-2.7-2.21-3-13.25-3.05-20.56-3.08-3.18,0-6.18,0-8.83-.2a3.61,3.61,0,0,1,.21-7.22l.26,0c2.43.16,5.32.17,8.39.19,10.81,0,22,.09,26.35,6,1.26,1.71,2.47,4.68,1.1,9.1a3.6,3.6,0,0,1-3.47,2.57Zm-88.12-17.93a3.54,3.54,0,0,1-1.33-.26c-3.82-1.51-8.94-2.23-14.81-2.07a3.61,3.61,0,0,1-.19-7.21c6.93-.19,12.87.69,17.65,2.58a3.61,3.61,0,0,1-1.32,7Z"/><path class="cls-115" d="M388.71,611.33a4.08,4.08,0,1,0,4.08-4.23A4.16,4.16,0,0,0,388.71,611.33Zm74.59,12.11a4.08,4.08,0,1,0,4.08-4.23A4.16,4.16,0,0,0,463.3,623.44Z"/><path class="cls-111" d="M498.3,607.76a86,86,0,0,0-12.1-4.64,85.13,85.13,0,0,0-12.15-2.54c-4.11-.56-8.29-.9-12.55-1.13s-8.61-.34-13.18-.72a39.73,39.73,0,0,1,12.88-4.35,46.19,46.19,0,0,1,13.74-.19,38.91,38.91,0,0,1,13.23,4.28,27,27,0,0,1,10.13,9.29Zm-75.92-10.18a87.19,87.19,0,0,0-12.1-4.63,85.13,85.13,0,0,0-12.15-2.54c-4.11-.57-8.29-.9-12.55-1.13s-8.61-.34-13.18-.72a39.73,39.73,0,0,1,12.88-4.35A46.4,46.4,0,0,1,399,584a38.89,38.89,0,0,1,13.23,4.27A27.19,27.19,0,0,1,422.38,597.58Z"/><path class="cls-111" d="M372.45,592c21.41-14.77,47.95-2.42,82.34-20.83s45-33.41,45-33.41-4.36,19.37.48,33.41,15,27.13,15,38.75-6.78,37.78-6.78,37.78,19.37-26.15,22.76-37.78,5.33-38.26-1.94-56.67-20.82-25.18-22.76-30S494.49,489,455.69,481.11c-31-6.3-71.19,5.33-90.57,31-16.69,22.11-20.82,39.71-24.21,63s-12.6,39.23-20.83,46S295,637.49,295,637.49s22.28-.49,36.81-6.3S358.4,601.65,372.45,592Z"/><path class="cls-110" d="M184.77,921.68c-19.62,43.59-22.89,128.59-22.89,179.81s7.63,149.29,38.14,160.19,97,6.54,131.86,3.27,94.81-12,94.81-12l-14.16-112.24h-12s-26.16-98.08-39.23-134c-11.44-31.51-21.21-159.82-16.9-219.11-28.66,20.8-141,92.67-159.63,134.08Z"/><g class="cls-175"><path class="cls-176" d="M400.54,1140.72s-26.16-98.08-39.23-134c-6.11-16.81-11.75-61.24-15-108-48.3-14.51-61.63-2.65-70.71,10.06-9.69,13.56-15.5,66.84-15.5,66.84,10.66,20.34,18.41,90.57,18.89,103.16s2.42,75.08,2.42,75.08,98.81-9,104.62-9.81A132.38,132.38,0,0,0,400.54,1140.72Z"/></g><g class="cls-177"><path class="cls-178" d="M281.39,1153.8c-20.34.48-55.21,1.93-74.1,10.65,0,0-63.45-77-31.48-133.19s94-12.11,94-12.11Z"/></g><path class="cls-126" d="M412.53,1140.72c26.51-1.45,94.81-16,103.52-14.53s67.57,16,67.57,16l1.45,29.79s-24,.72-46.49,9.44-105.35,45.77-116.25,47.95Zm-187.08-79.55a10.51,10.51,0,0,0,5.09,6.53c4.35,2.55,13.07,3.64,17.8,5.82s16.7,9.08,16.7,9.08l-21-7.27-23.62-2.54s.73,6.54,5.09,9.08,18.89,5.09,18.89,5.09l20.32,13-23.61-10.53H224s-2.91,3.27,0,5.81,17.07,6.18,17.07,6.18l13.44,9.08-17.8-8-9.08.36s0,5.81,6.54,8.72,18.89,8,23.61,13.08,17.44,23.24,23.61,29.06C326.8,1150.89,386,1144,386,1144l-65-27.25s-23.14-33.83-35.6-42.13c-1.09-.73-21.68-10.18-29.67-11.39S225.45,1061.17,225.45,1061.17Z"/><g class="cls-179"><path class="cls-180" d="M585.07,1172c14.53,1.69,55.7,2.18,68.78,6,0,0,11.62-85.24-19.86-111.4S574.9,1053,574.9,1053s6.3,55.7,8.24,68.78,1.93,50.18,1.93,50.18Z"/></g><path class="cls-138" d="M340.6,1036.1c15.48,26.66,42.5,64.85,53.2,79.77-8.65-31.52-23.6-84.73-32.49-109.19C349.86,975.2,340.09,846.89,344.4,787.6c-8.4,6.09-24,16.57-42.27,29.38-9.21,28.88-16,72-16,72l36,13.08-22.89,31.6S321,1002.32,340.6,1036.1ZM509.52,875.54c-2.65,33.68-12,85.73-26.16,138-8.57,31.64-15.14,73.12-19,101,10.24-23.76,31.4-71.85,47.34-101.32,21.79-40.33,43.59-75.2,43.59-75.2L529.13,908.6l33.78-10.9a767.71,767.71,0,0,0-23.93-74l-31.64-23s5.08,37.79,2.18,74.84Z"/><path class="cls-111" d="M341.13,1018a21.4,21.4,0,1,1-17.93-24.38h0A21.4,21.4,0,0,1,341.13,1018Z"/><circle class="cls-138" cx="319.93" cy="1014.81" r="18.61" transform="translate(-173.33 72) rotate(-10.12)"/><path class="cls-146" d="M537.06,1102.6h-.18c-29.77-.09-44.5-70.13-50.05-96.5-.49-2.34-.9-4.32-1.25-5.86a2.19,2.19,0,0,1,4.26-1c.35,1.55.77,3.55,1.27,5.92,4.83,23,19.55,93,45.78,93h.17c16.3,0,31.11-7.35,31.25-7.42a2.19,2.19,0,1,1,2,3.9c-.67.36-15.89,8-33.25,8Z"/><path class="cls-146" d="M523,1105.23c-7.19,0-14.22-1.71-19.48-3-1.15-.28-2.23-.55-3.25-.78a2.18,2.18,0,1,1,1-4.25l3.31.78c13.69,3.33,34.37,8.35,42.66-14.2,7.36-20,11.13-48.75,14.16-71.84.9-6.81,1.74-13.24,2.56-18.44a2.19,2.19,0,0,1,4.36.44,2,2,0,0,1,0,.24c-.82,5.15-1.66,11.55-2.55,18.33-3.06,23.3-6.86,52.31-14.39,72.78-5.87,15.9-17.29,19.94-28.34,19.94Z"/><path class="cls-111" d="M319.67,1018.41a4,4,0,0,1-4-3.45,663.49,663.49,0,0,1-5.45-69.13c-.07-2.8-.16-5.84-.27-9.1-1.26-39.77-3.6-113.8,37.59-157.54a4,4,0,0,1,5.86,5.52h0C314.51,826,316.79,897.87,318,936.48c.11,3.28.2,6.35.27,9.16a648.07,648.07,0,0,0,5.38,68.18,4,4,0,0,1-3.37,4.54h0a3.64,3.64,0,0,1-.57,0ZM526.6,921h-.22a4,4,0,0,1-3.8-4.19v0c0-.26,1.4-26.49,0-52.36l-.09-1.64c-1.36-25.46-2.65-49.5-30.22-74.06a4,4,0,1,1,5.35-6h0c30.07,26.79,31.51,53.66,32.9,79.64l.09,1.64c1.42,26.31,0,53,0,53.22a4,4,0,0,1-4,3.79Z"/><path class="cls-111" d="M487.12,1001.93a4,4,0,0,1-3.89-3c-6.71-26.55-3-53,9.63-69,8.66-10.95,21-16.62,35.58-16.42a33,33,0,0,1,24.75,11c19.73,21.56,16.55,67.47,16.41,69.42a4,4,0,0,1-8-.6c0-.44,3-44.41-14.33-63.39a24.9,24.9,0,0,0-18.93-8.41c-12.19-.16-22,4.32-29.15,13.37-11.19,14.1-14.27,37.84-8.19,62a4,4,0,0,1-2.88,4.87h0A3.9,3.9,0,0,1,487.12,1001.93Z"/><path class="cls-125" d="M573.93,1089.54c2,4.83,1,6.73-4,8.22a42.32,42.32,0,0,1-6.94,1.6l-2.62-7s4.77-3.9,7.77-4.4c2.71-.48,5-.27,5.79,1.58Zm-81.56,5.79c-1.5,5-.24,6.79,4.82,7.75a42,42,0,0,0,7.07.85l1.85-7.26s-5.16-3.38-8.2-3.56c-2.7-.11-5,.29-5.54,2.22Z"/></g></svg>