<svg xmlns="http://www.w3.org/2000/svg" xmlns:xlink="http://www.w3.org/1999/xlink" viewBox="0 0 610.42 789.21"><defs><style>.cls-1{mask:url(#mask);filter:url(#luminosity-noclip-6);}.cls-10,.cls-18,.cls-2,.cls-20,.cls-28,.cls-39,.cls-4,.cls-42,.cls-45,.cls-6,.cls-8{mix-blend-mode:multiply;}.cls-2{fill:url(#linear-gradient);}.cls-3{mask:url(#mask-2);filter:url(#luminosity-noclip-7);}.cls-4{fill:url(#linear-gradient-2);}.cls-5{mask:url(#mask-3);filter:url(#luminosity-noclip-8);}.cls-6{fill:url(#linear-gradient-3);}.cls-7{mask:url(#mask-4);filter:url(#luminosity-noclip-9);}.cls-8{fill:url(#linear-gradient-4);}.cls-9{mask:url(#mask-5);filter:url(#luminosity-noclip-10);}.cls-10{fill:url(#linear-gradient-5);}.cls-11{fill:none;}.cls-12{isolation:isolate;}.cls-13{clip-path:url(#clip-path);}.cls-14{fill:#5888f8;}.cls-15{clip-path:url(#clip-path-2);}.cls-16{fill:#fff;}.cls-17{mask:url(#mask-6);}.cls-18{fill:url(#linear-gradient-6);}.cls-19{mask:url(#mask-7);}.cls-20{fill:url(#linear-gradient-7);}.cls-21{fill:#5a6566;}.cls-22{fill:#9ea9b4;}.cls-23{fill:#493ddd;}.cls-24{fill:#1d1d1b;}.cls-25{fill:#f3f4fb;}.cls-26{fill:#937efc;}.cls-27{mask:url(#mask-8);}.cls-28{opacity:0.63;fill:url(#linear-gradient-8);}.cls-29{fill:#1e5ef5;}.cls-30{fill:url(#linear-gradient-9);}.cls-31{fill:#f1a17f;}.cls-32{fill:#f68987;}.cls-33,.cls-37{fill:#e87979;}.cls-34{fill:#06233f;}.cls-35{fill:url(#linear-gradient-10);}.cls-36,.cls-37{opacity:0.55;}.cls-38{mask:url(#mask-9);}.cls-39{opacity:0.22;fill:url(#linear-gradient-11);}.cls-40{fill:#ec0d69;}.cls-41{mask:url(#mask-10);}.cls-42{fill:url(#linear-gradient-12);}.cls-43{fill:#2b325c;}.cls-44{fill:#e11d48;}.cls-45{fill:#d3d8f2;}.cls-46{filter:url(#luminosity-noclip-5);}.cls-47{filter:url(#luminosity-noclip-4);}.cls-48{filter:url(#luminosity-noclip-3);}.cls-49{filter:url(#luminosity-noclip-2);}.cls-50{filter:url(#luminosity-noclip);}</style><filter id="luminosity-noclip" x="371.11" y="-10705.01" width="131.94" height="32766" filterUnits="userSpaceOnUse" color-interpolation-filters="sRGB"><feFlood flood-color="#fff" result="bg"/><feBlend in="SourceGraphic" in2="bg"/></filter><mask id="mask" x="371.11" y="-10705.01" width="131.94" height="32766" maskUnits="userSpaceOnUse"><g class="cls-50"/></mask><linearGradient id="linear-gradient" x1="388.12" y1="537.04" x2="447.01" y2="620.13" gradientUnits="userSpaceOnUse"><stop offset="0"/><stop offset="1" stop-color="#fff"/></linearGradient><filter id="luminosity-noclip-2" x="123.89" y="-10705.01" width="133.61" height="32766" filterUnits="userSpaceOnUse" color-interpolation-filters="sRGB"><feFlood flood-color="#fff" result="bg"/><feBlend in="SourceGraphic" in2="bg"/></filter><mask id="mask-2" x="123.89" y="-10705.01" width="133.61" height="32766" maskUnits="userSpaceOnUse"><g class="cls-49"/></mask><linearGradient id="linear-gradient-2" x1="205.58" y1="535.77" x2="98.93" y2="586.8" xlink:href="#linear-gradient"/><filter id="luminosity-noclip-3" x="250.46" y="-10705.01" width="161.24" height="32766" filterUnits="userSpaceOnUse" color-interpolation-filters="sRGB"><feFlood flood-color="#fff" result="bg"/><feBlend in="SourceGraphic" in2="bg"/></filter><mask id="mask-3" x="250.46" y="-10705.01" width="161.24" height="32766" maskUnits="userSpaceOnUse"><g class="cls-48"/></mask><linearGradient id="linear-gradient-3" x1="320.34" y1="388.96" x2="336.04" y2="280.02" xlink:href="#linear-gradient"/><filter id="luminosity-noclip-4" x="292.61" y="-10705.01" width="54.15" height="32766" filterUnits="userSpaceOnUse" color-interpolation-filters="sRGB"><feFlood flood-color="#fff" result="bg"/><feBlend in="SourceGraphic" in2="bg"/></filter><mask id="mask-4" x="292.61" y="-10705.01" width="54.15" height="32766" maskUnits="userSpaceOnUse"><g class="cls-47"/></mask><linearGradient id="linear-gradient-4" x1="318.4" y1="410.87" x2="333.31" y2="322.04" xlink:href="#linear-gradient"/><filter id="luminosity-noclip-5" x="493.73" y="-10705.01" width="63.68" height="32766" filterUnits="userSpaceOnUse" color-interpolation-filters="sRGB"><feFlood flood-color="#fff" result="bg"/><feBlend in="SourceGraphic" in2="bg"/></filter><mask id="mask-5" x="493.73" y="-10705.01" width="63.68" height="32766" maskUnits="userSpaceOnUse"><g class="cls-46"/></mask><linearGradient id="linear-gradient-5" x1="539.82" y1="594.64" x2="506.46" y2="636.84" xlink:href="#linear-gradient"/><clipPath id="clip-path"><rect class="cls-11" y="-925.23" width="610.42" height="789.21"/></clipPath><clipPath id="clip-path-2"><rect class="cls-11" width="610.42" height="789.21"/></clipPath><filter id="luminosity-noclip-6" x="371.11" y="455.96" width="131.94" height="233.85" filterUnits="userSpaceOnUse" color-interpolation-filters="sRGB"><feFlood flood-color="#fff" result="bg"/><feBlend in="SourceGraphic" in2="bg"/></filter><mask id="mask-6" x="371.11" y="455.96" width="131.94" height="233.85" maskUnits="userSpaceOnUse"><g class="cls-1"><path class="cls-2" d="M481.46,493.52c8.51,33.37,18.32,115.15,18.32,115.15l3.27,28.14-130.85,53s-5.89-208.06,9.81-229S481.46,493.52,481.46,493.52Z"/></g></mask><linearGradient id="linear-gradient-6" x1="388.12" y1="537.04" x2="447.01" y2="620.13" gradientUnits="userSpaceOnUse"><stop offset="0" stop-color="#fff"/><stop offset="1" stop-color="#ddebf0"/></linearGradient><filter id="luminosity-noclip-7" x="123.89" y="414.95" width="133.61" height="231.18" filterUnits="userSpaceOnUse" color-interpolation-filters="sRGB"><feFlood flood-color="#fff" result="bg"/><feBlend in="SourceGraphic" in2="bg"/></filter><mask id="mask-7" x="123.89" y="414.95" width="133.61" height="231.18" maskUnits="userSpaceOnUse"><g class="cls-3"><path class="cls-4" d="M201.75,638.28l22.9,7.85,32.72-163.57s4.58-62.16-38.6-67.39-70,87-70,87c-2.62,23.55-24.87,108.61-24.87,108.61s18.32,7.2,30.1,11.12S201.75,638.28,201.75,638.28Z"/></g></mask><linearGradient id="linear-gradient-7" x1="205.58" y1="535.77" x2="98.93" y2="586.8" gradientUnits="userSpaceOnUse"><stop offset="0" stop-color="#fff"/><stop offset="1" stop-color="#d3d8f2"/></linearGradient><filter id="luminosity-noclip-8" x="250.46" y="223.46" width="161.24" height="196.1" filterUnits="userSpaceOnUse" color-interpolation-filters="sRGB"><feFlood flood-color="#fff" result="bg"/><feBlend in="SourceGraphic" in2="bg"/></filter><mask id="mask-8" x="250.46" y="223.46" width="161.24" height="196.1" maskUnits="userSpaceOnUse"><g class="cls-5"><path class="cls-6" d="M252.05,385.07a144.51,144.51,0,0,0,13.43,7.52c1.41.69,4.24,1.76,5.66,2.28s1,.36,0,0l-5.74-2c2.11.73,4.16,1.67,6.26,2.45,4.93,1.85,9.94,3.5,15,5,19.82,5.88,40.25,9.39,60.65,12.52,15.52,2.38,31.06,4.57,46.62,6.75,8.31-44.5,15.72-70.25,17.2-93.39,2-30.75-1.64-56.59-2.95-60.19s-9.16-14.4-9.16-14.4L294.34,223.46c-8.84.33-8.51,1-19.63,14.07s-17.34,17.66-17.34,17.66-5.24,37-5.89,73c-.31,16.74-.47,35.77-1,55.86C251,384.37,251.51,384.73,252.05,385.07Z"/></g></mask><linearGradient id="linear-gradient-8" x1="320.34" y1="388.96" x2="336.04" y2="280.02" gradientUnits="userSpaceOnUse"><stop offset="0" stop-color="#fff"/><stop offset="1" stop-color="#9b9fa2"/></linearGradient><linearGradient id="linear-gradient-9" x1="289.43" y1="225.04" x2="420.29" y2="225.04" gradientUnits="userSpaceOnUse"><stop offset="0" stop-color="#f1a17f"/><stop offset="1" stop-color="#e87979"/></linearGradient><linearGradient id="linear-gradient-10" x1="-1790.03" y1="-7836.14" x2="-1790.03" y2="-7810.87" gradientTransform="matrix(-1.75, -0.29, -0.32, 1.92, -5255.74, 14608.19)" xlink:href="#linear-gradient-9"/><filter id="luminosity-noclip-9" x="292.61" y="321.28" width="54.15" height="93.81" filterUnits="userSpaceOnUse" color-interpolation-filters="sRGB"><feFlood flood-color="#fff" result="bg"/><feBlend in="SourceGraphic" in2="bg"/></filter><mask id="mask-9" x="292.61" y="321.28" width="54.15" height="93.81" maskUnits="userSpaceOnUse"><g class="cls-7"><path class="cls-8" d="M323.7,321.28s-17.21,47.05-31.09,88.93l51,4.88c2.37-49.21,3.17-91.36,3.17-91.36C340.14,325.86,330,325.53,323.7,321.28Z"/></g></mask><linearGradient id="linear-gradient-11" x1="318.4" y1="410.87" x2="333.31" y2="322.04" xlink:href="#linear-gradient-8"/><filter id="luminosity-noclip-10" x="493.73" y="576.61" width="63.68" height="61.46" filterUnits="userSpaceOnUse" color-interpolation-filters="sRGB"><feFlood flood-color="#fff" result="bg"/><feBlend in="SourceGraphic" in2="bg"/></filter><mask id="mask-10" x="493.73" y="576.61" width="63.68" height="61.46" maskUnits="userSpaceOnUse"><g class="cls-9"><path class="cls-10" d="M505,637.62c4.9-.81,16.68,1.15,19.62.17s20.12-9.33,26.5-10.8,13.25-38.27-8.83-48.58-48.58,27-48.58,27Z"/></g></mask><linearGradient id="linear-gradient-12" x1="539.82" y1="594.64" x2="506.46" y2="636.84" xlink:href="#linear-gradient-7"/></defs><g class="cls-12"><g id="Layer_1" data-name="Layer 1"><g class="cls-13"><rect class="cls-14" x="126.04" y="-429.36" width="368.57" height="452.41"/></g><g class="cls-15"><rect class="cls-16" x="111.6" y="490.33" width="362.83" height="452.41"/><path class="cls-16" d="M270,246.69c-10.3,1-20.61,8.34-27,13.25s-49.07,26.5-72.13,36.8S112,323.73,93.31,361,52.58,456.71,36.87,522.47-.42,648.09,18.23,670.67,120.29,733.48,134,733.48s40.24-24.54,40.24-24.54L200.77,653l277.75,51s-20.61,63.8-2,63.8,62.82-6.87,86.37-22.57,38.28-49.08,36.31-88.33-17.66-160-36.31-212-30.42-81.46-50-103S454.31,300,434,285.62s-26.83-32.06-47.11-34.68S270,246.69,270,246.69Z"/><g class="cls-17"><path class="cls-18" d="M481.46,493.52c8.51,33.37,18.32,115.15,18.32,115.15l3.27,28.14-130.85,53s-5.89-208.06,9.81-229S481.46,493.52,481.46,493.52Z"/></g><g class="cls-19"><path class="cls-20" d="M201.75,638.28l22.9,7.85,32.72-163.57s4.58-62.16-38.6-67.39-70,87-70,87c-2.62,23.55-24.87,108.61-24.87,108.61s18.32,7.2,30.1,11.12S201.75,638.28,201.75,638.28Z"/></g><circle class="cls-21" cx="193.12" cy="478.78" r="20.82" transform="translate(-322.5 452.88) rotate(-65.16)"/><circle class="cls-16" cx="193.12" cy="478.78" r="18.1" transform="translate(-320.84 430) rotate(-62.61)"/><path class="cls-22" d="M454.85,572h-.19c-26.38-.08-40.39-50.63-49.65-94.66-.48-2.27-.88-4.2-1.22-5.69a3.13,3.13,0,1,1,6.11-1.37c.34,1.51.75,3.46,1.24,5.77,4.66,22.17,18.84,89.61,43.54,89.69h.17c15.65,0,29.8-7,29.94-7.11a3.13,3.13,0,0,1,2.82,5.59C487,564.52,472,572,454.85,572Z"/><path class="cls-22" d="M441.28,574.56c-7.12,0-14.09-1.69-19.29-3l-3.15-.75a3.13,3.13,0,1,1,1.39-6.1c1,.23,2.09.49,3.24.77,17.15,4.16,33.14,6.29,40.3-13.18s10.94-48.44,13.73-69.67c.87-6.62,1.69-12.88,2.49-18a3.13,3.13,0,0,1,6.18,1c-.79,5-1.6,11.21-2.47,17.8-3,22.72-6.69,51-14.05,71C463.76,570.5,452.33,574.56,441.28,574.56Z"/><path class="cls-23" d="M192.29,482.21a3.91,3.91,0,0,1-3.31-3.9A642.35,642.35,0,0,1,194,411c.35-2.69.71-5.63,1.09-8.78,4.69-38.42,13.42-109.93,59.5-145.86a3.91,3.91,0,1,1,4.81,6.17c-43.52,33.94-52,103.35-56.54,140.64-.39,3.17-.75,6.13-1.1,8.85a637,637,0,0,0-4.95,66.33,3.91,3.91,0,0,1-4,3.87A3.43,3.43,0,0,1,192.29,482.21Z"/><path class="cls-23" d="M445.15,393.36h-.22a3.91,3.91,0,0,1-4.05-3.77c0-.25-1-25.78-4.58-50.71l-.23-1.58c-3.55-24.55-6.91-47.73-35.76-69.11a3.91,3.91,0,0,1,4.66-6.28c31.47,23.31,35.22,49.22,38.84,74.26l.23,1.58c3.68,25.36,4.65,51.3,4.66,51.56A3.91,3.91,0,0,1,445.15,393.36Z"/><path class="cls-23" d="M406.27,473.05a3.91,3.91,0,0,1-3.79-3c-6.52-25.82-2.92-51.53,9.37-67.09,8.42-10.65,20.36-16.17,34.61-16a32.09,32.09,0,0,1,24.07,10.72c19.19,21,16.1,65.63,16,67.52a3.91,3.91,0,0,1-7.8-.58c0-.43,3-43.2-13.94-61.66a24.18,24.18,0,0,0-18.4-8.17c-11.89-.2-21.41,4.2-28.36,13-10.82,13.69-13.86,36.81-7.92,60.33a3.92,3.92,0,0,1-3.8,4.87Z"/><path class="cls-24" d="M490.71,558.27c2,4.69.93,6.54-3.86,8a40.91,40.91,0,0,1-6.75,1.56L477.56,561s4.63-3.8,7.55-4.29C487.71,556.26,490,556.47,490.71,558.27Z"/><path class="cls-24" d="M411.38,563.89c-1.46,4.88-.24,6.61,4.68,7.54a40.84,40.84,0,0,0,6.88.83l1.8-7.06s-5-3.29-8-3.46C414.14,561.58,411.94,562,411.38,563.89Z"/><path class="cls-25" d="M231.85,379.18c7.85,14.4,20.94,44.49,20.94,44.49l132.82,19,59.54-75.25-17.67-32.06,22.25-10.46-15.42-39.06-.28-.2c-20.29-14.4-26.83-32.06-47.11-34.68s-117-4.25-117-4.25c-10.3,1-20.61,8.34-27,13.25-2.53,1.94-10.77,6.51-21.23,12-10.88,11.45-15.41,20.91-15.41,20.91l22.25,10.47-26.83,28.14S224,364.79,231.85,379.18Z"/><path class="cls-26" d="M294.34,223.46c-8.84.33-8.51,1-19.63,14.07s-17.34,17.66-17.34,17.66-5.24,37-5.89,73-.65,82.44-5.23,127.58S224,630.43,224,651.36c0,0,34.68,29.45,63.47,30.76s91.6-4.58,91.6-4.58S374.49,548,385.61,470.13s23.55-113.19,25.52-143.95-1.64-56.59-2.95-60.19-9.16-14.4-9.16-14.4Z"/><g class="cls-27"><path class="cls-28" d="M252.05,385.07a144.51,144.51,0,0,0,13.43,7.52c1.41.69,4.24,1.76,5.66,2.28s1,.36,0,0l-5.74-2c2.11.73,4.16,1.67,6.26,2.45,4.93,1.85,9.94,3.5,15,5,19.82,5.88,40.25,9.39,60.65,12.52,15.52,2.38,31.06,4.57,46.62,6.75,8.31-44.5,15.72-70.25,17.2-93.39,2-30.75-1.64-56.59-2.95-60.19s-9.16-14.4-9.16-14.4L294.34,223.46c-8.84.33-8.51,1-19.63,14.07s-17.34,17.66-17.34,17.66-5.24,37-5.89,73c-.31,16.74-.47,35.77-1,55.86C251,384.37,251.51,384.73,252.05,385.07Z"/></g><path class="cls-29" d="M314.62,281.16a222.92,222.92,0,0,0,4.66,22.94c2.62,9.16,4.42,17.18,4.42,17.18s-36.07,98.63-45.89,137.4-31.4,142.8-34.35,178.62S243,655,243,655l35.34,24.54,45.14-15.7s9.82-108,15.7-178.62,7.61-161.45,7.61-161.45l20.49-33-13.87-10.06L333.14,276Z"/><path class="cls-26" d="M411.69,305.36c-.18-20.93-2.51-36.63-3.51-39.37-1.31-3.6-9.16-14.4-9.16-14.4L294.34,223.46c-8.84.33-8.51,1-19.63,14.07s-17.34,17.66-17.34,17.66-.52,3.66-1.25,9.79c4.7,14.3,16.7,42.77,17.28,44.52,0,0,12.1-6.87,23.88-13.41s29.77-19.31,40.24-20.29,9.16,1,14.07,4.58,32.71,24.87,38.6,39.59Z"/><path class="cls-30" d="M305.46,170.46c-2.29,14.4-14.72,53-16,55.94,0,0,19.3,44.82,54.63,52s55.29-20.61,55.29-20.61,7.85-28.46,20.94-55.29C420.88,201.31,305.46,170.46,305.46,170.46Z"/><path class="cls-31" d="M318.22,75.26c-5.89,26.18-13.42,68.05-16,89.64s13.41,50.38,26.5,62.49,34.35,14.39,46.45,12.1,36.64-17.67,46.78-31.08,25.19-55,32.72-75.9,12.1-36,12.1-36-2.94-48.75-55-55.29S318.22,75.26,318.22,75.26Z"/><path class="cls-32" d="M315.67,89.14c-9.08-9.33-21.54-7.63-27.77,10s-6.69,38.28,3.14,47.68,15.62,3.85,15.62,3.85Z"/><path class="cls-33" d="M309.27,132.84l4.11-28.08c-.93-1.69-4.94-8.17-10.72-7.28-6.63,1-10.81,15.42-9.26,24.67C294.93,131.24,301,134.67,309.27,132.84Z"/><path class="cls-32" d="M457.34,120.89c12.52-3.59,22.48,4.08,19.12,22.51S463.25,179.94,450,183.21s-15.46-4.42-15.46-4.42Z"/><path class="cls-33" d="M441.18,162l10.39-26.42c1.65-1,8.35-4.63,12.92-1,5.25,4.18,1.72,18.75-4.23,26S447.48,167.71,441.18,162Z"/><path class="cls-34" d="M310.37,86.39s2.94-10.47,2.61-17.67-1.31-21.92,12.43-35,29.12-1.64,29.12-1.64S367,3.29,399,.35s41.55,13.74,41.55,13.74,18-5.89,26.17,6.87,2.94,28.46,2.94,28.46,8.18,2.62,10.47,17-7.52,27.15-7.52,27.15,2.29,8.84-.33,16.36-5.56,10.8-5.56,10.8L449.4,142s6.54-23.55,6.54-27.81-6.87-10.14-7.19-20.61a42.19,42.19,0,0,1,1.63-13.74s-8.18,1-16.68-5.23-9.16-13.74-9.16-13.74-11.45,2.29-29.12-.33S366,46.15,366,46.15s-2,12.1-11.12,17.66S345.37,82.79,330,91c-14.86,7.91-18.32,25.51-18.32,25.51Z"/><path class="cls-35" d="M387.9,123.32l5.86,44.36c.32,3.08-2.27,5.67-5.05,5l-22.5-5L382.83,122Z"/><path class="cls-32" d="M376.1,167.25a3.59,3.59,0,0,0-2.57-4.34,3.53,3.53,0,0,0-4,2.93Z"/><path class="cls-34" d="M380.11,120a55.91,55.91,0,0,0-10.65-5.69,49.84,49.84,0,0,0-10.85-2.83,91.16,91.16,0,0,0-11.32-.88c-3.87-.11-7.8,0-11.93-.27a33.07,33.07,0,0,1,12.05-6.63,28.33,28.33,0,0,1,12.5-1,24.43,24.43,0,0,1,11.7,5.14A27.31,27.31,0,0,1,380.11,120Z"/><path class="cls-34" d="M400.77,125.81a55,55,0,0,1,12-1.58,50.62,50.62,0,0,1,11.15,1.16,89.63,89.63,0,0,1,10.91,3.16c3.66,1.25,7.3,2.74,11.27,3.93a33.23,33.23,0,0,0-8.95-10.43,28.49,28.49,0,0,0-11.36-5.33,24.47,24.47,0,0,0-12.76.7A27.25,27.25,0,0,0,400.77,125.81Z"/><path class="cls-34" d="M347.69,127a3.25,3.25,0,1,0,3.24-3.36A3.31,3.31,0,0,0,347.69,127Z"/><path class="cls-34" d="M418,139.06a3.24,3.24,0,1,0,3.24-3.37A3.3,3.3,0,0,0,418,139.06Z"/><path class="cls-16" d="M392.48,192.13c-1.38,6.27-13.78,12-27.41,9.41s-22.81-12.7-22-18.9c1.25-9,11.6-1.59,25.23,1S394.42,183.27,392.48,192.13Z"/><g class="cls-36"><circle class="cls-37" cx="333.14" cy="151.12" r="17.79" transform="translate(130.61 455.75) rotate(-80.78)"/></g><g class="cls-36"><circle class="cls-37" cx="417.55" cy="173.2" r="17.79" transform="translate(153.04 539.79) rotate(-76.72)"/></g><g class="cls-36"><path class="cls-33" d="M327.35,182.1a90.14,90.14,0,0,1,2.46-31.73C322.73,157.77,321.15,175.17,327.35,182.1Z"/></g><path class="cls-37" d="M400,201.77A89.9,89.9,0,0,0,413.45,173C416,182.87,408.78,198.8,400,201.77Z"/><g class="cls-38"><path class="cls-39" d="M323.7,321.28s-17.21,47.05-31.09,88.93l51,4.88c2.37-49.21,3.17-91.36,3.17-91.36C340.14,325.86,330,325.53,323.7,321.28Z"/></g><path class="cls-40" d="M410.15,615.14a3.68,3.68,0,0,1-2.44-6.45L522.86,507.27a3.69,3.69,0,1,1,4.88,5.54L412.58,614.22A3.65,3.65,0,0,1,410.15,615.14Z"/><g class="cls-41"><path class="cls-42" d="M505,637.62c4.9-.81,16.68,1.15,19.62.17s20.12-9.33,26.5-10.8,13.25-38.27-8.83-48.58-48.58,27-48.58,27Z"/></g><path class="cls-31" d="M472,571.87c6.55.19,31.08,14.07,33.37,18s-.32,47.76-.32,47.76l18,7.53s2.62,21.92-10.8,46.13-23.88,25.19-23.88,25.19L452,688.33s-6.22-21.59-4.58-29.44a110.3,110.3,0,0,1,3.92-14.07L436,633.7s-24.86,11.45-26.5,7.2,18.65-14.4,17.67-14.4-14.4,11.12-15.71,3.27,20.29-19.63,27.16-21.59c0,0-21.6,14.72-24.21,7.85s20-20.61,20-20.61-20,9.82-19.63,3,17.9-19.27,25.52-20.94C450.71,575.14,460.85,571.54,472,571.87Z"/><path class="cls-43" d="M386.45,620.17l60.42,12.57a1.48,1.48,0,0,1,.95,2.24L420,678.68l-69.28-12,28-43.3A7.4,7.4,0,0,1,386.45,620.17Z"/><path class="cls-44" d="M320.87,612.28l188.92,39.3a1.48,1.48,0,0,1,.95,2.24L430.25,780.21a5.9,5.9,0,0,1-6,2.65L230.13,749.23a1.47,1.47,0,0,1-1-2.25l85.57-132.13A5.89,5.89,0,0,1,320.87,612.28Z"/><path class="cls-45" d="M142.38,681c-4.19,13.33-7,38.91-6.4,52.35,12.7-1.82,33.46-20,37.57-23.72l-21.85-7.28s-2.21-20.12,4.42-38,22.57-34.35,22.57-34.35C162,640.24,147.77,663.8,142.38,681Z"/><path class="cls-31" d="M198.07,637.54s-14,3.93-19.38,24.78-2.7,41.47-2.7,41.47,33.12,12.51,43.43,17.67,29.22,8.95,48.33,7.11c20.37-2,37.79-3.92,46.38-8.1s17.17-7.85,16.93-11.77-9.33-1.72-9.33-1.72,12-.74,12-5.4-7.86-4.42-7.86-4.42,11.29-.24,11.29-6.13-12.76-5.4-12.76-5.4,9.33-1.47,9.57-7.85-14.47-6.13-30.67-9.57-19.63-5.4-19.63-5.4l7.12-11.28s-7.36-3.68-22.08-5.4-27.24.74-43.43-2A175.62,175.62,0,0,1,198.07,637.54Z"/><path class="cls-45" d="M497,723.54l-8.71-7.07-10.92-8.83c-4,13.49-16.81,60.19-.86,60.19,2.74,0,6-.15,9.72-.46,4-8.29,33.17-87.48,34.45-99.32,0,0-12.23,36.15-16.81,43.35A115.37,115.37,0,0,0,497,723.54Z"/></g></g></g></svg>