<svg xmlns="http://www.w3.org/2000/svg" xmlns:xlink="http://www.w3.org/1999/xlink" viewBox="0 0 610.42 789.21"><defs><style>.cls-1{mask:url(#mask);filter:url(#luminosity-noclip-3);}.blue-shade-26,.cls-11,.cls-13,.cls-2,.cls-4{mix-blend-mode:multiply;}.cls-2{fill:url(#linear-gradient);}.cls-3{mask:url(#mask-2);filter:url(#luminosity-noclip-4);}.cls-4{fill:url(#linear-gradient-2);}.cls-5{fill:none;}.cls-6{isolation:isolate;}.cls-7{clip-path:url(#clip-path);}.cls-8{fill:#fff;}.cls-9{clip-path:url(#clip-path-2);}.blue-shade-26{fill:#134c83;opacity:0.17;}.cls-10{mask:url(#mask-3);}.cls-11,.cls-13{opacity:0.72;}.cls-11{fill:url(#linear-gradient-3);}.cls-12{mask:url(#mask-4);}.cls-13{fill:url(#linear-gradient-4);}.cls-14{fill:#493ddd;}.cls-15{fill:#d890ff;}.cls-16{fill:#9ea9b4;}.cls-17{fill:#1d1d1b;}.cls-18{fill:#eceef9;}.cls-19{fill:#5f5cea;}.cls-20{fill:url(#linear-gradient-5);}.cls-21{fill:#f68987;}.cls-22,.cls-28{fill:#e87979;}.cls-23{fill:#f27852;}.cls-24{fill:#f1a17f;}.cls-25{fill:#06233f;}.cls-26{fill:url(#linear-gradient-6);}.cls-27,.cls-28{opacity:0.55;}.cls-29{fill:#e11d48;}.cls-30{filter:url(#luminosity-noclip-2);}.cls-31{filter:url(#luminosity-noclip);}</style><filter id="luminosity-noclip" x="126.08" y="-9757.1" width="119.61" height="32766" filterUnits="userSpaceOnUse" color-interpolation-filters="sRGB"><feFlood flood-color="#fff" result="bg"/><feBlend in="SourceGraphic" in2="bg"/></filter><mask id="mask" x="126.08" y="-9757.1" width="119.61" height="32766" maskUnits="userSpaceOnUse"><g class="cls-31"/></mask><linearGradient id="linear-gradient" x1="243.17" y1="546.1" x2="131.95" y2="716.36" gradientUnits="userSpaceOnUse"><stop offset="0"/><stop offset="1" stop-color="#fff"/></linearGradient><filter id="luminosity-noclip-2" x="334.92" y="-9757.1" width="157.74" height="32766" filterUnits="userSpaceOnUse" color-interpolation-filters="sRGB"><feFlood flood-color="#fff" result="bg"/><feBlend in="SourceGraphic" in2="bg"/></filter><mask id="mask-2" x="334.92" y="-9757.1" width="157.74" height="32766" maskUnits="userSpaceOnUse"><g class="cls-30"/></mask><linearGradient id="linear-gradient-2" x1="347.75" y1="547.88" x2="465.15" y2="633.01" xlink:href="#linear-gradient"/><clipPath id="clip-path"><rect class="cls-5" y="-947.91" width="610.42" height="789.21"/></clipPath><clipPath id="clip-path-2"><rect class="cls-5" width="610.42" height="789.21"/></clipPath><filter id="luminosity-noclip-3" x="126.08" y="455.38" width="119.61" height="310.29" filterUnits="userSpaceOnUse" color-interpolation-filters="sRGB"><feFlood flood-color="#fff" result="bg"/><feBlend in="SourceGraphic" in2="bg"/></filter><mask id="mask-3" x="126.08" y="455.38" width="119.61" height="310.29" maskUnits="userSpaceOnUse"><g class="cls-1"><path class="cls-2" d="M237.2,714.41c2.56-86.34,3.13-172.8,8.48-259-45.76,2.35-88.78,8.19-91.46,19.91-5.49,24-28.14,167.51-28.14,167.51,8.92,22.65,32.57,122.88,32.57,122.88h76.71Q236.46,740,237.2,714.41Z"/></g></mask><linearGradient id="linear-gradient-3" x1="243.17" y1="546.1" x2="131.95" y2="716.36" gradientUnits="userSpaceOnUse"><stop offset="0" stop-color="#fff"/><stop offset="1" stop-color="#d3d8f2"/></linearGradient><filter id="luminosity-noclip-4" x="334.92" y="425.86" width="157.74" height="339.81" filterUnits="userSpaceOnUse" color-interpolation-filters="sRGB"><feFlood flood-color="#fff" result="bg"/><feBlend in="SourceGraphic" in2="bg"/></filter><mask id="mask-4" x="334.92" y="425.86" width="157.74" height="339.81" maskUnits="userSpaceOnUse"><g class="cls-3"><path class="cls-4" d="M355.37,456.76a78.78,78.78,0,0,0-10.15-1.27q-1,16.49-1.87,33c-4.54,92.35-4.54,184.85-8.43,277.21H449.08L470.7,643.49s8.24-63.16,11-94.74,11-122.89,11-122.89S376,461.56,355.37,456.76Z"/></g></mask><linearGradient id="linear-gradient-4" x1="347.75" y1="547.88" x2="465.15" y2="633.01" xlink:href="#linear-gradient-3"/><linearGradient id="linear-gradient-5" x1="246.09" y1="252.22" x2="367" y2="252.22" gradientUnits="userSpaceOnUse"><stop offset="0" stop-color="#f1a17f"/><stop offset="1" stop-color="#e87979"/></linearGradient><linearGradient id="linear-gradient-6" x1="-1272.91" y1="-7851.06" x2="-1272.91" y2="-7824.54" gradientTransform="matrix(-1.52, 0.1, 0.12, 1.79, -706.99, 14240.43)" xlink:href="#linear-gradient-5"/></defs><g class="cls-6"><g id="Layer_1" data-name="Layer 1"><g class="cls-7"><rect class="cls-8" x="102.64" y="-452.04" width="362.83" height="452.41"/></g><g class="cls-9"><rect class="cls-8" x="102.64" y="495.86" width="362.83" height="452.41"/><path class="cls-8" d="M571.61,659.62C565.43,684.33,491.3,778,474.83,780.09s-25.75-14.41-25.75-14.41H56.74s-27.81-75.17-35-115.33S46.44,431.52,64,388.79s45.3-58.7,77.74-78.25,89.59-62.82,99.88-77.76a37,37,0,0,0,4.52-9.24c9.77,30.45,45.08,67.09,64.66,67.09,20.05,0,47.43-37.19,56.25-71.94a67.54,67.54,0,0,0,19.26,28c19.91,17.17,79.29,36,107.1,53.55s38.09,56.64,53.54,121.51S577.79,634.91,571.61,659.62Z"/><path class="blue-shade-26" d="M488.21,705.19c-6.7-17.51-15.19-18-26.78-18l-26,19.31,5.38,59.21h8.27s9.26,16.47,25.75,14.41c2.44-.3,6.17-2.64,10.74-6.46C489.24,760.74,494.33,721.21,488.21,705.19Z"/><g class="cls-10"><path class="cls-11" d="M237.2,714.41c2.56-86.34,3.13-172.8,8.48-259-45.76,2.35-88.78,8.19-91.46,19.91-5.49,24-28.14,167.51-28.14,167.51,8.92,22.65,32.57,122.88,32.57,122.88h76.71Q236.46,740,237.2,714.41Z"/></g><g class="cls-12"><path class="cls-13" d="M355.37,456.76a78.78,78.78,0,0,0-10.15-1.27q-1,16.49-1.87,33c-4.54,92.35-4.54,184.85-8.43,277.21H449.08L470.7,643.49s8.24-63.16,11-94.74,11-122.89,11-122.89S376,461.56,355.37,456.76Z"/></g><circle class="cls-14" cx="449.83" cy="483.34" r="21.84" transform="translate(-84.43 95.35) rotate(-11.07)"/><path class="cls-15" d="M431.71,489a19,19,0,1,0,12.43-23.81A19,19,0,0,0,431.71,489Z"/><path class="cls-16" d="M175.21,581.12h.19c27.69-.08,42.39-53.12,52.1-99.31.51-2.39.93-4.41,1.28-6a3.28,3.28,0,1,0-6.41-1.44c-.35,1.59-.78,3.63-1.29,6.05-4.89,23.26-19.78,94-45.7,94.11h-.17c-16.42,0-31.27-7.39-31.42-7.46a3.28,3.28,0,1,0-2.95,5.86C141.5,573.3,157.25,581.12,175.21,581.12Z"/><path class="cls-16" d="M189.44,583.83c7.48,0,14.79-1.77,20.25-3.1l3.3-.79a3.28,3.28,0,1,0-1.45-6.4c-1.06.24-2.2.51-3.4.81-18,4.37-34.78,6.6-42.29-13.84s-11.48-50.81-14.4-73.09c-.91-6.95-1.78-13.51-2.62-18.84a3.28,3.28,0,0,0-6.48,1c.82,5.24,1.68,11.77,2.59,18.68,3.13,23.83,7,53.5,14.74,74.5C165.86,579.57,177.86,583.83,189.44,583.83Z"/><path class="cls-14" d="M450.7,486.94a4.11,4.11,0,0,0,3.47-4.1,675,675,0,0,0-5.25-70.57c-.37-2.83-.75-5.91-1.15-9.22-4.92-40.31-14.08-115.34-62.43-153a4.1,4.1,0,1,0-5,6.47c45.67,35.61,54.55,108.44,59.33,147.57.4,3.33.78,6.43,1.15,9.28a662.55,662.55,0,0,1,5.19,69.6,4.11,4.11,0,0,0,4.15,4.06A3.81,3.81,0,0,0,450.7,486.94Z"/><path class="cls-14" d="M185.39,393.71h.22a4.1,4.1,0,0,0,4.26-4c0-.27,1-27.06,4.81-53.21l.24-1.66c3.72-25.75,7.24-50.08,37.51-72.51a4.1,4.1,0,1,0-4.88-6.59c-33,24.46-37,51.64-40.76,77.92l-.24,1.66c-3.86,26.61-4.88,53.82-4.89,54.09A4.11,4.11,0,0,0,185.39,393.71Z"/><path class="cls-14" d="M226.18,477.32a4.1,4.1,0,0,0,4-3.1c6.84-27.09,3.08-54.07-9.83-70.39-8.83-11.18-21.35-17-36.3-16.76a33.68,33.68,0,0,0-25.27,11.25c-20.13,22-16.89,68.86-16.74,70.84a4.11,4.11,0,1,0,8.19-.61c0-.45-3.12-45.32,14.62-64.69a25.39,25.39,0,0,1,19.31-8.58c12.47-.21,22.46,4.41,29.75,13.64,11.36,14.36,14.54,38.62,8.31,63.29a4.12,4.12,0,0,0,3,5A4.36,4.36,0,0,0,226.18,477.32Z"/><path class="cls-17" d="M137.59,566.74c-2.07,4.92-1,6.86,4,8.39a44.15,44.15,0,0,0,7.09,1.63l2.66-7.17s-4.86-4-7.93-4.5C140.73,564.63,138.38,564.85,137.59,566.74Z"/><path class="cls-17" d="M220.82,572.64c1.53,5.12.25,6.93-4.91,7.91a43,43,0,0,1-7.22.87L206.8,574s5.26-3.45,8.36-3.63C217.92,570.21,220.24,570.68,220.82,572.64Z"/><path class="cls-18" d="M367,218.69c-8.82,34.75-36.2,71.94-56.25,71.94-19.58,0-54.89-36.64-64.66-67.09a37,37,0,0,1-4.52,9.24c-4.95,7.19-20.75,20.93-39.42,35.43-15.52,33.33-21.84,69.1-21.84,69.1l37.07,31.92L200.9,391.88s33,43.25,39.14,73.12,123.57,7.2,123.57,7.2l43.25-57.66-15.45-37.07,36-9.27s-.77-59.2-20.25-108.51c-8.67-4.41-16-8.76-20.94-13A67.54,67.54,0,0,1,367,218.69Z"/><path class="cls-14" d="M367,218.69c-8.82,34.75-36.2,71.94-56.25,71.94-19.58,0-54.89-36.64-64.66-67.09a37,37,0,0,1-4.52,9.24c-.38.56-.86,1.18-1.38,1.82-9.12,41.91-13,89.47-10.45,148,2.74,63.84,1,116.36-17.51,187.41-15.94,61.11-45.6,167.17-53.58,195.65h205c0-37.07.22-206.76,2.06-262.58,2.05-62.82,8.23-104,18.53-150.35,8.28-37.24-.07-84.43-4.2-112.23A68.88,68.88,0,0,1,367,218.69Z"/><path class="cls-19" d="M384.63,272.64c-1.52-12.07-3.29-23.12-4.63-32.12a68.88,68.88,0,0,1-13-21.83c-8.82,34.75-36.2,71.94-56.25,71.94-19.58,0-54.89-36.64-64.66-67.09a37,37,0,0,1-4.52,9.24c-.38.56-.86,1.18-1.38,1.82a466.71,466.71,0,0,0-8.08,50.86l24.4,45.15s30.12-31.92,37.33-27.8c2,1.16-4.74,9.54-2.32,13.9,6.16,11.11,19.57,26.77,19.57,26.77s13.59-15.57,21.62-26.25c3.71-4.93-3.26-15.38-1.8-15.71,4.63-1,35.27,22.91,35.27,22.91S377.27,297.65,384.63,272.64Z"/><path class="cls-20" d="M367,218.69c-7.77,40.1-41.5,67.13-55.91,124.79-9.27-58.18-56.12-79.29-65-119.94,5-14.62,4.43-35.37,4.7-58.51.51-1.38,1.05-2.73,1.64-4.07L360.17,178C360.55,192.46,362.31,206.31,367,218.69Z"/><path class="cls-21" d="M252.27,99.65c-13.54-7.39-29.46-4.21-34.32,12.83s-1.66,36,12.89,43.4,21,1.5,21,1.5Z"/><path class="cls-22" d="M252,140.64l.18-26.35c-1.54-1.42-8-6.85-15.32-5.29-8.45,1.8-11.23,15.58-7.5,23.88C233,141,241.52,143.4,252,140.64Z"/><path class="cls-21" d="M362.58,100.68c13.54-7.39,29.46-4.2,34.32,12.84s1.66,36-12.89,43.39S363,158.42,363,158.42Z"/><path class="cls-22" d="M362.85,141.67l-.18-26.34c1.54-1.43,7.95-6.86,15.32-5.29,8.45,1.79,11.23,15.57,7.5,23.87S373.33,144.43,362.85,141.67Z"/><path class="cls-18" d="M250.33,24.26C270.8.56,308.69-5.17,334.77,4.44s31.84,17.5,42.48,33,9.78,40.16,7.47,52.52A125.79,125.79,0,0,1,377,116.25a8.93,8.93,0,0,1-4.8,5.15L250,125.18s-8.24,2.4-8.92-9.27S237.63,98.4,232.48,97C232.48,97,224.25,54.47,250.33,24.26Z"/><path class="cls-23" d="M252.43,161c-.59,1.34-1.13,2.69-1.64,4.07q0-2.15.06-4.32Z"/><path class="cls-24" d="M263,33.27S245.87,60.9,248.27,82.18s-.34,42.31-1.71,57.76,4.8,40.16,14.41,59.72,27.12,37.07,53.55,35.7,30.89-14.42,42.56-36.38a135.91,135.91,0,0,0,15.45-54.24c1-12.7-2.06-29.95-1.72-48.14s.69-39-8.58-51.4-14.07-16.31-14.07-16.31S323.62,44.6,300.28,44.6,263,33.27,263,33.27Z"/><path class="cls-18" d="M259.44,99.3C278,95.7,286.86,98,300.58,97.6,295.48,83.09,262.4,80.11,259.44,99.3Z"/><path class="cls-18" d="M359.74,97.76c-18.53-3.6-27.41-1.29-41.14-1.71C323.7,81.54,356.78,78.57,359.74,97.76Z"/><path class="cls-25" d="M273.4,110a3.47,3.47,0,1,0,3.47-3.6A3.54,3.54,0,0,0,273.4,110Z"/><path class="cls-25" d="M338.28,110a3.47,3.47,0,1,0,3.47-3.6A3.53,3.53,0,0,0,338.28,110Z"/><path class="cls-26" d="M312.24,96.7l14.52,40.49c.94,2.83-.79,5.84-3.37,5.86l-20.84.14,4.95-46.64Z"/><g class="cls-27"><path class="cls-22" d="M311.15,140.63a3.4,3.4,0,0,0-3.17-3.52,3.3,3.3,0,0,0-3,3.64Z"/></g><path class="cls-8" d="M332.07,166.26C331.93,171.92,322,179,309.57,179s-22.21-7.21-22.5-12.72c-.43-8,9.93-3.31,22.35-3.31S332.28,158.27,332.07,166.26Z"/><g class="cls-27"><circle class="cls-28" cx="271.7" cy="141.91" r="15.7"/></g><g class="cls-27"><circle class="cls-28" cx="348.93" cy="141.91" r="15.7"/></g><polygon class="cls-29" points="417.15 705.27 594.27 420.37 576.42 501.38 444.61 716.94 417.84 716.25 417.15 705.27"/><path class="cls-24" d="M428,687.94s-3.87-3.61-7.73-1.55-18.53,12.36-22.65,20.34a15.41,15.41,0,0,0-13.13,4.12,33.18,33.18,0,0,0-7.72,12.87s-4.9-1.54-7.73,5.66a21.5,21.5,0,0,0,4.38,21.89c5.4,5.92,13.13,19.3,18.79,27.29S413,789.88,422,783.7s56.13-26,61.79-31.4,9.27-52.26-3.09-57.93-28.58-1.8-33.47-2.57-12.87,2.57-12.61,9.27,12.1,11.84,12.1,11.84l-10.56.26-13.13-8.5Z"/><polygon class="cls-8" points="56.74 765.68 73.73 818.45 178.93 814.48 158.65 765.68 56.74 765.68"/><polygon class="cls-14" points="158.65 765.68 168.43 789.21 364.56 789.21 363.61 765.68 158.65 765.68"/></g></g></g></svg>