<svg xmlns="http://www.w3.org/2000/svg" xmlns:xlink="http://www.w3.org/1999/xlink" viewBox="0 0 610.42 789.21"><defs><style>.cls-1{mask:url(#mask);filter:url(#luminosity-noclip-5);}.cls-2,.cls-24,.cls-28,.cls-31,.cls-33,.cls-4,.cls-6,.cls-8{mix-blend-mode:multiply;}.cls-2{fill:url(#linear-gradient);}.cls-3{mask:url(#mask-2);filter:url(#luminosity-noclip-6);}.cls-4{fill:url(#linear-gradient-2);}.cls-5{mask:url(#mask-3);filter:url(#luminosity-noclip-7);}.cls-6{fill:url(#linear-gradient-3);}.cls-7{mask:url(#mask-4);filter:url(#luminosity-noclip-8);}.cls-8{fill:url(#linear-gradient-4);}.cls-9{fill:none;}.cls-10{isolation:isolate;}.cls-11{clip-path:url(#clip-path);}.cls-12{fill:#fff;}.cls-13{clip-path:url(#clip-path-2);}.cls-14{fill:url(#linear-gradient-5);}.cls-15{fill:#f68987;}.cls-16,.cls-21{fill:#e87979;}.cls-17{fill:#f1a17f;}.cls-18{fill:#060e3f;}.cls-19{fill:#06233f;}.cls-20{fill:url(#linear-gradient-6);}.cls-21,.cls-22{opacity:0.55;}.cls-23{mask:url(#mask-5);}.cls-24{fill:url(#linear-gradient-7);}.cls-25{fill:#4a00e0;}.cls-26{fill:#f4fbff;}.cls-27{mask:url(#mask-6);}.cls-28{opacity:0.43;fill:url(#linear-gradient-8);}.cls-29{fill:#f2faff;}.cls-30{mask:url(#mask-7);}.cls-31{opacity:0.8;fill:url(#linear-gradient-9);}.cls-32{mask:url(#mask-8);}.cls-33{fill:url(#linear-gradient-10);}.cls-34{filter:url(#luminosity-noclip-4);}.cls-35{filter:url(#luminosity-noclip-3);}.cls-36{filter:url(#luminosity-noclip-2);}.cls-37{filter:url(#luminosity-noclip);}</style><filter id="luminosity-noclip" x="266.74" y="-8816" width="90.3" height="32766" filterUnits="userSpaceOnUse" color-interpolation-filters="sRGB"><feFlood flood-color="#fff" result="bg"/><feBlend in="SourceGraphic" in2="bg"/></filter><mask id="mask" x="266.74" y="-8816" width="90.3" height="32766" maskUnits="userSpaceOnUse"><g class="cls-37"/></mask><linearGradient id="linear-gradient" x1="324.59" y1="392.14" x2="307.79" y2="293.97" gradientUnits="userSpaceOnUse"><stop offset="0"/><stop offset="1" stop-color="#fff"/></linearGradient><filter id="luminosity-noclip-2" x="298.62" y="-8816" width="191.16" height="32766" filterUnits="userSpaceOnUse" color-interpolation-filters="sRGB"><feFlood flood-color="#fff" result="bg"/><feBlend in="SourceGraphic" in2="bg"/></filter><mask id="mask-2" x="298.62" y="-8816" width="191.16" height="32766" maskUnits="userSpaceOnUse"><g class="cls-36"/></mask><linearGradient id="linear-gradient-2" x1="400.73" y1="545.37" x2="342.24" y2="697.32" xlink:href="#linear-gradient"/><filter id="luminosity-noclip-3" x="165.71" y="-8816" width="165.2" height="32766" filterUnits="userSpaceOnUse" color-interpolation-filters="sRGB"><feFlood flood-color="#fff" result="bg"/><feBlend in="SourceGraphic" in2="bg"/></filter><mask id="mask-3" x="165.71" y="-8816" width="165.2" height="32766" maskUnits="userSpaceOnUse"><g class="cls-35"/></mask><linearGradient id="linear-gradient-3" x1="249.91" y1="488.23" x2="262.01" y2="696.66" xlink:href="#linear-gradient"/><filter id="luminosity-noclip-4" x="367.9" y="-8816" width="90.95" height="32766" filterUnits="userSpaceOnUse" color-interpolation-filters="sRGB"><feFlood flood-color="#fff" result="bg"/><feBlend in="SourceGraphic" in2="bg"/></filter><mask id="mask-4" x="367.9" y="-8816" width="90.95" height="32766" maskUnits="userSpaceOnUse"><g class="cls-34"/></mask><linearGradient id="linear-gradient-4" x1="399.66" y1="533.04" x2="482.36" y2="571.37" xlink:href="#linear-gradient"/><clipPath id="clip-path"><rect class="cls-9" y="-941.1" width="610.42" height="789.21"/></clipPath><clipPath id="clip-path-2"><rect class="cls-9" width="610.42" height="789.21"/></clipPath><linearGradient id="linear-gradient-5" x1="241.07" y1="229.49" x2="361.84" y2="229.49" gradientUnits="userSpaceOnUse"><stop offset="0" stop-color="#f1a17f"/><stop offset="1" stop-color="#e87979"/></linearGradient><linearGradient id="linear-gradient-6" x1="-1426.38" y1="-8139.05" x2="-1426.38" y2="-8112.32" gradientTransform="matrix(1.95, -0.47, 0.47, 1.95, 6940.36, 15297.38)" xlink:href="#linear-gradient-5"/><filter id="luminosity-noclip-5" x="266.74" y="288.66" width="90.3" height="130.09" filterUnits="userSpaceOnUse" color-interpolation-filters="sRGB"><feFlood flood-color="#fff" result="bg"/><feBlend in="SourceGraphic" in2="bg"/></filter><mask id="mask-5" x="266.74" y="288.66" width="90.3" height="130.09" maskUnits="userSpaceOnUse"><g class="cls-1"><path class="cls-2" d="M266.74,326.11c9.25,13.27,18.92,26.11,27.72,36.5,27.91,32.94,43.36,56.14,43.36,56.14,7.36-22.53,15.06-75.42,19.22-109-4.88-3.37-10.8-7.34-14.85-9.71-8.06-4.7-25.21-11.42-25.21-11.42a155.92,155.92,0,0,0-27.57,17.47C281.73,312.4,272.34,320.94,266.74,326.11Z"/></g></mask><linearGradient id="linear-gradient-7" x1="324.59" y1="392.14" x2="307.79" y2="293.97" gradientUnits="userSpaceOnUse"><stop offset="0" stop-color="#fff"/><stop offset="1" stop-color="#d3d8f2"/></linearGradient><filter id="luminosity-noclip-6" x="298.62" y="436.83" width="191.16" height="210.69" filterUnits="userSpaceOnUse" color-interpolation-filters="sRGB"><feFlood flood-color="#fff" result="bg"/><feBlend in="SourceGraphic" in2="bg"/></filter><mask id="mask-6" x="298.62" y="436.83" width="191.16" height="210.69" maskUnits="userSpaceOnUse"><g class="cls-3"><path class="cls-4" d="M489.78,604c-41.19,5.21-145.9,27.91-168.6,36.47-6.65,2.51-14.42,4.86-22.56,7.06.41-40.49-.05-109.38,4.91-127.58,6.05-22.18,20.17-56.47,26.57-79.34l.8-3.77c26.36,3.54,54.87,11.63,87.61,19.24C485.08,471.54,489.78,604,489.78,604Z"/></g></mask><linearGradient id="linear-gradient-8" x1="400.73" y1="545.37" x2="342.24" y2="697.32" gradientUnits="userSpaceOnUse"><stop offset="0" stop-color="#fff"/><stop offset="1" stop-color="#ddebf0"/></linearGradient><filter id="luminosity-noclip-7" x="165.71" y="434.99" width="165.2" height="238.92" filterUnits="userSpaceOnUse" color-interpolation-filters="sRGB"><feFlood flood-color="#fff" result="bg"/><feBlend in="SourceGraphic" in2="bg"/></filter><mask id="mask-7" x="165.71" y="434.99" width="165.2" height="238.92" maskUnits="userSpaceOnUse"><g class="cls-5"><path class="cls-6" d="M330.9,436.83l-.8,3.77c-6.4,22.87-20.52,57.16-26.57,79.34-5,18.2-4.5,87.09-4.91,127.58-19.62,5.32-41.51,9.85-55.76,14.13-15,4.49-33,9.81-41.32,12.27a49.75,49.75,0,0,0-10.28,0s-6-39-8.75-69.93-8.74-88.08-16.8-119.69c0,0,39-15.46,88.07-38.31C278.72,434.37,303.67,433.17,330.9,436.83Z"/></g></mask><linearGradient id="linear-gradient-9" x1="249.91" y1="488.23" x2="262.01" y2="696.66" xlink:href="#linear-gradient-8"/><filter id="luminosity-noclip-8" x="367.9" y="448.31" width="90.95" height="179.88" filterUnits="userSpaceOnUse" color-interpolation-filters="sRGB"><feFlood flood-color="#fff" result="bg"/><feBlend in="SourceGraphic" in2="bg"/></filter><mask id="mask-8" x="367.9" y="448.31" width="90.95" height="179.88" maskUnits="userSpaceOnUse"><g class="cls-7"><path class="cls-8" d="M458.85,450.69c-4,42.36-7.57,147.41-4.46,159.77l-86.31,17.73s-4-90.09,25.55-141.87S458.85,450.69,458.85,450.69Z"/></g></mask><linearGradient id="linear-gradient-10" x1="399.66" y1="533.04" x2="482.36" y2="571.37" xlink:href="#linear-gradient-7"/></defs><g class="cls-10"><g id="Layer_1" data-name="Layer 1"><g class="cls-11"><rect class="cls-12" x="102.64" y="-445.24" width="362.83" height="452.41"/></g><g class="cls-13"><rect class="cls-12" x="94.57" y="495.86" width="362.83" height="452.41"/><path class="cls-14" d="M361.84,246C344.31,266.53,317,288.66,317,288.66c-11.34-2.53-54-27.51-75.91-46.69,8-16.58,8.05-49.86,8.67-71.65L358,222.76A167.91,167.91,0,0,0,361.84,246Z"/><path class="cls-12" d="M543.9,652.06c-20.17,64.54-97.83,68.58-97.83,68.58S406.4,745.18,313,770.73c-104.77,28.64-185.58,17.48-200.7,9.41S88.05,762,72.92,709.55,44,549.53,41.32,478.94s45.05-111.63,79.33-138.51c27.72-21.75,81.4-60.64,106.26-82.55,7.25,20.92,41.27,73.71,67.55,104.73,27.91,32.94,43.36,56.14,43.36,56.14,10.1-30.92,20.85-119,22.2-135.81,1-12.66,2-27.78,2.45-34.48,1.57,5.7,3.63,11.1,6.28,14.65,10.09,13.45,47.07,39.67,85.39,63.2s52.45,55.47,69.59,109.92S564.06,587.51,543.9,652.06Z"/><path class="cls-15" d="M367.43,105.11c10.28-10,23.52-8.78,29.14,9.22s4.9,39.3-6.19,49.43-16.94,4.63-16.94,4.63Z"/><path class="cls-16" d="M371.7,150,369,121.16c1.1-1.78,5.78-8.65,11.91-8,7,.78,10.66,15.5,8.45,25.13C387.14,147.78,380.48,151.58,371.7,150Z"/><path class="cls-17" d="M248.4,37.86c-20,18.23-23.2,50.43-19.16,72.62s15.13,68.58,27.23,90.77,31.77,41.35,48.91,44.88,38.83-.51,52.45-10.59,18.65-38.66,20-48.75,0-37.32-.67-55.8-4.71-36.65-6.05-45.39-5.72-34.29-17.49-46.73S315,15.34,289.41,22.4,256.13,30.8,248.4,37.86Z"/><path class="cls-18" d="M227.22,49c10.86-23.88,32.44-39.42,48.92-43.12s36-4,50.42,2,28.75,16.39,34.8,25.72a90.18,90.18,0,0,1,12.6,35c1.52,12.86,1.77,43.37,1.77,43.37s-4.54-16.64-6.81-25.72S365.14,60.81,360.1,55s-8.32-9.33-14.88-13.87-16.89-11.6-16.89-11.6a54.09,54.09,0,0,1-26.22,17.15C285,51.73,265.29,51,256,50.22c-5.8,3.28-10.59,14.12-14.38,23.7s4,26.55,2,37.31c-2.77,14.88,3.53,31,3.53,31l-9.33.5s-8.32-16.89-13.61-42.36C218.75,74.21,223.44,57.28,227.22,49Z"/><path class="cls-15" d="M236.11,123.07c-17.06-3.72-33.57,4.54-33.85,24.17s8.88,38.89,27,42.27,23.54-4.84,23.54-4.84Z"/><path class="cls-16" d="M248,166.81l-7.63-28.11c-2.1-1-10.76-4.87-18.37-.95-8.74,4.5-7.7,20-1.14,27.72S237.3,173,248,166.81Z"/><path class="cls-19" d="M306.62,101.64a63.27,63.27,0,0,0-13.25-1.54A57.87,57.87,0,0,0,281,101.48,104.12,104.12,0,0,0,268.9,105c-4.06,1.38-8.11,3-12.51,4.34a36.77,36.77,0,0,1,10-11.25A32.64,32.64,0,0,1,279,92.25a28.1,28.1,0,0,1,14.12.59A29.7,29.7,0,0,1,306.62,101.64Z"/><path class="cls-19" d="M373.35,91.71a63.63,63.63,0,0,0-13.18-2,58.22,58.22,0,0,0-12.4,1,102.29,102.29,0,0,0-12.23,3.08c-4.1,1.24-8.21,2.73-12.65,3.9a36.67,36.67,0,0,1,10.37-10.9,32.76,32.76,0,0,1,12.81-5.38,28,28,0,0,1,14.1,1.08A29.57,29.57,0,0,1,373.35,91.71Z"/><ellipse class="cls-19" cx="279.09" cy="115.21" rx="3.1" ry="3.21"/><ellipse class="cls-19" cx="348.68" cy="104.62" rx="3.1" ry="3.21"/><polygon class="cls-20" points="307.25 104.94 309.84 154.28 329.22 154.09 342.44 147.07 322.82 100.47 307.25 104.94"/><path class="cls-15" d="M332.33,150.84a3.94,3.94,0,0,1,7.09-3.42Z"/><path class="cls-15" d="M321.53,153.46a3.94,3.94,0,0,0-7.87.2Z"/><path class="cls-21" d="M341.06,188.32a107.48,107.48,0,0,1-23.49,4.25C323.93,194.52,336.84,192.3,341.06,188.32Z"/><g class="cls-22"><path class="cls-16" d="M289.86,198.36a168.53,168.53,0,0,1-13.51-35.08C275.21,173.7,282.46,193,289.86,198.36Z"/></g><g class="cls-22"><path class="cls-16" d="M363.4,185.43a168.27,168.27,0,0,0-1.56-37.55C367,157,368.07,177.59,363.4,185.43Z"/></g><g class="cls-22"><circle class="cls-21" cx="276.64" cy="160.91" r="20.67"/></g><path class="cls-21" d="M349.51,142.25a20.69,20.69,0,0,0,28.72,19.05c-.26-10.18-.74-21.29-1.07-30.31-.1-2.82-.29-5.61-.53-8.38a20.65,20.65,0,0,0-27.12,19.64Z"/><path class="cls-19" d="M288.74,6.94S314.53,0,321.69,0c3.78,0,3.19,6.81,3.19,6.81S332-1.1,334.46.13,333,9.46,333,9.46s4.83-2.8,6.81-.17-3.95,9.83-3.95,9.83Z"/><path class="cls-12" d="M353.5,164c.79,5.52-9.1,14.28-23,16.67s-26-2.7-27.22-8c-1.82-7.66,10.51-5.12,24.37-7.52S352.39,156.16,353.5,164Z"/><path class="cls-12" d="M362.47,248.46c-.44,6.7-1.45,21.82-2.45,34.48-1.35,16.8-12.1,104.89-22.2,135.81,0,0-15.45-23.2-43.36-56.14-26.28-31-60.3-83.81-67.55-104.73,5.88-5.19,10.16-9.42,12.08-12.26a27,27,0,0,0,2.08-3.65c21.9,19.18,64.57,44.16,75.91,46.69,0,0,27.33-22.13,44.86-42.69C362,246.81,362.25,247.64,362.47,248.46Z"/><g class="cls-23"><path class="cls-24" d="M266.74,326.11c9.25,13.27,18.92,26.11,27.72,36.5,27.91,32.94,43.36,56.14,43.36,56.14,7.36-22.53,15.06-75.42,19.22-109-4.88-3.37-10.8-7.34-14.85-9.71-8.06-4.7-25.21-11.42-25.21-11.42a155.92,155.92,0,0,0-27.57,17.47C281.73,312.4,272.34,320.94,266.74,326.11Z"/></g><path class="cls-25" d="M339.68,298.7c-8.65-4.54-22.7-10-22.7-10a155.92,155.92,0,0,0-27.57,17.47l-1.21,1c5.41,7.69,17,24.09,20,27.91,0,0-6,17.48-9.89,32.2,25.44,30.46,39.47,51.51,39.47,51.51,3.26-10,6.58-25.9,9.64-43.46-6.9-14-18.2-36.77-21.4-42.26C326.06,333,337.17,306.74,339.68,298.7Z"/><path class="cls-26" d="M226.91,257.88c-5.87,5.17-13.37,11.3-21.73,17.93,1.73,26.19,18.68,79.41,18.68,79.41s11.09-1.69,20.84-3.7a99.53,99.53,0,0,0,17.48-5.38l-2.68,20.17s25.21,23.2,38.66,37,31.93,37.31,31.93,37.31l7.73-21.85s-15.45-23.2-43.36-56.14C268.18,331.59,234.16,278.8,226.91,257.88Z"/><g class="cls-27"><path class="cls-28" d="M489.78,604c-41.19,5.21-145.9,27.91-168.6,36.47-6.65,2.51-14.42,4.86-22.56,7.06.41-40.49-.05-109.38,4.91-127.58,6.05-22.18,20.17-56.47,26.57-79.34l.8-3.77c26.36,3.54,54.87,11.63,87.61,19.24C485.08,471.54,489.78,604,489.78,604Z"/></g><path class="cls-12" d="M322.7,518.26a6.06,6.06,0,1,1-6.05-6A6.05,6.05,0,0,1,322.7,518.26Z"/><circle class="cls-12" cx="313.28" cy="611.38" r="6.05"/><path class="cls-29" d="M303.53,519.94c3.7-9.07,51.1-92.11,59.17-109.26s21.85-51.77,21.85-51.77l-9.07-10.75a130.66,130.66,0,0,1,15.46-.34,114.55,114.55,0,0,1,16.14,2s-2-16.48-4.71-24.21c-2.32-6.68-10.93-32.7-17.78-47.24-7.26-6-12.79-11.21-15.84-15.28-2.65-3.55-4.71-9-6.28-14.65-.44,6.7-1.45,21.82-2.45,34.48-1.35,16.8-12.1,104.89-22.2,135.81,0,0-2.35,3-7.73,21.85S303.53,519.94,303.53,519.94Z"/><path class="cls-17" d="M334.47,722.2l-.34-.05c-11.6-1.51-33.28-15.63-42.87-18.15s-25.71-7.57-38.32-9.08-21.18-6.55-26.73-12.1-24.67-8.9-24.67-8.9c16.1-7.24,88.21-25.39,96.79-27.41,2.29-.54,4.75-1,7.08-1.41,12,11.56,19.34,21.76,23.67,38.73C332.15,695.77,333.72,711.6,334.47,722.2Z"/><path class="cls-12" d="M369.93,732.74s-23.76-8.9-35.46-10.54c-.75-10.6-2.32-26.43-5.39-38.37-4.33-17-11.69-27.17-23.67-38.73,6.53-1.78,11.74-3,11.74-3s25.55,26.06,37.15,47.24A162,162,0,0,1,369.93,732.74Z"/><g class="cls-30"><path class="cls-31" d="M330.9,436.83l-.8,3.77c-6.4,22.87-20.52,57.16-26.57,79.34-5,18.2-4.5,87.09-4.91,127.58-19.62,5.32-41.51,9.85-55.76,14.13-15,4.49-33,9.81-41.32,12.27a49.75,49.75,0,0,0-10.28,0s-6-39-8.75-69.93-8.74-88.08-16.8-119.69c0,0,39-15.46,88.07-38.31C278.72,434.37,303.67,433.17,330.9,436.83Z"/></g><g class="cls-32"><path class="cls-33" d="M458.85,450.69c-4,42.36-7.57,147.41-4.46,159.77l-86.31,17.73s-4-90.09,25.55-141.87S458.85,450.69,458.85,450.69Z"/></g><path class="cls-17" d="M380.86,624.49C386.91,599.28,393,589.2,401,581.8s31.26-23.87,34.29-21.18,2,5.38-2.36,10.42-16.13,14.12-19.16,19.5c0,0,17.06-17.4,24.37-21.68s17.15-6.81,17.15-6.81a5.59,5.59,0,0,1,1.51,5.8c-1,3.78-4.79,6.3-9.58,9.83s-16.39,17.65-16.39,17.65,11.85-12.1,19.16-17.4,16.64-7.06,18.91-7.81,3.53,2.77,1.26,7.31-13.11,8.82-13.11,8.82S447,597.6,444.73,601.13c0,0,10.84-10.09,14.62-12.61S469.44,583,471.2,586s-4.54,11.85-8.32,14.88-8.82,9.58-8.82,9.58-16.14,2.77-33.28,6S380.86,624.49,380.86,624.49Z"/></g></g></g></svg>