<svg xmlns="http://www.w3.org/2000/svg" xmlns:xlink="http://www.w3.org/1999/xlink" viewBox="0 0 610.42 789.21"><defs><style>.cls-1{mask:url(#mask);filter:url(#luminosity-noclip-4);}.cls-2,.cls-21,.cls-23,.cls-36,.cls-37,.cls-4,.cls-6{mix-blend-mode:multiply;}.cls-2{fill:url(#linear-gradient);}.cls-3{mask:url(#mask-2);filter:url(#luminosity-noclip-5);}.cls-4{fill:url(#linear-gradient-2);}.cls-5{mask:url(#mask-3);filter:url(#luminosity-noclip-6);}.cls-6{fill:url(#linear-gradient-3);}.cls-7{fill:none;}.cls-30,.cls-8{isolation:isolate;}.cls-9{clip-path:url(#clip-path);}.cls-10{fill:#fff;}.cls-11{clip-path:url(#clip-path-2);}.cls-12{fill:#e11d48;}.cls-13{fill:#e8426d;}.cls-14{fill:#5a6566;}.cls-15{fill:#e1dbcb;}.cls-16{fill:#8f9ca9;}.cls-17{fill:#4a00e0;}.cls-18{fill:#1d1d1b;}.cls-19{fill:#f4f5fc;}.cls-20{mask:url(#mask-4);}.cls-21{fill:url(#linear-gradient-4);}.cls-22{mask:url(#mask-5);}.cls-23{fill:url(#linear-gradient-5);}.cls-24{fill:#f68987;}.cls-25,.cls-31{fill:#e87979;}.cls-26{fill:url(#linear-gradient-6);}.cls-27{fill:#f1a17f;}.cls-28{fill:url(#linear-gradient-7);}.cls-29{fill:#06233f;}.cls-30{opacity:0.55;}.cls-31{opacity:0.55;}.cls-32{fill:#e5328e;}.cls-33{fill:#493ddd;}.cls-34{fill:#d3d8f2;}.cls-35{mask:url(#mask-6);}.cls-36{fill:url(#linear-gradient-8);}.cls-37{fill:#134c83;opacity:0.42;}.cls-38{filter:url(#luminosity-noclip-3);}.cls-39{filter:url(#luminosity-noclip-2);}.cls-40{filter:url(#luminosity-noclip);}</style><filter id="luminosity-noclip" x="82.3" y="-10705.01" width="99.06" height="32766" filterUnits="userSpaceOnUse" color-interpolation-filters="sRGB"><feFlood flood-color="#fff" result="bg"/><feBlend in="SourceGraphic" in2="bg"/></filter><mask id="mask" x="82.3" y="-10705.01" width="99.06" height="32766" maskUnits="userSpaceOnUse"><g class="cls-40"/></mask><linearGradient id="linear-gradient" x1="137.32" y1="534.6" x2="200.43" y2="589.57" gradientUnits="userSpaceOnUse"><stop offset="0"/><stop offset="1" stop-color="#fff"/></linearGradient><filter id="luminosity-noclip-2" x="411.92" y="-10705.01" width="86.52" height="32766" filterUnits="userSpaceOnUse" color-interpolation-filters="sRGB"><feFlood flood-color="#fff" result="bg"/><feBlend in="SourceGraphic" in2="bg"/></filter><mask id="mask-2" x="411.92" y="-10705.01" width="86.52" height="32766" maskUnits="userSpaceOnUse"><g class="cls-39"/></mask><linearGradient id="linear-gradient-2" x1="455.08" y1="575.17" x2="454.06" y2="705.47" xlink:href="#linear-gradient"/><filter id="luminosity-noclip-3" x="478.08" y="-10705.01" width="74.9" height="32766" filterUnits="userSpaceOnUse" color-interpolation-filters="sRGB"><feFlood flood-color="#fff" result="bg"/><feBlend in="SourceGraphic" in2="bg"/></filter><mask id="mask-3" x="478.08" y="-10705.01" width="74.9" height="32766" maskUnits="userSpaceOnUse"><g class="cls-38"/></mask><linearGradient id="linear-gradient-3" x1="497.93" y1="503.37" x2="476.05" y2="503.37" xlink:href="#linear-gradient"/><clipPath id="clip-path"><rect class="cls-7" y="-925.23" width="610.42" height="789.21"/></clipPath><clipPath id="clip-path-2"><rect class="cls-7" width="610.42" height="789.21"/></clipPath><filter id="luminosity-noclip-4" x="82.3" y="411.82" width="99.06" height="231.58" filterUnits="userSpaceOnUse" color-interpolation-filters="sRGB"><feFlood flood-color="#fff" result="bg"/><feBlend in="SourceGraphic" in2="bg"/></filter><mask id="mask-4" x="82.3" y="411.82" width="99.06" height="231.58" maskUnits="userSpaceOnUse"><g class="cls-1"><path class="cls-2" d="M171.69,411.82c5.09,25.45,9.67,150.65,9.67,150.65L139.12,643.4s-34.1-3.06-51.41-1,11.2-87.54,24.94-129.28S171.69,411.82,171.69,411.82Z"/></g></mask><linearGradient id="linear-gradient-4" x1="137.32" y1="534.6" x2="200.43" y2="589.57" gradientUnits="userSpaceOnUse"><stop offset="0" stop-color="#fff"/><stop offset="1" stop-color="#d3d8f2"/></linearGradient><filter id="luminosity-noclip-5" x="411.92" y="544.66" width="86.52" height="156.29" filterUnits="userSpaceOnUse" color-interpolation-filters="sRGB"><feFlood flood-color="#fff" result="bg"/><feBlend in="SourceGraphic" in2="bg"/></filter><mask id="mask-5" x="411.92" y="544.66" width="86.52" height="156.29" maskUnits="userSpaceOnUse"><g class="cls-3"><path class="cls-4" d="M453.61,701c-1-9.71,8.19-14.29,19.38-29.05s17.31-17.31,17.31-17.31-6.62-3.56-4.08-9.67a21,21,0,0,1,7.64-9.16s-10.69-9.16-5.09-26,9.67-30,9.67-39.19-3.56-26-3.56-26l-83,9.67,3.56,146.07Z"/></g></mask><linearGradient id="linear-gradient-5" x1="455.08" y1="575.17" x2="454.06" y2="705.47" xlink:href="#linear-gradient-4"/><linearGradient id="linear-gradient-6" x1="278.06" y1="282" x2="394.78" y2="282" gradientUnits="userSpaceOnUse"><stop offset="0" stop-color="#f1a17f"/><stop offset="1" stop-color="#e87979"/></linearGradient><linearGradient id="linear-gradient-7" x1="-1731.35" y1="-7941.84" x2="-1731.35" y2="-7915.63" gradientTransform="translate(2320.32 15420.09) rotate(4.92) scale(1.9)" xlink:href="#linear-gradient-6"/><filter id="luminosity-noclip-6" x="478.08" y="382.18" width="74.9" height="242.38" filterUnits="userSpaceOnUse" color-interpolation-filters="sRGB"><feFlood flood-color="#fff" result="bg"/><feBlend in="SourceGraphic" in2="bg"/></filter><mask id="mask-6" x="478.08" y="382.18" width="74.9" height="242.38" maskUnits="userSpaceOnUse"><g class="cls-5"><path class="cls-6" d="M488.26,624.57,553,594.24c-3.92-19.91-8.4-39.33-11.83-55.48-9.5-44.78-10.86-114-37.32-146.58-2.84-3.49-5.83-6.81-8.91-10L478.08,450c0,28,4.07,55.48,11.71,78.38s7.12,57,3.56,71.77S488.26,624.57,488.26,624.57Z"/></g></mask><linearGradient id="linear-gradient-8" x1="497.93" y1="503.37" x2="476.05" y2="503.37" xlink:href="#linear-gradient-4"/></defs><g class="cls-8"><g id="Layer_1" data-name="Layer 1"><g class="cls-9"><rect class="cls-10" x="78.48" y="-429.36" width="463.75" height="452.41"/></g><g class="cls-11"><rect class="cls-10" x="102.64" y="495.86" width="362.83" height="452.41"/><path class="cls-12" d="M315.39,12.29S335.74-7,366.62,2.79c30.58,9.74,49.54,30.54,57,57.34s.68,55.65-.34,70.58-5.42,47.84-4.41,74,3.4,41.73-3.05,70.57-13.23,44.11-13.23,44.11S198,326.15,198,324.45,212.1,288,226.15,267.11c13.23-19.68,22.9-43.79,27.14-58.36,5.43-18.66,4.41-48.86,7.81-63.79s-4.41-37.66-2.72-58,11.88-43.43,25.45-58A56.05,56.05,0,0,1,315.39,12.29Z"/><path class="cls-13" d="M316.06,28.24c1.76,2.4,3.47,4.83,5.33,7.12.9,1.17,1.88,2.25,2.83,3.36a40.37,40.37,0,0,0,3.09,3.05,30.55,30.55,0,0,0,7,4.89l.94.49,1,.42c.65.27,1.29.58,1.95.83,1.36.44,2.68,1,4.08,1.27a87.29,87.29,0,0,0,17.17,2.41,121.93,121.93,0,0,1,18,2.13,48.14,48.14,0,0,1,17.15,7,39.55,39.55,0,0,1,12,14.09,73.08,73.08,0,0,1,6.08,17.08A123.32,123.32,0,0,1,415.48,110c-1.49-5.76-3.09-11.46-5-17a82.41,82.41,0,0,0-7-15.91c-3.07-4.87-6.66-9.3-11.37-12.28a45,45,0,0,0-15.69-6.1,126.81,126.81,0,0,0-17.3-2.29,79.34,79.34,0,0,1-17.87-3.31,34.7,34.7,0,0,1-15.5-9.73,45.45,45.45,0,0,1-5.38-7.28C318.76,33.55,317.41,30.89,316.06,28.24Z"/><path class="cls-13" d="M420.23,111.71a75.52,75.52,0,0,0-1.49-9.37c-.67-3.08-1.37-6.15-2.24-9.19a163,163,0,0,0-5.92-17.85c-2.44-5.72-5-11.44-9.17-15.6s-9.56-7-15.36-9.05a137.8,137.8,0,0,0-18-4.79c-3.08-.62-6.16-1.27-9.27-1.84s-6.3-1.22-9.41-2.1c-6.21-1.67-12.43-4-17.77-7.87a34.53,34.53,0,0,1-6.95-6.81c-2-2.54-3.65-5.23-5.49-7.82,2.25,2.25,4.3,4.7,6.51,6.92a35.45,35.45,0,0,0,7.25,5.73,42.15,42.15,0,0,0,8.38,3.78,73,73,0,0,0,9,2.43c3,.64,6.1,1.16,9.22,1.65s6.3,1,9.44,1.6a127.65,127.65,0,0,1,18.71,4.83c6.08,2.23,12.28,5.33,16.91,10.4a36,36,0,0,1,5.64,8.31,77.51,77.51,0,0,1,3.71,9,128.67,128.67,0,0,1,4.78,18.61c.56,3.14,1,6.3,1.33,9.48A58.6,58.6,0,0,1,420.23,111.71Z"/><path class="cls-13" d="M424,106.62A158.93,158.93,0,0,0,422,88.05a100.51,100.51,0,0,0-4.37-17.87A54.87,54.87,0,0,0,414,61.92a49.6,49.6,0,0,0-5-7.37,49.92,49.92,0,0,0-13.93-11,108.11,108.11,0,0,0-16.87-7.11c-5.88-2-11.9-3.84-17.8-5.93s-11.78-4.28-17.55-6.76A99.62,99.62,0,0,1,326.24,15a129.59,129.59,0,0,0,17.31,7q8.86,3,17.84,5.55c6,1.76,12,3.41,18,5.09a93.7,93.7,0,0,1,17.84,6.9,60.61,60.61,0,0,1,8.2,5.25,48.64,48.64,0,0,1,7,6.88A50,50,0,0,1,421.34,69a87.26,87.26,0,0,1,3.15,18.79A96.48,96.48,0,0,1,424,106.62Z"/><path class="cls-13" d="M408.35,39.78C403.12,35.25,397.18,32,391.14,29c-1.55-.7-3-1.48-4.59-2.15s-3.09-1.38-4.65-2-3.12-1.29-4.69-1.94l-4.75-1.8c-6.34-2.36-12.75-4.59-19.25-6.58a160.24,160.24,0,0,0-19.84-4.95c6.91-.78,13.93.14,20.72,1.48a130,130,0,0,1,20,5.76,109.41,109.41,0,0,1,18.78,9.08A67.14,67.14,0,0,1,401.37,32a44.78,44.78,0,0,1,3.78,3.64A38.21,38.21,0,0,1,408.35,39.78Z"/><path class="cls-13" d="M308.6,34.35a179.74,179.74,0,0,1-6.86,20.36,84.53,84.53,0,0,1-10.87,18.81c-1.09,1.44-2.34,2.85-3.42,4.21l-1.64,2-1.56,2.06c-1.05,1.38-2,2.83-2.95,4.28l-1.4,2.2-1.33,2.25a134.19,134.19,0,0,0-9,19.16A70.81,70.81,0,0,1,275.53,89a66.55,66.55,0,0,1,5.28-9.56l1.54-2.28L284,74.92c1.11-1.45,2.2-2.72,3.23-4.14,2.06-2.79,4.07-5.63,5.88-8.6s3.59-6,5.26-9.07C301.74,46.93,304.75,40.43,308.6,34.35Z"/><path class="cls-13" d="M310,22.47a54.59,54.59,0,0,0-14.83,18.9,93.73,93.73,0,0,0-4.62,11.1A57.57,57.57,0,0,1,285,64c-2.29,3.57-4.82,6.9-7.36,10.13s-5.08,6.38-7.24,9.67c-.57.82-1,1.68-1.5,2.53S268,88,267.66,88.94a41,41,0,0,0-2,5.65,40,40,0,0,0-1.55,12,31.49,31.49,0,0,1-.66-12.47,42.65,42.65,0,0,1,1.33-6.21,30.07,30.07,0,0,1,1.07-3.06c.46-1,.87-2,1.4-2.91,4.07-7.57,9.67-13.63,13.81-20.44A56.35,56.35,0,0,0,286.44,51,74.27,74.27,0,0,1,292,39.64a52,52,0,0,1,7.75-10A37.25,37.25,0,0,1,310,22.47Z"/><path class="cls-13" d="M290.62,30.27a114.68,114.68,0,0,0-7,10.33c-2.13,3.5-4.14,7-6.09,10.66s-3.86,7.24-5.74,10.91l-5.64,11.2a44.43,44.43,0,0,1,2.3-12.58,69.81,69.81,0,0,1,5-11.73,61.61,61.61,0,0,1,7.22-10.58A33.78,33.78,0,0,1,290.62,30.27Z"/><path class="cls-13" d="M212.58,312.58a85,85,0,0,1,7-17.85c2.92-5.71,6.21-11.2,9.51-16.64,6.71-10.83,13.41-21.55,19.35-32.66l2.18-4.19c.71-1.4,1.34-2.82,2-4.23s1.29-2.84,1.9-4.28,1.21-2.87,1.71-4.34a99.32,99.32,0,0,0,4.79-18.06,146.4,146.4,0,0,0,1.67-18.8c.23-6.34.32-12.75,1.05-19.09.14,6.38.67,12.7,1,19.08a120.62,120.62,0,0,1-.41,19.27c-1.33,12.9-5.89,25.41-11.91,36.74s-13,22.14-20.16,32.61S217.76,300.9,212.58,312.58Z"/><path class="cls-13" d="M229.2,304.43a87,87,0,0,1,6.11-14.54c1.17-2.35,2.42-4.65,3.68-6.95s2.54-4.57,3.86-6.82c2.59-4.55,5.33-9,8-13.46l4.08-6.66c1.31-2.23,2.55-4.38,3.66-6.69,4.51-9.13,7.46-19.08,9.79-29.17s4-20.4,5.62-30.73a224.25,224.25,0,0,1-2.69,31.31A156.84,156.84,0,0,1,268,236.19a106.41,106.41,0,0,1-5.47,15c-1.06,2.44-2.45,4.81-3.73,7.1l-4,6.76c-2.76,4.44-5.51,8.89-8.4,13.23-1.42,2.19-2.85,4.37-4.33,6.52l-4.35,6.48C234.79,295.62,231.85,299.89,229.2,304.43Z"/><path class="cls-13" d="M246.85,296.63c1.86-8,5.48-15.45,9.67-22.43,1.07-1.74,2.14-3.48,3.32-5.14l1.78-2.5,1.63-2.43a89.57,89.57,0,0,0,5.71-10.3c1.63-3.6,3.15-7.27,4.53-11s2.56-7.56,3.73-11.4c2.28-7.69,4.24-15.51,6.28-23.34a225.24,225.24,0,0,1-3.72,24,131,131,0,0,1-7.15,23.4,86.38,86.38,0,0,1-5.67,11l-6.67,10.09C255.88,283.24,251.55,289.92,246.85,296.63Z"/><path class="cls-13" d="M399.87,301.72c1.34-10.87,3.13-21.59,4.75-32.31.77-5.36,1.66-10.69,2.29-16.05l.51-4,.4-4c.21-2.67.37-5.36.51-8.05.47-10.79.46-21.66.46-32.53s-.14-21.77.24-32.68c1,10.86,2,21.7,2.71,32.59s1.1,21.79.88,32.77a157,157,0,0,1-1.16,16.48c-.76,5.45-1.62,10.86-2.77,16.21A227.8,227.8,0,0,1,399.87,301.72Z"/><path class="cls-13" d="M391.05,292.22c.35-7.94,1.27-15.71,2.33-23.46s2.41-15.45,3.46-23.15,1.81-15.46,2.25-23.24.58-15.59.44-23.46c2.91,15.48,3,31.48,1.48,47.18a231.63,231.63,0,0,1-3.44,23.39A137.3,137.3,0,0,1,391.05,292.22Z"/><path class="cls-10" d="M279.21,268c-6.79,4.07-12.56,13.23-16.29,17s-29.86,19-55,33.26-73.29,31.21-86.86,54.29S79.7,483.8,67.48,547.59s-34.61,156.08-2,181.18S453.61,701,453.61,701s-9.5,83.47,21,78.72,76-54.29,84.82-90.25-8.82-105.87-18.32-150.66-10.86-114-37.32-146.58S438.68,341.29,419,320.93s-29.18-41.39-40.72-44.11S279.21,268,279.21,268Z"/><path class="cls-14" d="M250.15,504.9A19.24,19.24,0,1,1,234,483,19.23,19.23,0,0,1,250.15,504.9Z"/><circle class="cls-15" cx="231.13" cy="502.01" r="16.73" transform="translate(-312.21 400.93) rotate(-54.74)"/><path class="cls-16" d="M426.26,581.86h-.17c-24.38-.07-37.33-46.78-45.89-87.47-.44-2.11-.81-3.88-1.12-5.26a2.89,2.89,0,1,1,5.64-1.26c.31,1.39.69,3.19,1.14,5.33,4.31,20.48,17.42,82.81,40.25,82.88h.15c14.46,0,27.54-6.5,27.67-6.57a2.89,2.89,0,0,1,2.6,5.17C456,575,442.08,581.86,426.26,581.86Z"/><path class="cls-16" d="M413.72,584.25c-6.58,0-13-1.57-17.83-2.73l-2.91-.7a2.89,2.89,0,0,1,1.28-5.64c.94.21,1.94.46,3,.72,15.85,3.84,30.63,5.81,37.24-12.19s10.11-44.76,12.69-64.37c.8-6.13,1.56-11.91,2.3-16.6a2.89,2.89,0,1,1,5.71.9c-.72,4.62-1.48,10.37-2.28,16.45-2.75,21-6.18,47.12-13,65.62C434.5,580.49,423.93,584.25,413.72,584.25Z"/><path class="cls-17" d="M230.86,504.7a3.06,3.06,0,0,1-3-2.62,595.51,595.51,0,0,1-4.9-62.08q-.09-3.76-.24-8.18c-1.13-35.66-3.23-102.06,33.64-141.2a3.06,3.06,0,0,1,4.46,4.19c-35.13,37.3-33.08,102-32,136.82.1,2.95.18,5.7.24,8.23a587.7,587.7,0,0,0,4.84,61.35,3.06,3.06,0,0,1-2.59,3.46Z"/><path class="cls-17" d="M416.85,417.15h-.17a3.06,3.06,0,0,1-2.89-3.22c0-.24,1.26-23.84,0-47.12l-.08-1.47c-1.23-23-2.39-44.73-27.34-67a3.06,3.06,0,0,1,4.07-4.57c26.85,23.92,28.14,48,29.39,71.2l.08,1.47c1.27,23.62,0,47.54,0,47.78A3.07,3.07,0,0,1,416.85,417.15Z"/><path class="cls-17" d="M381.37,489.89a3.07,3.07,0,0,1-3-2.32c-6-23.7-2.7-47.27,8.56-61.52,7.67-9.7,18.58-14.74,31.54-14.54a29.07,29.07,0,0,1,21.84,9.72c17.57,19.2,14.74,60.24,14.61,62a3.06,3.06,0,0,1-6.11-.45c0-.4,2.77-40.16-13-57.4a22.9,22.9,0,0,0-17.41-7.73c-11.14-.12-20.11,3.95-26.65,12.22-10.1,12.78-12.95,34.33-7.42,56.23a3.06,3.06,0,0,1-2.22,3.71A2.76,2.76,0,0,1,381.37,489.89Z"/><path class="cls-18" d="M459.4,569.19c1.82,4.34.86,6-3.57,7.39a37.73,37.73,0,0,1-6.24,1.44l-2.34-6.32s4.28-3.51,7-4C456.63,567.34,458.7,567.53,459.4,569.19Z"/><path class="cls-18" d="M386.08,574.39c-1.34,4.51-.21,6.11,4.34,7a38.83,38.83,0,0,0,6.35.77l1.66-6.53s-4.63-3-7.36-3.2C388.64,572.25,386.6,572.66,386.08,574.39Z"/><path class="cls-19" d="M274,353.8c12.72-.51,29,0,29,0s-8.14,10.69-12.72,14.76a90.26,90.26,0,0,0,28,20.87c17.3,8.14,26.47,9.67,38.68,20.36a110.9,110.9,0,0,1,19.51,22.56s39.53-45,41.56-49l-21.88-16.79s8.14-12.73,14.25-16.8A100.83,100.83,0,0,0,423.11,339s-9.29-17.89-14.29-29.63c-13.17-16.15-21.19-30.39-30.54-32.59-11.53-2.71-99.07-8.82-99.07-8.82-6.79,4.07-12.56,13.23-16.29,17a28.4,28.4,0,0,1-3.65,2.79c-5.75,19.37-9.46,51.56-7.67,64.52A100.55,100.55,0,0,0,274,353.8Z"/><g class="cls-20"><path class="cls-21" d="M171.69,411.82c5.09,25.45,9.67,150.65,9.67,150.65L139.12,643.4s-34.1-3.06-51.41-1,11.2-87.54,24.94-129.28S171.69,411.82,171.69,411.82Z"/></g><g class="cls-22"><path class="cls-23" d="M453.61,701c-1-9.71,8.19-14.29,19.38-29.05s17.31-17.31,17.31-17.31-6.62-3.56-4.08-9.67a21,21,0,0,1,7.64-9.16s-10.69-9.16-5.09-26,9.67-30,9.67-39.19-3.56-26-3.56-26l-83,9.67,3.56,146.07Z"/></g><path class="cls-24" d="M266.37,112.91c-11.34-6.82-23.66-2.49-26.07,15.54S242,166,254.14,172.74s16.78.22,16.78.22Z"/><path class="cls-25" d="M269.6,155.54l-2.08-27.4c-1.33-1.38-6.86-6.62-12.56-4.52-6.53,2.41-7.57,16.91-3.92,25.3S261.54,159.08,269.6,155.54Z"/><path class="cls-24" d="M415.41,116.56c10.39-6.19,21.84-1.15,24.29,17.05s-1.12,37.57-12.25,43.61-15.5-.73-15.5-.73Z"/><path class="cls-25" d="M413,159.11l1.58-27.35c1.21-1.31,6.26-6.25,11.55-3.82,6.07,2.79,7.22,17.38,3.95,25.59C426.81,161.58,420.45,163.11,413,159.11Z"/><path class="cls-26" d="M394.78,212.83s-3,20.69-5.08,33.93-2,40-2,40-4.37,35.25-8.25,66.89c-13.37,1.6-35.43,3.46-54.77,1.25-3.74-5.14-7.44-10.48-10.95-15.88-17-26.13-35.63-70.93-35.63-70.93,3.05-9.49,5.77-41.38,5.44-60.05Z"/><path class="cls-27" d="M276,104.92c-6.48,13.68-7.13,31.05-6.62,52.93s3.31,37.41,9.92,49.37c6.91,12.48,27.3,33.63,37.41,40.21,10.95,7.12,28.91,8.8,41.48,3.82,14.76-5.86,31.81-23.92,42.5-44.79S417,164,417,145.64s-9.16-44.28-15.27-56.5-16.29-21.54-29-24.6-24.09-.17-38.34-3.73-21.72-20.53-21.72-20.53A118.19,118.19,0,0,1,301,68.79C292.31,84.05,280.61,95.25,276,104.92Z"/><path class="cls-28" d="M339.57,120.47l-18.2,42a4.57,4.57,0,0,0,4.08,6.27l25.56.91-5.62-49.12Z"/><path class="cls-12" d="M403.77,120a79.93,79.93,0,0,0-25-3.92c-4.16,0-8.35.2-12.62.54s-8.6.81-13.19,1a39.61,39.61,0,0,1,12.22-6,45.88,45.88,0,0,1,13.62-2,38.8,38.8,0,0,1,13.71,2.49A27,27,0,0,1,403.77,120Z"/><path class="cls-12" d="M332,118.17a79.93,79.93,0,0,0-25-3.92c-4.15,0-8.35.2-12.62.54s-8.59.81-13.19,1a39.66,39.66,0,0,1,12.23-6,45.83,45.83,0,0,1,13.62-2,38.58,38.58,0,0,1,13.71,2.49A27.08,27.08,0,0,1,332,118.17Z"/><path class="cls-29" d="M299.18,132.15a4.58,4.58,0,1,0,4.58-4.75A4.66,4.66,0,0,0,299.18,132.15Z"/><path class="cls-29" d="M374,134.19a4.58,4.58,0,1,0,4.58-4.76A4.67,4.67,0,0,0,374,134.19Z"/><g class="cls-30"><circle class="cls-31" cx="296.55" cy="165.23" r="20.87" transform="translate(96.09 439.2) rotate(-82.93)"/></g><g class="cls-30"><circle class="cls-31" cx="381.38" cy="165.32" r="20.87"/></g><path class="cls-32" d="M370.18,187.72c-.33,7.07-13.57,17.47-30.43,17.47s-30.28-10.58-30.64-17.47c-.4-7.55,13.67-6.17,30.54-6.17S370.58,179.25,370.18,187.72Z"/><path class="cls-10" d="M368.49,187c-.47,4.27-13.31,10.2-28.74,10.2s-28.59-5.66-29.05-9.84c-.5-4.56,13.32.19,28.75.19S369,182.32,368.49,187Z"/><path class="cls-17" d="M378.5,361.1c-4.07,33.24-2,70.24-2,71.25s-8.82-21.72-16.62-32.24c-6.18-8.34-20.92-25.42-35.2-45.18,19.34,2.21,41.4.35,54.77-1.25C379.09,356.19,378.79,358.67,378.5,361.1Z"/><polygon class="cls-12" points="173.9 451.01 439.91 460.68 428.37 768.6 166.43 761.14 173.9 451.01"/><path class="cls-33" d="M168.13,479.51l215.73,8A16.83,16.83,0,0,1,400.05,505L390,757.91,373.5,784.2a10.73,10.73,0,0,1-9.54,5l-228.91-9.91,7.12-269.24,3.15-3.7,19.75.39.14-23.8Z"/><path class="cls-10" d="M382.11,516.6c-7.52,1.29-16.39,1-22.62.83-12.89-.34-205.61-10.95-205.61-10.95L174,483.33s195,7.37,200.46,7.37a58.49,58.49,0,0,1,7.48.31Z"/><path class="cls-27" d="M447.64,645.11a7.21,7.21,0,0,0-1.17,5.58,19,19,0,0,1-.62,9,29.65,29.65,0,0,1-3.47,7.68,7.67,7.67,0,0,0-1.12,5c.42,3.29.72,6.17-2.2,12.06C435.7,691.24,407.68,696,388.67,698s-43.77,6.1-60.39,11.2-32.92,8.48-32.92,8.48c-4.32-19.18-7.27-48.32-6.32-68.64,22.07-.54,40.48-3,52.13-6.19,18.32-5.08,27.49-18.49,39.36-24.93s24.43-4.07,30.54-5.77,18.32-2.71,18.32,1.36-8.15,10.85-13.92,12.55l18-4.74.69-17s9.7,3.4,11.61,8.11c2.6,6.4,1.75,10.48.38,12.85s3.62,3.3,3.82,10.43C450.09,640.34,448.88,643.3,447.64,645.11Z"/><path class="cls-10" d="M298.42,728.9S248,745.7,162.53,741.11s-93.66-7.12-106.37-27,46.31-69.73,46.31-69.73c35.63-2,105.86.51,145.57,3.57a402.8,402.8,0,0,0,41,1.09c-1,20.32,2,49.46,6.32,68.64Z"/><path class="cls-34" d="M489.28,740.1c2-23.41-12.73-40.72-24.18-40.21l-12.74,19.68c-.81,24.3,1.12,63.39,22.29,60.1C491.57,773.44,487.24,763.51,489.28,740.1Z"/><path class="cls-27" d="M465.1,699.89a33.08,33.08,0,0,1,18.33,29.52c.5,21.89-7.48,30.32-15.53,34.1-13,6.11-38.93,15-53.44,16.8-13.7,1.68-46.82-8.91-55-13.24s-9.92-7.89-7.88-11.45,14.25-1.78,14.25-1.78S344,749.51,345,739.59s25.45-.25,25.45-.25-26.72-5.35-24.18-14.51,29.78-.25,29.78-.25-20.49-2.75-16.8-12.47c2.8-7.38,22.14-1.53,50.39-2.8,18.41-.83,21.12-3.06,21.12-3.06l.76-9.92S451.36,700.15,465.1,699.89Z"/><g class="cls-35"><path class="cls-36" d="M488.26,624.57,553,594.24c-3.92-19.91-8.4-39.33-11.83-55.48-9.5-44.78-10.86-114-37.32-146.58-2.84-3.49-5.83-6.81-8.91-10L478.08,450c0,28,4.07,55.48,11.71,78.38s7.12,57,3.56,71.77S488.26,624.57,488.26,624.57Z"/></g><path class="cls-37" d="M396.65,505c0,7.1-10.69,13.39-29.52,12.88L381.91,491C388.66,491.79,396.65,494.67,396.65,505Z"/></g></g></g></svg>