<svg xmlns="http://www.w3.org/2000/svg" xmlns:xlink="http://www.w3.org/1999/xlink" viewBox="0 0 610.42 789.21"><defs><style>.cls-1{isolation:isolate;}.cls-2{fill:none;}.cls-3{fill:#f1a17f;}.cls-4{opacity:0.44;}.blue-shade-27,.cls-4{mix-blend-mode:multiply;}.blue-shade-27,.cls-5{fill:#134c83;}.cls-6{fill:#f27852;}.cls-7{fill:#5888f8;}.cls-8{fill:url(#linear-gradient);}.cls-9{fill:#493ddd;}.cls-10{fill:#f68987;}.cls-11,.cls-17{fill:#e87979;}.blue-shade-27{opacity:0.17;}.cls-12{fill:#4a00e0;}.cls-13{fill:#06233f;}.cls-14{fill:url(#linear-gradient-2);}.cls-15{fill:#fff;}.cls-16,.cls-17{opacity:0.55;}.cls-18{fill:#ddebf0;}.cls-19{fill:#d4dce8;}.cls-20{fill:#1d1d1b;}.cls-21{fill:#6865ef;}</style><linearGradient id="linear-gradient" x1="213.87" y1="278.45" x2="374.16" y2="278.45" gradientUnits="userSpaceOnUse"><stop offset="0" stop-color="#f1a17f"/><stop offset="1" stop-color="#e87979"/></linearGradient><linearGradient id="linear-gradient-2" x1="295.55" y1="128.57" x2="295.55" y2="181.7" xlink:href="#linear-gradient"/></defs><g class="cls-1"><g id="Layer_1" data-name="Layer 1"><rect class="cls-2" width="610.42" height="789.21"/><path class="cls-3" d="M41.79,633.85c-7.92,33.08-11.51,75.52-9.35,91.34s33.08,64,33.08,64h95.66L128.1,734.54l12.94-82Z"/><path class="cls-3" d="M464,635.29S475.5,690,474.78,707.21s-8.63,82-8.63,82h93.5s6.48-54,4.32-82.72-3.6-93.5-3.6-93.5Z"/><g class="cls-4"><path class="cls-5" d="M141,652.55l-99.25-18.7c-1.09,4.52-2.08,9.23-3,14l100,19Z"/><path class="cls-5" d="M560.37,613,464,635.29s1.42,6.76,3.24,16.27l94-6.26C560.69,627.22,560.37,613,560.37,613Z"/><path class="cls-6" d="M141,652.55l-99.25-18.7c-1.09,4.52-2.08,9.23-3,14l100,19Z"/><path class="cls-6" d="M560.37,613,464,635.29s1.42,6.76,3.24,16.27l94-6.26C560.69,627.22,560.37,613,560.37,613Z"/></g><path class="cls-7" d="M586.26,615.5,466.51,639.24s-9.71,30.22-11.87,44.23-2.16,105.74-2.16,105.74H161.18s-1.08-52.87-1.08-73.37-12.95-53.94-12.95-53.94l-123-28S63.72,476.34,90.7,422.38C114,375.7,185.34,346.77,213.87,319.57c7.71,32.3,38.35,78.27,47.29,92,9.34,14.38,27.33,33.09,27.33,33.09s38.12-37.41,55.38-66.19C358,355,370.2,317.93,374.16,305.26,387,319.29,404.29,331.75,423,344c37.41,24.47,64,29.85,92.07,79.49S586.26,615.5,586.26,615.5Z"/><path class="cls-8" d="M374.16,305.26c-2.24,7.15-7.1,22.11-13.48,38-46.33,7.95-102.85,5.37-139.38-2a138.85,138.85,0,0,1-7.43-21.64c4.45-4.24,7.85-8.42,9.88-12.62,15.12-31.29,15.12-72.29,15.12-98.18l108.61,9.35a177.62,177.62,0,0,0,7.18,54.66C358.23,284.69,365.09,295.37,374.16,305.26Z"/><path class="cls-9" d="M360.68,343.25c-4.88,12.23-10.67,25-16.81,35.25-17.26,28.78-55.38,66.19-55.38,66.19s-18-18.71-27.33-33.09c-7.07-10.89-27.71-41.91-39.86-70.39C257.83,348.62,314.35,351.2,360.68,343.25Z"/><path class="cls-10" d="M233.89,126.29c-16.57-6.3-34.95-1.31-39.07,17s1.4,37.78,19.14,43.94,24.84-.62,24.84-.62Z"/><path class="cls-11" d="M237.37,169.1l-2.24-27.51c-1.92-1.33-10-6.33-18.45-3.93-9.75,2.76-11.73,17.43-6.58,25.7S225.33,173.07,237.37,169.1Z"/><path class="cls-10" d="M355,128.45c16.58-6.3,35-1.31,39.07,17s-1.4,37.79-19.14,44-24.83-.62-24.83-.62Z"/><path class="cls-11" d="M351.48,171.26l2.24-27.51c1.93-1.33,10-6.33,18.45-3.93,9.75,2.76,11.73,17.43,6.58,25.7C373.7,173.64,363.52,175.23,351.48,171.26Z"/><path class="cls-3" d="M220.52,112.74c-1.08,10.25,0,27.52,3.24,51.25s4.85,40.46,15.1,56.1,29.67,37.22,43.16,38.84,27.51,2.16,38.84-3.77,27-21,32.9-31.83,17.27-61,17.81-73.9S288,48.55,262.06,49.63,220.52,112.74,220.52,112.74Z"/><path class="blue-shade-27" d="M259.09,58.53c9.26,26.88,31.2,48.46,39.47,56.37s31.29,14,40.28,23.74,28.05,37,28.05,37l-5.39-49.27-80.56-74.8Z"/><path class="cls-12" d="M309.72,125.56a77.31,77.31,0,0,1,11.41-2.4,75.59,75.59,0,0,1,11.15-.55c3.73.08,7.49.37,11.32.77s7.69.92,11.81,1.23a35.73,35.73,0,0,0-10.84-5.69,41.25,41.25,0,0,0-12.18-2.11A34.76,34.76,0,0,0,320,118.74,24.13,24.13,0,0,0,309.72,125.56Z"/><path class="cls-12" d="M249.11,29.51S238.86,30.91,227.53,41a38.45,38.45,0,0,0-12.4,23.33s-7,10.11-6.48,27.54,4.86,42.15,14,60.7c0,0,0-30.91,2.16-39.91S259.09,53.4,259.09,53.4s10,20.79,24.55,36.25a101.82,101.82,0,0,0,30.21,22.2l-2.16-6.74S327.06,119.44,336,124.5l-2.69-9.28s12.13,17.15,20,24.73,13.76,30.64,12.95,41c0,0,9.71-23.88,12.41-35.41s7.55-19.11,8.63-37.09,1.29-63.55-25-83.13C345.31,12.77,330,9.84,317.08,7l3.51-3.38s-7-4.21-21.31-3.09A59.32,59.32,0,0,0,274.2,8.71L276.62.56a31.51,31.51,0,0,0-12.13,8.71L262.87,0a56.3,56.3,0,0,0-8.63,12.37C250.73,19.39,249.11,29.51,249.11,29.51Z"/><path class="cls-12" d="M281.15,125.56a77.31,77.31,0,0,0-11.41-2.4,75.66,75.66,0,0,0-11.15-.55c-3.74.08-7.49.37-11.32.77s-7.7.92-11.82,1.23a35.84,35.84,0,0,1,10.84-5.69,41.36,41.36,0,0,1,12.18-2.11,34.73,34.73,0,0,1,12.36,1.93A24.11,24.11,0,0,1,281.15,125.56Z"/><path class="cls-13" d="M252,139a3.51,3.51,0,1,0,3.51-3.64A3.58,3.58,0,0,0,252,139Z"/><path class="cls-13" d="M328.2,139a3.51,3.51,0,1,0,3.51-3.64A3.58,3.58,0,0,0,328.2,139Z"/><polygon class="cls-14" points="289.11 129.24 281.39 177.36 297.41 181.7 309.71 178.03 302.84 128.57 289.11 129.24"/><path class="cls-10" d="M300.62,179.3a3.93,3.93,0,0,1,2.56-4.63,3.38,3.38,0,0,1,4,3Z"/><path class="cls-10" d="M291.19,179.3a3.93,3.93,0,0,0-2.56-4.63,3.37,3.37,0,0,0-4,3Z"/><path class="cls-15" d="M323,198.4c-21.4.83-46.29.89-54.85.48C278.6,210,309.71,213.62,323,198.4Z"/><g class="cls-16"><path class="cls-17" d="M272.31,170.19a18.07,18.07,0,1,1-18.07-18.07A18.07,18.07,0,0,1,272.31,170.19Z"/></g><g class="cls-16"><path class="cls-17" d="M354.3,170.19a18.07,18.07,0,1,1-18.07-18.07A18.07,18.07,0,0,1,354.3,170.19Z"/></g><path class="cls-9" d="M213.85,514.79a19.1,19.1,0,1,1-16-21.75A19.1,19.1,0,0,1,213.85,514.79Z"/><circle class="cls-18" cx="194.97" cy="511.92" r="16.61" transform="translate(-352.57 495.44) rotate(-67.43)"/><path class="cls-19" d="M382.59,582.64a69.77,69.77,0,0,1-21.83-3.29c-23-7.69-20.56-55.76-15.9-96.77.24-2.12.44-3.91.58-5.3a2.87,2.87,0,1,1,5.72.57c-.14,1.41-.35,3.23-.59,5.38-2.35,20.64-9.48,83.47,12,90.68,13.67,4.58,28.13,2.52,28.27,2.5a2.87,2.87,0,0,1,.84,5.68A66.8,66.8,0,0,1,382.59,582.64Z"/><path class="cls-19" d="M407.66,581.89a2.87,2.87,0,0,1-.15-5.74l3.05-.13c16.18-.62,30.83-2.75,32.27-21.73s-2.47-45.49-5.33-64.92c-.89-6.07-1.73-11.8-2.29-16.48a2.87,2.87,0,0,1,5.7-.69c.55,4.61,1.39,10.31,2.27,16.33,3.06,20.8,6.86,46.69,5.38,66.19-2,25.66-25.26,26.56-37.78,27l-3,.13Z"/><path class="cls-9" d="M193.46,450.21c-.06-2.51-.15-5.25-.24-8.18-1.08-34.13-3.06-97.38,30.67-134.39a55.91,55.91,0,0,0-18.63,13.74c-21.8,38.91-20.17,90.84-19.22,120.88q.15,4.37.24,8.12a590.07,590.07,0,0,0,4.87,61.69,3.6,3.6,0,0,0,3.55,3.08,4.38,4.38,0,0,0,.51,0,3.59,3.59,0,0,0,3-4.06A582.19,582.19,0,0,1,193.46,450.21Z"/><path class="cls-9" d="M398.5,359.69c-.89-16.56-1.81-33.51-12-50.56a61.16,61.16,0,0,0-8.11-8.51c-4.22-3.52-9.34-5.46-14.5-7.18a3.57,3.57,0,0,0,.49.54c24.6,21.91,25.75,43.37,27,66.09l.08,1.47c1.24,23.07,0,46.48,0,46.71A3.58,3.58,0,0,0,394.8,412H395a3.58,3.58,0,0,0,3.58-3.4c0-.23,1.27-24,0-47.49Z"/><path class="cls-9" d="M348.3,484.25h-.15a3.59,3.59,0,0,1-3.44-3.73c1.5-35.92,15.62-74.11,50.69-74.11h.69c17.27.24,30.73,12.79,38.92,36.27a145.13,145.13,0,0,1,7.11,34.4,3.59,3.59,0,0,1-7.17.46c0-.63-4.51-63.46-39-64-13.87-.25-24.92,6.68-32.69,20.44-6.59,11.68-10.64,28.29-11.41,46.78A3.59,3.59,0,0,1,348.3,484.25Z"/><path class="cls-20" d="M396.1,577.82c.36,4.66-1.07,6-5.67,5.85a37.85,37.85,0,0,1-6.32-.6l-.24-6.68s5.13-2,7.82-1.55C394.07,575.21,396,576,396.1,577.82Z"/><path class="cls-20" d="M399.48,577.61c-.07,4.67,1.45,5.89,6,5.48a37.85,37.85,0,0,0,6.28-1l-.18-6.69s-5.24-1.64-7.9-1.06C401.34,574.87,399.51,575.82,399.48,577.61Z"/><path class="cls-21" d="M147.15,661.9s2.39-117.16,9.19-136.12"/></g></g></svg>