<svg id="Layer_1" data-name="Layer 1" xmlns="http://www.w3.org/2000/svg" xmlns:xlink="http://www.w3.org/1999/xlink" viewBox="0 0 610.42 789.21"><defs><style>.cls-1{mask:url(#mask);}.cls-2{fill:url(#linear-gradient);}.cls-3{mask:url(#mask-2);}.cls-4{fill:url(#linear-gradient-2);}.cls-5{mask:url(#mask-3);}.cls-6{fill:url(#linear-gradient-3);}.cls-7{mask:url(#mask-4);}.cls-8{fill:url(#linear-gradient-4);}.cls-9{mask:url(#mask-5);}.cls-10{fill:url(#linear-gradient-5);}.cls-11{fill:none;}.cls-12{clip-path:url(#clip-path);}.cls-13{fill:#fff;}.cls-14{fill:#0d1d7e;}.cls-15{mask:url(#mask-6);}.cls-16{opacity:0.14;fill:url(#linear-gradient-6);}.cls-16,.cls-18,.cls-23,.cls-28,.cls-31,.cls-35,.cls-37{isolation:isolate;}.cls-17{fill:#bd4d37;}.cls-18{fill:#246afc;opacity:0.17;}.cls-19{mask:url(#mask-7);}.cls-20{fill:url(#linear-gradient-7);}.cls-21{fill:#4a00e0;}.cls-22{mask:url(#mask-8);}.cls-23,.cls-35,.cls-37{opacity:0.31;}.cls-23{fill:url(#linear-gradient-8);}.cls-24{fill:#f68987;}.cls-25,.cls-28,.cls-31{fill:#e87979;}.cls-26{fill:url(#linear-gradient-9);}.cls-27{fill:#f1a17f;}.cls-28{opacity:0.55;}.cls-29{fill:#e5328e;}.cls-30{fill:url(#linear-gradient-10);}.cls-31{opacity:0.36;}.cls-32{fill:#c9e2f4;}.cls-33{fill:#171733;}.cls-34{mask:url(#mask-9);}.cls-35{fill:url(#linear-gradient-11);}.cls-36{mask:url(#mask-10);}.cls-37{fill:url(#linear-gradient-12);}.cls-38{fill:#e3f5ff;}.cls-39{fill:#1c1c1c;}</style><mask id="mask" x="261.93" y="-11630.23" width="115.83" height="32766" maskUnits="userSpaceOnUse"/><linearGradient id="linear-gradient" x1="18195.63" y1="13910.38" x2="18214.24" y2="13904.08" gradientTransform="matrix(3.56, 0, 0, -3.34, -64415.72, 47044.36)" gradientUnits="userSpaceOnUse"><stop offset="0" stop-color="#fff"/><stop offset="1"/></linearGradient><mask id="mask-2" x="307.54" y="-11630.23" width="86.06" height="32766" maskUnits="userSpaceOnUse"/><linearGradient id="linear-gradient-2" x1="14921.04" y1="6451.76" x2="14849.69" y2="6438.59" gradientTransform="translate(15257.24 6878.47) rotate(180)" gradientUnits="userSpaceOnUse"><stop offset="0"/><stop offset="1" stop-color="#fff"/></linearGradient><mask id="mask-3" x="341.45" y="-11630.23" width="138.87" height="32766" maskUnits="userSpaceOnUse"/><linearGradient id="linear-gradient-3" x1="420.22" y1="6327.67" x2="485.42" y2="6294.04" gradientTransform="matrix(1, 0, 0, -1, 0, 6878.47)" xlink:href="#linear-gradient-2"/><mask id="mask-4" x="141.85" y="-11630.23" width="140.44" height="32766" maskUnits="userSpaceOnUse"/><linearGradient id="linear-gradient-4" x1="233.71" y1="6369.18" x2="190.11" y2="6259.11" gradientTransform="matrix(1, 0, 0, -1, 0, 6878.47)" xlink:href="#linear-gradient-2"/><mask id="mask-5" x="48.56" y="-11630.23" width="114.58" height="32766" maskUnits="userSpaceOnUse"/><linearGradient id="linear-gradient-5" x1="109.35" y1="6272.12" x2="165.55" y2="6243.13" gradientTransform="matrix(1, 0, 0, -1, 0, 6878.47)" xlink:href="#linear-gradient-2"/><clipPath id="clip-path"><rect class="cls-11" width="610.42" height="789.21"/></clipPath><mask id="mask-6" x="261.93" y="370.38" width="115.83" height="399.95" maskUnits="userSpaceOnUse"><g id="mask-45"><g class="cls-1"><path class="cls-2" d="M320.75,770.33c13.12-37,22.19-79.54,22.19-105.57,0-43.08,2.31-100.51,13.91-122s15.44-47.14,12.35-65.64,3.09-44.1,7-67.69-.78-39-.78-39c-4.37,50.94-18.8,46.15-21.38,76.23s-2.57,50.6-13.91,71.11-10.3,47.18-25.76,96.41-43.79,95-48.95,128.54c-1,6.74-2.23,16.44-3.49,27.63Z"/></g></g></mask><linearGradient id="linear-gradient-6" x1="18195.63" y1="13910.38" x2="18214.24" y2="13904.08" gradientTransform="matrix(3.56, 0, 0, -3.34, -64415.72, 47044.36)" gradientUnits="userSpaceOnUse"><stop offset="0" stop-color="#3d6acc"/><stop offset="1" stop-color="#fff"/></linearGradient><mask id="mask-7" x="307.54" y="283.11" width="86.06" height="302.93" maskUnits="userSpaceOnUse"><g id="mask-55"><g class="cls-3"><path class="cls-4" d="M346,582.62c-24.16-4.39-38.42-12.08-38.42-12.08s28.54-170.13,57.07-237.09c7.27-17,17.45-34.14,28.6-50.34,2,41.31-4.44,83.27-4.44,83.27-7.69,48.3-16.47,69.15-17.57,99.89s14.27,119.65,14.27,119.65S370.11,587,346,582.62Z"/></g></g></mask><linearGradient id="linear-gradient-7" x1="14921.04" y1="6451.76" x2="14849.69" y2="6438.59" gradientTransform="translate(15257.24 6878.47) rotate(180)" gradientUnits="userSpaceOnUse"><stop offset="0" stop-color="#fff"/><stop offset="1" stop-color="#3d6acc"/></linearGradient><mask id="mask-8" x="341.45" y="411.21" width="138.87" height="258.39" maskUnits="userSpaceOnUse"><g id="mask-65"><g class="cls-5"><path class="cls-6" d="M386.19,436.93a957.3,957.3,0,0,1-21.08,97.22c-14.17,52.31-22.88,131.5-22.88,131.5l-.78.88c30.78,2.74,123.92,6.7,123.92-3.79,0-12.59-11.14-77.49-11.62-94s5.32-41.65,19.85-58.12c0,0,17.44-48.92-3.87-85.73-14.31-24.67-51.53-13.15-83.54,12Z"/></g></g></mask><linearGradient id="linear-gradient-8" x1="13623.66" y1="6952.57" x2="13688.86" y2="6918.94" xlink:href="#linear-gradient-7"/><linearGradient id="linear-gradient-9" x1="305.29" y1="6571.03" x2="305.94" y2="6644.83" gradientTransform="matrix(1, 0, 0, -1, 0, 6878.47)" gradientUnits="userSpaceOnUse"><stop offset="0" stop-color="#f1a17f"/><stop offset="1" stop-color="#e87979"/></linearGradient><linearGradient id="linear-gradient-10" x1="-2547.9" y1="13627.33" x2="-2547.9" y2="13602.32" gradientTransform="matrix(2.08, 0.43, 0.43, -2.08, -266.69, 29514.33)" xlink:href="#linear-gradient-9"/><mask id="mask-9" x="141.85" y="412.62" width="140.44" height="261.81" maskUnits="userSpaceOnUse"><g id="mask-66"><g class="cls-7"><path class="cls-8" d="M282.29,661.29s-26.16-98.08-39.23-134c-6.11-16.81-11.75-61.24-15-108-48.3-14.51-61.63-2.65-70.71,10.06-9.69,13.56-15.5,66.84-15.5,66.84,10.66,20.34,18.41,90.57,18.89,103.16s2.42,75.08,2.42,75.08,98.81-9,104.62-9.81A132.38,132.38,0,0,0,282.29,661.29Z"/></g></g></mask><linearGradient id="linear-gradient-11" x1="14810.45" y1="5697.52" x2="14766.85" y2="5587.45" xlink:href="#linear-gradient-7"/><mask id="mask-10" x="48.56" y="523.28" width="114.58" height="161.74" maskUnits="userSpaceOnUse"><g id="mask-67"><g class="cls-9"><path class="cls-10" d="M163.14,674.37c-20.34.48-55.21,1.93-74.1,10.65,0,0-63.45-77-31.48-133.19s94-12.11,94-12.11Z"/></g></g></mask><linearGradient id="linear-gradient-12" x1="13443.25" y1="7149.9" x2="13499.45" y2="7120.91" xlink:href="#linear-gradient-7"/></defs><g class="cls-12"><rect class="cls-13" x="78.48" y="495.86" width="463.75" height="452.41"/><path class="cls-14" d="M320.75,770.33c13.12-37,22.19-79.54,22.19-105.57,0-43.08,2.31-100.51,13.91-122s15.44-47.14,12.35-65.64,3.09-44.1,7-67.69-.78-39-.78-39c-5.4,15.38-10,16.41-20.86,35.89s-6.18,28.72-21.64,59.49-29.37,62.56-34.78,100.51-27.05,77.94-45.6,113.84c-13,25.26-21.43,56.67-26.38,90.19Z"/><g class="cls-15"><path class="cls-16" d="M320.75,770.33c13.12-37,22.19-79.54,22.19-105.57,0-43.08,2.31-100.51,13.91-122s15.44-47.14,12.35-65.64,3.09-44.1,7-67.69-.78-39-.78-39c-4.37,50.94-18.8,46.15-21.38,76.23s-2.57,50.6-13.91,71.11-10.3,47.18-25.76,96.41-43.79,95-48.95,128.54c-1,6.74-2.23,16.44-3.49,27.63Z"/></g><path class="cls-17" d="M335,572.74,327.3,683.61h62.56l5.49-117.45L335,572.74Z"/><path class="cls-18" d="M332.07,614.67,335,572.74l59.94-6.54-1.47,40.57s-36.88,4.8-61.38,7.9Z"/><g class="cls-19"><path class="cls-20" d="M346,582.62c-24.16-4.39-38.42-12.08-38.42-12.08s28.54-170.13,57.07-237.09c7.27-17,17.45-34.14,28.6-50.34,2,41.31-4.44,83.27-4.44,83.27-7.69,48.3-16.47,69.15-17.57,99.89s14.27,119.65,14.27,119.65S370.11,587,346,582.62Z"/></g><path class="cls-21" d="M226.15,308.17l4-3.05,150.19,8.53,8.72,7.63s20.34,50.86,21.79,84.28-42.1,273.16-42.1,273.16l-82.82,53.77-40.68-33.42s-48.68-307.32-48.68-310.22,29.58-80.68,29.58-80.68Z"/><path class="cls-13" d="M389.09,321.28s88.27,64.3,111.15,80.64,37,33.79,45.77,69.75,21.8,167.82,20.71,213.59-2.18,97-41.41,100.26-104.62,3.27-166.74-17.43-80.64-29.43-80.64-29.43l64.3-73s8.71-79.19,22.88-131.5,23.51-104.36,26.16-138c2.9-37.1-2.18-74.88-2.18-74.88Z"/><g class="cls-22"><path class="cls-23" d="M386.19,436.93a957.3,957.3,0,0,1-21.08,97.22c-14.17,52.31-22.88,131.5-22.88,131.5l-.78.88c30.78,2.74,123.92,6.7,123.92-3.79,0-12.59-11.14-77.49-11.62-94s5.32-41.65,19.85-58.12c0,0,17.44-48.92-3.87-85.73-14.31-24.67-51.53-13.15-83.54,12Z"/></g><path class="cls-21" d="M386.91,189.06c7.26,18.89,11.14,33.42,8.23,59.09-2.7,23.82,14.53,41.17,30.51,32,0,0,5.33,18.89-25.67,32.45s-58.12,6.78-58.12,6.78L338,223Z"/><path class="cls-24" d="M242,115.36c-13.84-8.45-30.11-4.81-35.08,14.68s-1.69,41.22,13.17,49.63,21.52,1.72,21.52,1.72Z"/><path class="cls-25" d="M241.75,162.24l.18-30.13c-1.57-1.63-8.12-7.84-15.65-6-8.64,2.06-11.48,17.81-7.67,27.31C222.36,162.69,231,165.4,241.75,162.24Z"/><path class="cls-26" d="M303,407.37c10.9,1.09,77.38-93.72,77.38-93.72-4.36-2.54-22.52-16.34-24.7-30.15S360,226.84,360,226.84l-114.79-10.9c0,26.06,5,73-15.06,89.18a111,111,0,0,1,8.57,15.07C254,352.88,292.1,406.28,303,407.37Z"/><path class="cls-27" d="M231.92,116.41c-4.08,30-3.88,56.18,1.45,79.91s22.76,70.25,64.38,73.14,64.9-36.33,72.65-49.89,30-78,30-78S418.32,62.14,366,44.22,241.6,45.21,231.92,116.41Z"/><circle class="cls-28" cx="255.04" cy="169.83" r="19.62"/><circle class="cls-28" cx="354.22" cy="182.53" r="19.62"/><path class="cls-29" d="M333.16,204.39c-1.36,7.91-16.58,17.88-34.07,15.66s-29.9-15.89-29.3-23.7c.67-8.54,15.07-5.14,32.57-2.92S334.75,194.91,333.16,204.39Z"/><path class="cls-13" d="M331.5,203.33c-1.09,4.75-15.26,9.74-31.27,7.71s-28.85-10.14-28.73-14.9c.13-5.19,13.79,2,29.8,4S332.69,198.16,331.5,203.33Z"/><path class="cls-30" d="M312.75,127.19,288.2,169.3a4.86,4.86,0,0,0,1.93,6.6,4.68,4.68,0,0,0,1.59.54l26.94,4.19.24-52.69Z"/><path class="cls-31" d="M307.86,176.13a4,4,0,1,1,7.9,1.32Z"/><path class="cls-32" d="M281,159.57a63.56,63.56,0,0,1-8.92-.69c-8.66-1.24-26.7-3.82-27.35-22-.51-14.12,3-23.26,3.16-23.64a3.62,3.62,0,0,1,2.58-2.21,86.63,86.63,0,0,1,30.76-.13c16.67,2.95,26.5,10.19,26.91,10.49a3.69,3.69,0,0,1,1.35,2c.83,3.13-5.57,24.84-10,29.73-3.89,4.31-10.09,6.45-18.49,6.45Zm-27-41.84a62.43,62.43,0,0,0-2.07,18.9c.36,10.11,8.36,13.28,21.17,15.11,10.36,1.49,17.63.29,21-3.45,2.87-3.17,6.82-16.88,8-22.23a65.46,65.46,0,0,0-22.12-8,83.17,83.17,0,0,0-26-.32Zm49.72,9.39a3.36,3.36,0,0,0,1.13.61,3.59,3.59,0,0,1-1-.54Zm51.57,43.14a70.47,70.47,0,0,1-10.25-.91c-13-1.87-21.33-6.31-24.68-13.22-2.89-5.94-2.93-28.57-1.26-31.34a3.73,3.73,0,0,1,1.86-1.53c.48-.18,11.94-4.36,28.77-2.51a86.52,86.52,0,0,1,29.49,8.77,3.58,3.58,0,0,1,1.86,2.84c0,.41.84,10.17-3.61,23.58-3.93,11.83-13.66,14.32-22.18,14.32Zm-29.84-40.84c-.41,5.45-.47,19.72,1.39,23.56,2.21,4.56,8.86,7.75,19.22,9.23,12.8,1.84,21.38,1,24.56-8.56A61.8,61.8,0,0,0,374,134.94a83,83,0,0,0-25-7,65.48,65.48,0,0,0-23.5,1.48Zm-1.86.55h-.12a3.41,3.41,0,0,1-1.14.23A3.6,3.6,0,0,0,323.59,130Z"/><path class="cls-32" d="M252.24,116.91a3.59,3.59,0,0,1-3.11-1.78s-1.88-3.17-3.76-5.69c-.86-1.14-4.2-3.24-6.07-3-.26,0-.52.07-.83.87a3.61,3.61,0,0,1-6.72-2.64,8.13,8.13,0,0,1,6.58-5.38c4.94-.66,10.71,3,12.81,5.82s4.12,6.21,4.2,6.35a3.6,3.6,0,0,1-1.25,4.94,3.64,3.64,0,0,1-1.85.5Zm158.1,31.26a3.57,3.57,0,0,1-1.07-.17,3.62,3.62,0,0,1-2.38-4.51c.58-1.87.12-2.49,0-2.7-2.21-3-13.25-3-20.56-3.08-3.18,0-6.18,0-8.83-.2a3.61,3.61,0,0,1,.21-7.21H378c2.43.16,5.32.17,8.39.19,10.81,0,22,.09,26.35,6,1.26,1.71,2.47,4.68,1.1,9.1a3.6,3.6,0,0,1-3.47,2.57Zm-88.12-17.93a3.58,3.58,0,0,1-1.33-.26c-3.82-1.51-8.94-2.23-14.81-2.07a3.61,3.61,0,0,1-.19-7.21c6.93-.19,12.87.69,17.65,2.58a3.61,3.61,0,0,1-1.32,7Z"/><path class="cls-33" d="M270.46,131.9a4.08,4.08,0,1,0,4.08-4.23A4.17,4.17,0,0,0,270.46,131.9ZM345.05,144a4.08,4.08,0,1,0,4.08-4.23A4.17,4.17,0,0,0,345.05,144Z"/><path class="cls-21" d="M380.05,128.33a79.33,79.33,0,0,0-24.25-7.18c-4.11-.56-8.29-.9-12.55-1.13s-8.61-.34-13.18-.72A39.73,39.73,0,0,1,343,115a46.2,46.2,0,0,1,13.74-.19A38.77,38.77,0,0,1,369.92,119a27,27,0,0,1,10.13,9.29Zm-75.92-10.18a86.71,86.71,0,0,0-12.1-4.63A85.13,85.13,0,0,0,279.88,111c-4.11-.57-8.29-.9-12.55-1.13s-8.61-.34-13.18-.72A39.73,39.73,0,0,1,267,104.78a46.4,46.4,0,0,1,13.72-.21A39,39,0,0,1,294,108.84,27.12,27.12,0,0,1,304.13,118.15Z"/><path class="cls-21" d="M254.2,112.57c21.41-14.77,47.95-2.42,82.34-20.83s45-33.41,45-33.41-4.36,19.37.48,33.41,15,27.13,15,38.75-6.78,37.78-6.78,37.78,19.37-26.15,22.76-37.78,5.33-38.26-1.94-56.67-20.82-25.18-22.76-30S376.24,9.56,337.44,1.68c-31-6.3-71.19,5.33-90.57,31-16.69,22.11-20.82,39.71-24.21,63s-12.6,39.23-20.83,46-25.08,16.38-25.08,16.38,22.28-.49,36.81-6.3S240.15,122.22,254.2,112.57Z"/><path class="cls-13" d="M66.52,442.25C46.9,485.84,43.63,570.84,43.63,622.06s7.63,149.29,38.14,160.19,97,6.54,131.86,3.27,94.81-12,94.81-12L294.28,661.28h-12s-26.16-98.08-39.23-134c-11.44-31.51-21.21-159.82-16.9-219.11-28.66,20.8-141,92.67-159.63,134.08Z"/><g class="cls-34"><path class="cls-35" d="M282.29,661.29s-26.16-98.08-39.23-134c-6.11-16.81-11.75-61.24-15-108-48.3-14.51-61.63-2.65-70.71,10.06-9.69,13.56-15.5,66.84-15.5,66.84,10.66,20.34,18.41,90.57,18.89,103.16s2.42,75.08,2.42,75.08,98.81-9,104.62-9.81A132.38,132.38,0,0,0,282.29,661.29Z"/></g><g class="cls-36"><path class="cls-37" d="M163.14,674.37c-20.34.48-55.21,1.93-74.1,10.65,0,0-63.45-77-31.48-133.19s94-12.11,94-12.11Z"/></g><path class="cls-27" d="M294.28,661.29c26.51-1.45,94.81-16,103.52-14.53s67.57,16,67.57,16l1.45,29.79s-24,.72-46.49,9.44-105.35,45.77-116.25,48ZM107.2,581.74a10.46,10.46,0,0,0,5.09,6.53c4.35,2.55,13.07,3.64,17.8,5.82s16.7,9.08,16.7,9.08l-21-7.27-23.62-2.54s.73,6.54,5.09,9.08,18.89,5.09,18.89,5.09l20.32,13L122.82,610H105.75s-2.91,3.27,0,5.81S122.82,622,122.82,622l13.44,9.08-17.8-8-9.08.36s0,5.81,6.54,8.72,18.89,8,23.61,13.08,17.44,23.24,23.61,29.06c45.41-2.87,104.61-9.76,104.61-9.76l-65-27.25s-23.14-33.83-35.6-42.13c-1.09-.73-21.68-10.18-29.67-11.39S107.2,581.74,107.2,581.74Z"/><path class="cls-38" d="M222.35,556.67c15.48,26.66,42.5,64.85,53.2,79.77-8.65-31.52-23.6-84.73-32.49-109.19-11.45-31.48-21.22-159.79-16.91-219.08-8.4,6.09-24,16.57-42.27,29.38-9.21,28.88-16,72-16,72l36,13.08L181,454.23s21.76,68.66,41.36,102.44ZM391.27,396.11c-2.65,33.68-12,85.73-26.16,138-8.57,31.64-15.14,73.12-19,101,10.24-23.76,31.4-71.85,47.34-101.32,21.79-40.33,43.59-75.2,43.59-75.2l-26.16-29.42,33.78-10.9a765.84,765.84,0,0,0-23.93-74l-31.64-23s5.08,37.79,2.18,74.84Z"/><path class="cls-21" d="M222.88,538.57A21.4,21.4,0,1,1,205,514.19h0A21.4,21.4,0,0,1,222.88,538.57Z"/><circle class="cls-38" cx="201.68" cy="535.38" r="18.61" transform="translate(-90.93 43.77) rotate(-10.12)"/><path class="cls-32" d="M418.81,623.17h-.18c-29.77-.09-44.5-70.13-50.05-96.5-.49-2.34-.9-4.32-1.25-5.86a2.19,2.19,0,0,1,4.26-1c.35,1.55.77,3.55,1.27,5.92,4.83,23,19.55,93,45.78,93h.17c16.3,0,31.11-7.35,31.25-7.42a2.19,2.19,0,1,1,2,3.9c-.67.36-15.89,8-33.25,8Z"/><path class="cls-32" d="M404.75,625.8c-7.19,0-14.22-1.71-19.48-3-1.15-.28-2.23-.55-3.25-.78a2.18,2.18,0,0,1,1-4.25l3.31.78c13.69,3.33,34.37,8.35,42.66-14.2,7.36-20,11.13-48.75,14.16-71.84.9-6.81,1.74-13.24,2.56-18.44a2.19,2.19,0,1,1,4.36.44,2,2,0,0,1,0,.24c-.82,5.15-1.66,11.55-2.55,18.33-3.06,23.3-6.86,52.31-14.39,72.78-5.87,15.9-17.29,19.94-28.34,19.94Z"/><path class="cls-21" d="M201.42,539a4,4,0,0,1-4-3.45A663.49,663.49,0,0,1,192,466.4c-.07-2.8-.16-5.84-.27-9.1-1.26-39.77-3.6-113.8,37.59-157.54a4,4,0,1,1,5.86,5.52h0c-38.89,41.29-36.61,113.16-35.4,151.77.11,3.28.2,6.35.27,9.16a650.55,650.55,0,0,0,5.38,68.18,4,4,0,0,1-3.37,4.55h0a3.64,3.64,0,0,1-.57,0Zm206.93-97.41h-.22a4,4,0,0,1-3.8-4.19v0c0-.26,1.4-26.49,0-52.36l-.09-1.64c-1.36-25.46-2.65-49.5-30.22-74.06a4,4,0,0,1,5.35-6h0c30.07,26.79,31.51,53.66,32.9,79.64l.09,1.64c1.42,26.31,0,53,0,53.22a4,4,0,0,1-4,3.79Z"/><path class="cls-21" d="M368.87,522.5a4,4,0,0,1-3.89-3c-6.71-26.55-3-53,9.63-69,8.66-10.95,21-16.62,35.58-16.42a33,33,0,0,1,24.75,11c19.73,21.56,16.55,67.47,16.41,69.42a4,4,0,0,1-8-.6c0-.44,3-44.41-14.33-63.39a24.88,24.88,0,0,0-18.93-8.41c-12.19-.16-22,4.32-29.15,13.37-11.19,14.1-14.27,37.84-8.19,62a4,4,0,0,1-2.88,4.87h0A3.42,3.42,0,0,1,368.87,522.5Z"/><path class="cls-39" d="M455.68,610.11c2,4.83,1,6.73-4,8.22a42.08,42.08,0,0,1-6.94,1.6l-2.62-7s4.77-3.9,7.77-4.4c2.71-.48,5-.27,5.79,1.58Zm-81.56,5.79c-1.5,5-.24,6.79,4.82,7.75a42.13,42.13,0,0,0,7.07.85l1.85-7.26s-5.16-3.38-8.2-3.56c-2.7-.11-5,.29-5.54,2.22Z"/></g></svg>