<svg xmlns="http://www.w3.org/2000/svg" xmlns:xlink="http://www.w3.org/1999/xlink" viewBox="0 0 610.42 789.21"><defs><style>.cls-1{fill:none;}.cls-2{isolation:isolate;}.cls-3{clip-path:url(#clip-path);}.cls-4{fill:#4a00e0;}.cls-5{fill:#de623c;}.blue-shade-25{fill:#134c83;opacity:0.17;}.blue-shade-25,.cls-15{mix-blend-mode:multiply;}.cls-6{fill:#5a6566;}.cls-7{fill:#fff;}.cls-8{fill:#8077e7;}.cls-9{fill:#cc553a;}.cls-10{fill:#f76060;}.cls-11{fill:#f64848;}.cls-12{fill:#060e3f;}.cls-13{mix-blend-mode:darken;}.cls-14{fill:url(#linear-gradient);}.cls-16{fill:#f97b7b;opacity:0.51;}.cls-17{fill:#bfb3fd;}.cls-18{fill:#1d1d1b;}</style><clipPath id="clip-path"><rect class="cls-1" width="610.42" height="789.21"/></clipPath><linearGradient id="linear-gradient" x1="371.98" y1="96.47" x2="371.98" y2="149.07" gradientUnits="userSpaceOnUse"><stop offset="0" stop-color="#f27852"/><stop offset="1" stop-color="#f64848"/></linearGradient></defs><g class="cls-2"><g id="Layer_1" data-name="Layer 1"><g class="cls-3"><rect class="cls-4" x="152.54" y="495.86" width="342.07" height="452.41"/><polygon class="cls-5" points="547.24 681.46 554.71 789.21 493.9 789.21 488.57 675.06 547.24 681.46"/><path class="blue-shade-25" d="M550.06,722.21l-2.82-40.75L489,675.11l1.42,39.42S526.26,719.18,550.06,722.21Z"/><path class="cls-5" d="M30.61,658C17.07,706,0,789.21,0,789.21H128.5l26.17-74.68Z"/><path class="blue-shade-25" d="M154.67,714.53,30.61,658c-2.67,9.46-5.47,20.29-8.26,31.59C62.27,709,154.67,714.53,154.67,714.53Z"/><path class="cls-4" d="M573.91,679.32s-13.86,7.48-37.34,11.74-38.4,3.21-38.4,3.21l-4.27,94.94H152.54l2.13-74.68s-44.8-9.59-75.74-22.39-65.07-36.28-65.07-36.28,62.94-174.94,111-240c46.09-62.49,120.05-97.76,148.54-117.46,39,18.59,70.52,52.53,81.88,70.53,12.8,20.25,32,61.86,32,61.86s22.41-32,32-73.61c3.61-15.62,5.71-27.92,6.93-37.21,19.59,23.82,70,76.74,92.29,129C546.17,514,573.91,679.32,573.91,679.32Z"/><circle class="cls-6" cx="459.41" cy="511.87" r="21.33" transform="translate(-137.44 170.05) rotate(-18.29)"/><circle class="cls-7" cx="459.41" cy="511.87" r="18.55" transform="translate(-109.52 898.38) rotate(-82.28)"/><path class="cls-8" d="M459.66,515.44h-.12a4,4,0,0,1-3.89-4.13,648.39,648.39,0,0,0-2.23-68.14c-.25-2.8-.49-5.84-.75-9.11-3.07-38.38-8.79-109.82-51.91-146.43a4,4,0,0,1,5.19-6.12c45.66,38.77,51.55,112.37,54.71,151.91.26,3.24.5,6.27.75,9a658.9,658.9,0,0,1,2.26,69.1A4,4,0,0,1,459.66,515.44Z"/><path class="cls-9" d="M418.16,308.11c.21,1.89,3.16,6,8,11.85-1.22,9.29-3.32,21.59-6.93,37.21-9.59,41.61-32,73.61-32,73.61s-19.19-41.61-32-61.86c-11.36-18-42.88-51.94-81.88-70.53,1.18-.82,2.27-1.6,3.3-2.37,25.6-19.2,26.3-78.95,27.73-117.35l124.45,23.82S417.09,298.5,418.16,308.11Z"/><path class="cls-10" d="M302.49,97.21c-15.18-7.27-31.58-1.79-34.64,18.87s2.61,42.77,18.83,49.9,22.38-.5,22.38-.5Z"/><path class="cls-11" d="M307.15,145.68l-3-31.15c-1.78-1.52-9.21-7.25-16.78-4.6-8.7,3-10,19.62-5,29C287.19,148.19,296.43,150.07,307.15,145.68Z"/><path class="cls-10" d="M436.56,96.15c15.18-7.28,31.58-1.8,34.64,18.86s-2.61,42.78-18.83,49.9-22.38-.49-22.38-.49Z"/><path class="cls-11" d="M431.89,144.62l3-31.16c1.79-1.52,9.21-7.24,16.79-4.6,8.7,3,10,19.62,5,29C451.85,147.13,442.61,149,431.89,144.62Z"/><path class="cls-12" d="M296.91,123.56c-6.76-29.16-7.47-56.54,0-74s27.26-34.8,39.11-42c17.07-10.31,52.23-8.81,63.65-3.56,13.16,6.05,38.41,25.6,42.67,39.47s6.05,32.36,5.34,45.16a152.76,152.76,0,0,1-3.2,23.47Z"/><path class="cls-5" d="M337.09,16.17s18.14,9.25,33.07,7.83,27-10,27-10S425.27,24.35,433.81,45s8.18,32,7.82,42.32,2.85,24.89,2.85,24.89-.72,68.27-7.47,84.63-33.07,41.6-39.83,46.93-27.73,4.63-40.18,2.49S310.42,216,304.38,196.45s-7.47-72.89-7.47-72.89,4.27-7.11,4.62-24.18S299,72.71,302.6,58.84,323.58,22.22,337.09,16.17Z"/><g class="cls-13"><polygon class="cls-14" points="363.11 97.13 352.47 144.77 374.54 149.07 391.49 145.43 382.03 96.47 363.11 97.13"/><g class="cls-15"><path class="cls-11" d="M379,146.69c-.53-2.08,1-4.14,3.53-4.58s4.93.88,5.46,3Z"/></g><g class="cls-15"><path class="cls-11" d="M366,146.69c.53-2.08-1.05-4.14-3.53-4.58s-4.93.88-5.46,3Z"/></g></g><path class="cls-12" d="M385.81,90.13,384.92,99s19.95-4.66,33.07-3a123,123,0,0,1,16.53,3.38A26,26,0,0,0,413.9,85.51,55.13,55.13,0,0,0,385.81,90.13Z"/><path class="cls-12" d="M354.69,91l.89,8.89s-19.95-4.66-33.07-3A123,123,0,0,0,306,100.27,26,26,0,0,1,326.6,86.4,55.13,55.13,0,0,1,354.69,91Z"/><ellipse class="cls-12" cx="328.83" cy="114.71" rx="3.98" ry="4.13"/><ellipse class="cls-12" cx="409.72" cy="112.75" rx="3.98" ry="4.13"/><path class="cls-16" d="M401.66,172.73c-.22,10.87-5.19,32.26-31.86,32.43-27.56.19-32.12-21.84-32.54-32.43-.61-15.36,14.41-11.48,32.19-11.48S402,157.36,401.66,172.73Z"/><path class="cls-7" d="M401.66,174.7c-.22,8.09-14.42,18.2-32.2,18.2s-31.78-10.32-32.2-18.2c-.61-11.43,14.2-4.74,32-4.74S402,163.25,401.66,174.7Z"/><path class="cls-17" d="M330.88,612.43l-1.17.16a3.21,3.21,0,0,1-.69-6.38c.16,0,16.42-1.88,29.87-10.63,21.23-13.8-4.07-79.76-12.38-101.43-.87-2.26-1.6-4.17-2.15-5.65a3.21,3.21,0,0,1,6-2.22c.54,1.46,1.27,3.35,2.12,5.57,16.51,43,32.56,94.37,9.89,109.11C349.64,609.25,335.1,611.83,330.88,612.43Z"/><path class="cls-17" d="M298.93,619.47c-13.72,2-31.07.86-38.39-20.57-7.07-20.68-10.2-49.74-12.72-73.09-.73-6.77-1.42-13.16-2.11-18.3a3.22,3.22,0,0,1,2.73-3.6h0a3.19,3.19,0,0,1,3.6,2.75c.7,5.22,1.4,11.65,2.13,18.46,2.35,21.82,5.57,51.7,12.41,71.71s23.3,18.33,41,14.46c1.19-.25,2.3-.5,3.34-.71a3.21,3.21,0,0,1,1.28,6.29c-1,.2-2.1.44-3.25.69C306.06,618.2,302.63,619,298.93,619.47Z"/><path class="cls-8" d="M279,430.69a4,4,0,0,1-4.39-2.76c-.08-.25-8.09-25.62-13.29-51.36L261,375c-5.15-25.43-10-49.61,11.31-83.67,6.49-10.4,12.64-8.07,14.49-6.84-1.87,2.53-6,8-7.28,9.88-20.47,30.59-15.7,54.12-10.66,79l.32,1.6c5.11,25.31,13,50.28,13.08,50.53a4,4,0,0,1-2.61,5A3.81,3.81,0,0,1,279,430.69Z"/><path class="cls-8" d="M250.28,516.35a4,4,0,0,1-4.5-3.21,161.85,161.85,0,0,1-1.95-39.2c2.29-27.69,13.33-45,31.94-50.12,38.34-10.51,64.56,27.07,76.31,65.76a4,4,0,0,1-7.67,2.33c-6-19.79-15.05-36.62-25.45-47.41-12.25-12.7-26.06-17.06-41.07-12.95-37.13,10.18-24.37,79.38-24.24,80.08a4,4,0,0,1-3.18,4.69Z"/><path class="cls-18" d="M323.73,609.2c.92,5.14,2.84,6.15,7.77,4.74a42,42,0,0,0,6.68-2.42l-1.61-7.29s-6.11-.7-8.89.51C325.2,605.81,323.38,607.23,323.73,609.2Z"/><path class="cls-18" d="M320,609.92c1.38,5,.09,6.77-5,7.61a43.05,43.05,0,0,1-7.07.69l-1.67-7.29s5.21-3.24,8.25-3.35C317.24,607.48,319.49,608,320,609.92Z"/><path class="blue-shade-25" d="M154.67,714.53S201.51,608.68,206,576.93c0,0-15.59,118.78-31.18,132.1S154.67,714.53,154.67,714.53Z"/><path class="blue-shade-25" d="M498.17,694.27s3.24-117.73-3.56-145.88c0,0,18.71,106.78,15.31,122.66S498.17,694.27,498.17,694.27Z"/></g></g></g></svg>