<svg xmlns="http://www.w3.org/2000/svg" xmlns:xlink="http://www.w3.org/1999/xlink" viewBox="0 0 610.42 789.21"><defs><style>.cls-1{fill:none;}.cls-2{isolation:isolate;}.cls-3{clip-path:url(#clip-path);}.cls-4{fill:#5888f8;}.cls-5{fill:url(#linear-gradient);}.cls-6{fill:#e11d48;}.cls-7{fill:#f1a17f;}.cls-8{fill:url(#linear-gradient-2);}.cls-9{fill:#f68987;}.cls-10{fill:#4a00e0;}.cls-11{fill:#e87979;}.cls-12{fill:#060e3f;}.cls-13{fill:#fff;}.blue-shade-25{fill:#134c83;opacity:0.17;mix-blend-mode:multiply;}</style><clipPath id="clip-path"><rect class="cls-1" width="610.42" height="789.21"/></clipPath><linearGradient id="linear-gradient" x1="229.32" y1="290.79" x2="373.77" y2="290.79" gradientUnits="userSpaceOnUse"><stop offset="0" stop-color="#f1a17f"/><stop offset="1" stop-color="#e87979"/></linearGradient><linearGradient id="linear-gradient-2" x1="297.47" y1="112.51" x2="297.47" y2="161.33" xlink:href="#linear-gradient"/></defs><g class="cls-2"><g id="Layer_1" data-name="Layer 1"><rect class="cls-1" width="610.42" height="789.21"/><g class="cls-3"><rect class="cls-4" x="126.04" y="495.86" width="368.57" height="452.41"/><path class="cls-5" d="M373.77,277.87c-18,42.43-69.27,100.76-69.27,100.76-13.53-3.37-58.56-65.9-75.18-99.56,12.7-19.45,12.46-49.57,11.87-68.31l121.64-7.82S361.53,258,373.77,277.87Z"/><path class="cls-4" d="M601.84,560.74S557,580,518.61,589.91s-68.28,15.83-68.28,15.83V714.56L123.82,713l1.6-131.25-116.84-16s28-123,59.76-170.73c39.83-59.75,132.13-89.09,152.94-106.71a41.18,41.18,0,0,0,8-9.22c16.62,33.66,61.65,96.19,75.18,99.56,0,0,51.29-58.33,69.27-100.76a21.22,21.22,0,0,0,1.86,2.61c14.23,17.07,69.71,40.54,101.73,53.35s64.72,41.26,85.35,92.47S601.84,560.74,601.84,560.74Z"/><path class="cls-6" d="M227,79.52c6.17-16.45,21.7-36.63,32-43,0,0,32.37-33.79,53-32.37S350,46.44,350,46.44,365.32,61,369.23,76s5.69,35.56,5.69,35.56-1.42,11.38-3.55,10.67-142,4.91-142,4.91-8.87-5.82-7.59-16.92S224.83,85.21,227,79.52Z"/><path class="cls-7" d="M270,46.09c11.81-1.66,19.3,3.29,31.74,2.93S324,44,330,46.09s22.32,11.2,29.08,26.14,11.91,29.43,10.13,50.42,7.09,57.08,1.78,76.73c-3.56,13.16-21.7,32.37-31.3,40.55s-20.27,15.29-38.77,15.29-31.65-12.8-45.88-23.12-27.74-22.95-27.74-42c0-22.41,2.31-69.27,1.6-77.1S235,81.81,241.46,70.36C248.49,57.81,260.36,47.44,270,46.09Z"/><polygon class="cls-8" points="290.56 113.12 282.27 157.34 299.46 161.33 312.67 157.95 305.3 112.51 290.56 113.12"/><path class="cls-9" d="M302.91,159.12a3.59,3.59,0,0,1,7-1.51Z"/><path class="cls-9" d="M292.79,159.12a3.58,3.58,0,1,0-7-1.51Z"/><path class="cls-10" d="M263.25,148.91c-8.36,0-25.75,0-28.82-17.07-2.39-13.27-.31-22.38-.22-22.76a3.44,3.44,0,0,1,2.14-2.44,82.6,82.6,0,0,1,29-4.28c16.15.52,26.41,6,26.84,6.26h0a3.52,3.52,0,0,1,1.55,1.7c1.2,2.84-1.9,24.21-5.43,29.43C284.25,145.83,275.8,148.91,263.25,148.91ZM240.6,112.48a59.56,59.56,0,0,0,.6,18.14c1.71,9.5,9.7,11.4,22.05,11.4,10,0,16.69-2.11,19.4-6.11,2.28-3.38,4.15-16.86,4.51-22.07a62.64,62.64,0,0,0-22-4.61A78.64,78.64,0,0,0,240.6,112.48ZM290,115h0Zm-1.14-.42A3.17,3.17,0,0,0,290,115a3.63,3.63,0,0,1-1.05-.36S288.9,114.64,288.84,114.61Z"/><path class="cls-10" d="M333.57,148.91c-12.55,0-21-3.08-25.1-9.15-1.8-2.65-3.33-8.07-4.56-16.09-.79-5.16-1.58-11.66-.87-13.34a3.47,3.47,0,0,1,1.55-1.7h0c.42-.23,10.69-5.74,26.83-6.26a82.54,82.54,0,0,1,29,4.28,3.46,3.46,0,0,1,2.15,2.44c.09.38,2.17,9.49-.22,22.76C359.31,148.91,341.93,148.91,333.57,148.91Zm-23.91-35.08c.35,5.2,2.22,18.7,4.51,22.08,2.7,4,9.41,6.11,19.4,6.11,12.34,0,20.33-1.9,22-11.4a59.16,59.16,0,0,0,.6-18.13,78.38,78.38,0,0,0-24.56-3.26A62.05,62.05,0,0,0,309.66,113.83Zm-2.83,1.2Zm1.16-.42-.11.06a3.53,3.53,0,0,1-1.05.36A3.2,3.2,0,0,0,308,114.61Z"/><path class="cls-10" d="M218.43,112.84a3.55,3.55,0,0,1-.79-.09,3.44,3.44,0,0,1-2.56-4.14c1.23-5.24,4.09-7.66,6.27-8.75a11.44,11.44,0,0,1,9.81,0c3.28,1.41,8.66,5.51,9.26,6a3.44,3.44,0,0,1-4.19,5.46,51.9,51.9,0,0,0-7.78-5.1,4.77,4.77,0,0,0-4-.16c-1.58.8-2.33,2.72-2.67,4.19A3.45,3.45,0,0,1,218.43,112.84Z"/><path class="cls-10" d="M359.63,114.45a3.44,3.44,0,0,1-1.95-6.28c.57-.4,14.27-9.71,22.15-6.15a7.94,7.94,0,0,1,4.56,6.61,3.44,3.44,0,0,1-6.84.82c-.11-1-.4-1.09-.55-1.16-2.33-1-9.67,1.6-15.42,5.55A3.45,3.45,0,0,1,359.63,114.45Z"/><path class="cls-10" d="M306.24,115.09a3.08,3.08,0,0,1-.8-.1,36.91,36.91,0,0,0-14.28.05,3.44,3.44,0,0,1-1.15-6.79c6.52-1.11,12.25-1.09,17,0a3.44,3.44,0,0,1-.79,6.79Z"/><path class="cls-9" d="M229.45,111.94c-12.29-7.66-26.74-4.36-31.15,13.3s-1.51,37.34,11.7,45,19.11,1.56,19.11,1.56Z"/><path class="cls-11" d="M229.21,154.41l.16-27.3c-1.4-1.47-7.22-7.1-13.91-5.48-7.67,1.86-10.2,16.14-6.81,24.74C212,154.82,219.69,157.27,229.21,154.41Z"/><path class="cls-9" d="M368.88,111.23c12.82-7.66,27.89-4.36,32.49,13.29s1.57,37.35-12.2,45-19.93,1.56-19.93,1.56Z"/><path class="cls-11" d="M369.13,153.7,369,126.4c1.45-1.48,7.53-7.11,14.5-5.48,8,1.86,10.64,16.14,7.1,24.74S379.06,156.56,369.13,153.7Z"/><path class="cls-6" d="M288.41,104.24a60.62,60.62,0,0,0-11.87-4.08,54.67,54.67,0,0,0-11.65-1.25,97.53,97.53,0,0,0-11.85.74c-4,.43-8.07,1.09-12.38,1.41a34.55,34.55,0,0,1,11.48-8.22,31.08,31.08,0,0,1,12.79-2.74,26.68,26.68,0,0,1,12.87,3.4A27.86,27.86,0,0,1,288.41,104.24Z"/><path class="cls-6" d="M308.41,104a60.62,60.62,0,0,1,11.87-4.08,55.32,55.32,0,0,1,11.65-1.25,99.3,99.3,0,0,1,11.84.74c4,.43,8.08,1.1,12.39,1.41a34.52,34.52,0,0,0-11.48-8.21,31,31,0,0,0-12.79-2.74A26.64,26.64,0,0,0,319,93.23,27.86,27.86,0,0,0,308.41,104Z"/><path class="cls-12" d="M258.53,121.85a3.47,3.47,0,1,0,3.47-3.6A3.53,3.53,0,0,0,258.53,121.85Z"/><path class="cls-12" d="M330.29,121.85a3.47,3.47,0,1,0,3.46-3.6A3.53,3.53,0,0,0,330.29,121.85Z"/><path class="cls-13" d="M325.89,181.15c-.19,5.14-12.93,11.54-28.87,11.54s-28.49-6.54-28.87-11.54c-.55-7.24,12.74-3,28.68-3S326.15,173.9,325.89,181.15Z"/><path class="cls-7" d="M27.79,562.88s22.76,2.84,49.08,6.4a229.6,229.6,0,0,1,48.55,12.45l6.94,54.42s49.79,5.69,96.74,11.38,125.91-10,146.53-12.1,79.67.72,79.67.72l5,38.41s-92.47,34.85-176.41,50.5-187.44,39.31-227.27,13S27.79,562.88,27.79,562.88Z"/><path class="cls-7" d="M450.33,605.74s40.54-18.14,72-26.15S565,572.13,565,572.13s1.07,64.55-7.47,116.83S541,762.05,514.88,773.79s-145.11,16.54-216.07,3.73-118.44-34.67-118.44-34.67,82.16-12.27,133.91-24S451,677.58,451,677.58Z"/><path class="cls-7" d="M132.36,636.15l-6.94-54.42a229.6,229.6,0,0,0-48.55-12.45c-26.32-3.56-49.08-6.4-49.08-6.4a683.22,683.22,0,0,0-.52,78C57.34,638.1,107.56,633.33,132.36,636.15Z"/><path class="blue-shade-25" d="M564.92,595.06c.26-14,.11-22.93.11-22.93s-11.2-.54-42.68,7.46-72,26.15-72,26.15C514.15,593.39,551.56,594.14,564.92,595.06Z"/><path class="blue-shade-25" d="M83.27,585.64c20.68,0,34.82.52,42.77.93l-.62-4.84a229.6,229.6,0,0,0-48.55-12.45c-26.32-3.56-49.08-6.4-49.08-6.4S27,574,26.58,590.77A336.64,336.64,0,0,1,83.27,585.64Z"/><path class="cls-13" d="M445.35,521.62c-27.07-2.46-55.38-2.28-84.65,0v-31.3c28.5-2.22,56.76-2.52,84.65,0Z"/><path class="cls-10" d="M348.14,501h6.43a3.72,3.72,0,0,1,3.72,3.72v16.82a0,0,0,0,1,0,0H344.42a0,0,0,0,1,0,0V504.76A3.72,3.72,0,0,1,348.14,501Z"/><path class="cls-12" d="M344.1,505h1.12a0,0,0,0,1,0,0v58.25a0,0,0,0,1,0,0H344.1a2.48,2.48,0,0,1-2.48-2.48V507.52A2.48,2.48,0,0,1,344.1,505Z"/><path class="cls-6" d="M365.88,501.3h6.43A3.72,3.72,0,0,1,376,505v16.82a0,0,0,0,1,0,0H362.16a0,0,0,0,1,0,0V505A3.72,3.72,0,0,1,365.88,501.3Z"/><path class="cls-12" d="M361.84,505.3H363a0,0,0,0,1,0,0v58.25a0,0,0,0,1,0,0h-1.12a2.48,2.48,0,0,1-2.48-2.48V507.78A2.48,2.48,0,0,1,361.84,505.3Z"/></g><path class="blue-shade-25" d="M180.37,742.85S354.17,727.39,451,677.58"/></g></g></svg>